SplineFontDB: 3.0
FontName: Pacifico
FullName: Pacifico
FamilyName: Pacifico
Weight: Book
Copyright: Copyright (c) 2011 by vernon adams. All rights reserved.
Version: 1.000
ItalicAngle: 0
UnderlinePosition: -103
UnderlineWidth: 102
Ascent: 1638
Descent: 410
sfntRevision: 0x00010000
LayerCount: 2
Layer: 0 1 "Back"  1
Layer: 1 1 "Fore"  0
XUID: [1021 759 1887733602 10269840]
FSType: 0
OS2Version: 2
OS2_WeightWidthSlopeOnly: 0
OS2_UseTypoMetrics: 1
CreationTime: 1297379580
ModificationTime: 1304440607
PfmFamily: 17
TTFWeight: 400
TTFWidth: 5
LineGap: 0
VLineGap: 0
Panose: 2 0 0 0 0 0 0 0 0 0
OS2TypoAscent: 1243
OS2TypoAOffset: 1
OS2TypoDescent: -518
OS2TypoDOffset: 1
OS2TypoLinegap: 0
OS2WinAscent: 0
OS2WinAOffset: 1
OS2WinDescent: 0
OS2WinDOffset: 1
HheadAscent: 0
HheadAOffset: 1
HheadDescent: 0
HheadDOffset: 1
OS2SubXSize: 1434
OS2SubYSize: 1331
OS2SubXOff: 0
OS2SubYOff: 287
OS2SupXSize: 1434
OS2SupYSize: 1331
OS2SupXOff: 0
OS2SupYOff: 977
OS2StrikeYSize: 102
OS2StrikeYPos: 512
OS2Vendor: 'newt'
OS2CodePages: 20000111.40000000
OS2UnicodeRanges: 8000002f.4800004b.14000000.00000000
Lookup: 258 0 0 "'kern' Horizontal Kerning in Latin lookup 0"  {"'kern' Horizontal Kerning in Latin lookup 0 subtable" [307,30,0] } ['kern' ('latn' <'dflt' > ) ]
MarkAttachClasses: 1
DEI: 91125
TtTable: prep
PUSHW_1
 511
SCANCTRL
PUSHB_1
 4
SCANTYPE
EndTTInstrs
ShortTable: maxp 16
  1
  0
  231
  216
  7
  169
  4
  1
  0
  0
  0
  0
  0
  0
  2
  1
EndShort
LangName: 1033 "" "" "Regular" "vernonadams: Pacifico: 2011" "" "Version 1.000" "" "Pacifico is a trademark of vernon adams." "vernon adams" "vernon adams" "Copyright (c) 2011 by vernon adams. All rights reserved." "" "" "" "" "" "" "" "Pacifico" 
GaspTable: 1 65535 15
Encoding: UnicodeBmp
Compacted: 1
UnicodeInterp: none
NameList: Adobe Glyph List
DisplaySize: -48
AntiAlias: 1
FitToEm: 1
WinInfo: 0 20 13
BeginPrivate: 0
EndPrivate
BeginChars: 65539 231

StartChar: c
Encoding: 99 99 4
Width: 736
Flags: W
LayerCount: 2
Fore
SplineSet
437 0 m 0,0,1
 345 0 345 0 275.5 34 c 128,-1,2
 206 68 206 68 159 125 c 128,-1,3
 112 182 112 182 88 257 c 128,-1,4
 64 332 64 332 64 413 c 0,5,6
 64 471 64 471 76 534 c 128,-1,7
 88 597 88 597 111.5 657.5 c 128,-1,8
 135 718 135 718 169.5 773 c 128,-1,9
 204 828 204 828 249.5 869.5 c 128,-1,10
 295 911 295 911 351 935.5 c 128,-1,11
 407 960 407 960 474 960 c 0,12,13
 531 960 531 960 579.5 942.5 c 128,-1,14
 628 925 628 925 662.5 894 c 128,-1,15
 697 863 697 863 716.5 820.5 c 128,-1,16
 736 778 736 778 736 729 c 0,17,18
 736 695 736 695 727 662 c 128,-1,19
 718 629 718 629 700.5 602.5 c 128,-1,20
 683 576 683 576 658 560 c 128,-1,21
 633 544 633 544 602 544 c 0,22,23
 555 544 555 544 540.5 569 c 128,-1,24
 526 594 526 594 526 638 c 0,25,26
 526 656 526 656 527.5 676 c 128,-1,27
 529 696 529 696 529 712 c 0,28,29
 529 736 529 736 524 752 c 128,-1,30
 519 768 519 768 502 768 c 0,31,32
 461 768 461 768 432 748.5 c 128,-1,33
 403 729 403 729 382.5 697.5 c 128,-1,34
 362 666 362 666 350 626.5 c 128,-1,35
 338 587 338 587 331 548 c 128,-1,36
 324 509 324 509 322 473.5 c 128,-1,37
 320 438 320 438 320 414 c 0,38,39
 320 378 320 378 326.5 339 c 128,-1,40
 333 300 333 300 351 267.5 c 128,-1,41
 369 235 369 235 400 213.5 c 128,-1,42
 431 192 431 192 480 192 c 0,43,44
 528 192 528 192 586 221.5 c 128,-1,45
 644 251 644 251 702.5 296 c 128,-1,46
 761 341 761 341 814 395 c 128,-1,47
 867 449 867 449 905 497 c 1,48,-1
 974 381 l 1,49,50
 899 274 899 274 812 190 c 0,51,52
 775 154 775 154 731.5 120 c 128,-1,53
 688 86 688 86 640.5 59.5 c 128,-1,54
 593 33 593 33 541.5 16.5 c 128,-1,55
 490 0 490 0 437 0 c 0,0,1
EndSplineSet
EndChar

StartChar: f
Encoding: 102 102 5
Width: 723
Flags: W
LayerCount: 2
Fore
SplineSet
68 -38 m 0,0,1
 68 -33 68 -33 70.5 23 c 128,-1,2
 73 79 73 79 80 172 c 128,-1,3
 87 265 87 265 99 386.5 c 128,-1,4
 111 508 111 508 130.5 643.5 c 128,-1,5
 150 779 150 779 176.5 921.5 c 128,-1,6
 203 1064 203 1064 239.5 1199 c 128,-1,7
 276 1334 276 1334 323 1453.5 c 128,-1,8
 370 1573 370 1573 428.5 1662.5 c 128,-1,9
 487 1752 487 1752 559 1804 c 128,-1,10
 631 1856 631 1856 717 1856 c 0,11,12
 751 1856 751 1856 788.5 1844 c 128,-1,13
 826 1832 826 1832 857 1805 c 128,-1,14
 888 1778 888 1778 908.5 1733.5 c 128,-1,15
 929 1689 929 1689 929 1624 c 0,16,17
 929 1565 929 1565 910.5 1488.5 c 128,-1,18
 892 1412 892 1412 858.5 1325 c 128,-1,19
 825 1238 825 1238 779.5 1144 c 128,-1,20
 734 1050 734 1050 680 956.5 c 128,-1,21
 626 863 626 863 566.5 772.5 c 128,-1,22
 507 682 507 682 445 603 c 1,23,-1
 443 587 l 1,24,25
 463 597 463 597 473 600 c 128,-1,26
 483 603 483 603 494 603 c 0,27,28
 507 603 507 603 515 600.5 c 128,-1,29
 523 598 523 598 529.5 595 c 128,-1,30
 536 592 536 592 543 589.5 c 128,-1,31
 550 587 550 587 560 587 c 0,32,33
 659 587 659 587 735 610.5 c 128,-1,34
 811 634 811 634 863 663 c 0,35,36
 924 696 924 696 969 740 c 1,37,-1
 947 497 l 1,38,39
 881 461 881 461 809 441 c 128,-1,40
 737 421 737 421 676 411 c 0,41,42
 605 400 605 400 535 397 c 1,43,44
 571 331 571 331 600 260 c 0,45,46
 625 199 625 199 645.5 123.5 c 128,-1,47
 666 48 666 48 666 -29 c 0,48,49
 666 -38 666 -38 663.5 -67 c 128,-1,50
 661 -96 661 -96 655 -138 c 128,-1,51
 649 -180 649 -180 638 -231 c 128,-1,52
 627 -282 627 -282 609.5 -334 c 128,-1,53
 592 -386 592 -386 567 -434.5 c 128,-1,54
 542 -483 542 -483 508.5 -520.5 c 128,-1,55
 475 -558 475 -558 431.5 -581 c 128,-1,56
 388 -604 388 -604 333 -604 c 256,57,58
 278 -604 278 -604 237 -579 c 128,-1,59
 196 -554 196 -554 167 -511.5 c 128,-1,60
 138 -469 138 -469 118.5 -412.5 c 128,-1,61
 99 -356 99 -356 88 -293 c 128,-1,62
 77 -230 77 -230 72.5 -164.5 c 128,-1,63
 68 -99 68 -99 68 -38 c 0,0,1
335 442 m 0,64,65
 331 442 331 442 326 419.5 c 128,-1,66
 321 397 321 397 316.5 361.5 c 128,-1,67
 312 326 312 326 308 282 c 128,-1,68
 304 238 304 238 301 195.5 c 128,-1,69
 298 153 298 153 296 116.5 c 128,-1,70
 294 80 294 80 294 59 c 0,71,72
 294 -88 294 -88 299.5 -175 c 128,-1,73
 305 -262 305 -262 313.5 -307 c 128,-1,74
 322 -352 322 -352 332.5 -365.5 c 128,-1,75
 343 -379 343 -379 354 -379 c 0,76,77
 388 -379 388 -379 408.5 -348 c 128,-1,78
 429 -317 429 -317 439.5 -269.5 c 128,-1,79
 450 -222 450 -222 453.5 -165.5 c 128,-1,80
 457 -109 457 -109 457 -57 c 0,81,82
 457 -22 457 -22 451.5 29 c 128,-1,83
 446 80 446 80 436.5 135.5 c 128,-1,84
 427 191 427 191 414.5 246 c 128,-1,85
 402 301 402 301 388.5 344.5 c 128,-1,86
 375 388 375 388 361 415 c 128,-1,87
 347 442 347 442 335 442 c 0,64,65
578 1533 m 0,88,89
 520 1389 520 1389 487 1279.5 c 128,-1,90
 454 1170 454 1170 437 1085 c 128,-1,91
 420 1000 420 1000 413 935.5 c 128,-1,92
 406 871 406 871 399 816 c 1,93,94
 460 931 460 931 522 1042.5 c 128,-1,95
 584 1154 584 1154 634 1249.5 c 128,-1,96
 684 1345 684 1345 715.5 1418 c 128,-1,97
 747 1491 747 1491 747 1529 c 0,98,99
 747 1582 747 1582 732 1606.5 c 128,-1,100
 717 1631 717 1631 691 1631 c 0,101,102
 645 1631 645 1631 621 1606.5 c 128,-1,103
 597 1582 597 1582 578 1533 c 0,88,89
EndSplineSet
EndChar

StartChar: i
Encoding: 105 105 6
Width: 537
Flags: W
LayerCount: 2
Fore
SplineSet
736 213 m 1,0,1
 700 180 700 180 646.5 142.5 c 128,-1,2
 593 105 593 105 531 73.5 c 128,-1,3
 469 42 469 42 404.5 21 c 128,-1,4
 340 0 340 0 282 0 c 0,5,6
 230 0 230 0 194.5 14.5 c 128,-1,7
 159 29 159 29 137 55 c 128,-1,8
 115 81 115 81 105.5 118.5 c 128,-1,9
 96 156 96 156 96 201 c 0,10,11
 96 264 96 264 110.5 347.5 c 128,-1,12
 125 431 125 431 146 520.5 c 128,-1,13
 167 610 167 610 190.5 699 c 128,-1,14
 214 788 214 788 232 863 c 0,15,16
 239 889 239 889 260 907.5 c 128,-1,17
 281 926 281 926 307.5 937.5 c 128,-1,18
 334 949 334 949 362.5 954.5 c 128,-1,19
 391 960 391 960 414 960 c 0,20,21
 456 960 456 960 471 944.5 c 128,-1,22
 486 929 486 929 486 903 c 0,23,24
 486 881 486 881 476 839.5 c 128,-1,25
 466 798 466 798 451 745.5 c 128,-1,26
 436 693 436 693 419 632.5 c 128,-1,27
 402 572 402 572 387 511.5 c 128,-1,28
 372 451 372 451 362 393.5 c 128,-1,29
 352 336 352 336 352 290 c 0,30,31
 352 245 352 245 362 218.5 c 128,-1,32
 372 192 372 192 403 192 c 0,33,34
 439 192 439 192 483 217 c 128,-1,35
 527 242 527 242 572 277.5 c 128,-1,36
 617 313 617 313 660 351 c 128,-1,37
 703 389 703 389 736 416 c 1,38,-1
 736 213 l 1,0,1
289 1241 m 0,39,40
 289 1264 289 1264 299 1293 c 128,-1,41
 309 1322 309 1322 331.5 1347.5 c 128,-1,42
 354 1373 354 1373 391.5 1390.5 c 128,-1,43
 429 1408 429 1408 485 1408 c 0,44,45
 520 1408 520 1408 551 1400 c 128,-1,46
 582 1392 582 1392 605 1375.5 c 128,-1,47
 628 1359 628 1359 641.5 1332 c 128,-1,48
 655 1305 655 1305 655 1268 c 0,49,50
 655 1234 655 1234 644 1202 c 128,-1,51
 633 1170 633 1170 609 1145 c 128,-1,52
 585 1120 585 1120 548.5 1104.5 c 128,-1,53
 512 1089 512 1089 461 1089 c 0,54,55
 373 1089 373 1089 331 1130.5 c 128,-1,56
 289 1172 289 1172 289 1241 c 0,39,40
EndSplineSet
EndChar

StartChar: n
Encoding: 110 110 7
Width: 927
Flags: W
LayerCount: 2
Fore
SplineSet
128 209 m 0,0,1
 128 275 128 275 136 361.5 c 128,-1,2
 144 448 144 448 156 537.5 c 128,-1,3
 168 627 168 627 183 710 c 128,-1,4
 198 793 198 793 212 852 c 0,5,6
 223 898 223 898 254.5 929 c 128,-1,7
 286 960 286 960 340 960 c 256,8,9
 394 960 394 960 415 927 c 128,-1,10
 436 894 436 894 436 839 c 0,11,12
 436 824 436 824 433 798.5 c 128,-1,13
 430 773 430 773 425.5 742.5 c 128,-1,14
 421 712 421 712 416 679.5 c 128,-1,15
 411 647 411 647 406.5 619.5 c 128,-1,16
 402 592 402 592 399 571.5 c 128,-1,17
 396 551 396 551 396 544 c 1,18,-1
 416 544 l 1,19,20
 422 555 422 555 435 579.5 c 128,-1,21
 448 604 448 604 465 636 c 128,-1,22
 482 668 482 668 501.5 703.5 c 128,-1,23
 521 739 521 739 538 771.5 c 128,-1,24
 555 804 555 804 569 829 c 128,-1,25
 583 854 583 854 590 866 c 0,26,27
 622 920 622 920 663 940 c 128,-1,28
 704 960 704 960 754 960 c 256,29,30
 804 960 804 960 833.5 918 c 128,-1,31
 863 876 863 876 863 802 c 0,32,33
 863 791 863 791 858.5 765 c 128,-1,34
 854 739 854 739 847 703 c 128,-1,35
 840 667 840 667 831.5 624 c 128,-1,36
 823 581 823 581 816 536 c 128,-1,37
 809 491 809 491 804.5 447 c 128,-1,38
 800 403 800 403 800 366 c 0,39,40
 800 304 800 304 815.5 264 c 128,-1,41
 831 224 831 224 864 224 c 0,42,43
 879 224 879 224 898.5 233 c 128,-1,44
 918 242 918 242 940.5 256.5 c 128,-1,45
 963 271 963 271 986.5 290 c 128,-1,46
 1010 309 1010 309 1033 329 c 0,47,48
 1086 376 1086 376 1144 435 c 1,49,-1
 1161 211 l 1,50,-1
 1111 173 l 2,51,52
 1070 142 1070 142 1027.5 111 c 128,-1,53
 985 80 985 80 939 55.5 c 128,-1,54
 893 31 893 31 843 15.5 c 128,-1,55
 793 0 793 0 738 0 c 256,56,57
 683 0 683 0 645.5 79.5 c 128,-1,58
 608 159 608 159 608 312 c 0,59,60
 608 372 608 372 616 441.5 c 128,-1,61
 624 511 624 511 636 591 c 1,62,-1
 620 591 l 1,63,-1
 358 71 l 2,64,65
 338 30 338 30 313 15 c 128,-1,66
 288 0 288 0 255 0 c 0,67,68
 214 0 214 0 189 17.5 c 128,-1,69
 164 35 164 35 150.5 64.5 c 128,-1,70
 137 94 137 94 132.5 131.5 c 128,-1,71
 128 169 128 169 128 209 c 0,0,1
EndSplineSet
EndChar

StartChar: P
Encoding: 80 80 8
Width: 1441
Flags: W
LayerCount: 2
Fore
SplineSet
958 1823 m 0,0,1
 1126 1823 1126 1823 1252.5 1777.5 c 128,-1,2
 1379 1732 1379 1732 1463 1656.5 c 128,-1,3
 1547 1581 1547 1581 1589.5 1483 c 128,-1,4
 1632 1385 1632 1385 1632 1280 c 0,5,6
 1632 1182 1632 1182 1594 1086 c 128,-1,7
 1556 990 1556 990 1479.5 909 c 128,-1,8
 1403 828 1403 828 1286.5 769 c 128,-1,9
 1170 710 1170 710 1013 686 c 1,10,11
 1010 613 1010 613 1008 552 c 0,12,13
 1007 526 1007 526 1006 500 c 128,-1,14
 1005 474 1005 474 1004.5 452.5 c 128,-1,15
 1004 431 1004 431 1003.5 415 c 128,-1,16
 1003 399 1003 399 1003 393 c 0,17,18
 1001 323 1001 323 986.5 247.5 c 128,-1,19
 972 172 972 172 944.5 100 c 128,-1,20
 917 28 917 28 877.5 -36.5 c 128,-1,21
 838 -101 838 -101 785.5 -149.5 c 128,-1,22
 733 -198 733 -198 668 -226.5 c 128,-1,23
 603 -255 603 -255 526 -255 c 0,24,25
 444 -255 444 -255 379.5 -212.5 c 128,-1,26
 315 -170 315 -170 266.5 -98 c 128,-1,27
 218 -26 218 -26 184.5 68 c 128,-1,28
 151 162 151 162 130 264.5 c 128,-1,29
 109 367 109 367 99.5 471 c 128,-1,30
 90 575 90 575 90 667 c 0,31,32
 90 825 90 825 119 972 c 128,-1,33
 148 1119 148 1119 202 1247.5 c 128,-1,34
 256 1376 256 1376 333 1482 c 128,-1,35
 410 1588 410 1588 506.5 1664 c 128,-1,36
 603 1740 603 1740 716.5 1781.5 c 128,-1,37
 830 1823 830 1823 958 1823 c 0,0,1
358 693 m 0,38,39
 358 652 358 652 358.5 582.5 c 128,-1,40
 359 513 359 513 364 434 c 128,-1,41
 369 355 369 355 380 274 c 128,-1,42
 391 193 391 193 412.5 127.5 c 128,-1,43
 434 62 434 62 466.5 20.5 c 128,-1,44
 499 -21 499 -21 548 -21 c 0,45,46
 599 -21 599 -21 635 14.5 c 128,-1,47
 671 50 671 50 695 106.5 c 128,-1,48
 719 163 719 163 733 234.5 c 128,-1,49
 747 306 747 306 754 378 c 128,-1,50
 761 450 761 450 763 515.5 c 128,-1,51
 765 581 765 581 765 627 c 2,52,-1
 765 674 l 1,53,54
 682 707 682 707 634.5 732 c 128,-1,55
 587 757 587 757 563 780 c 128,-1,56
 539 803 539 803 532.5 828.5 c 128,-1,57
 526 854 526 854 526 888 c 0,58,59
 526 906 526 906 527 923.5 c 128,-1,60
 528 941 528 941 532.5 954.5 c 128,-1,61
 537 968 537 968 545.5 976.5 c 128,-1,62
 554 985 554 985 569 985 c 0,63,64
 579 985 579 985 587.5 981 c 128,-1,65
 596 977 596 977 609 970 c 0,66,67
 642 952 642 952 669 940.5 c 128,-1,68
 696 929 696 929 715 922 c 0,69,70
 737 914 737 914 755 910 c 1,71,72
 755 923 755 923 755.5 961.5 c 128,-1,73
 756 1000 756 1000 761.5 1049.5 c 128,-1,74
 767 1099 767 1099 780 1153 c 128,-1,75
 793 1207 793 1207 818 1252 c 128,-1,76
 843 1297 843 1297 883 1326.5 c 128,-1,77
 923 1356 923 1356 982 1356 c 0,78,79
 1000 1356 1000 1356 1019 1352.5 c 128,-1,80
 1038 1349 1038 1349 1053.5 1339.5 c 128,-1,81
 1069 1330 1069 1330 1079.5 1314 c 128,-1,82
 1090 1298 1090 1298 1090 1273 c 0,83,84
 1090 1266 1090 1266 1089.5 1263.5 c 128,-1,85
 1089 1261 1089 1261 1089 1257 c 2,86,-1
 1028 1000 l 1,87,-1
 1019 921 l 1,88,89
 1117 936 1117 936 1188 969 c 128,-1,90
 1259 1002 1259 1002 1305.5 1047 c 128,-1,91
 1352 1092 1352 1092 1374.5 1146 c 128,-1,92
 1397 1200 1397 1200 1397 1257 c 0,93,94
 1397 1313 1397 1313 1375.5 1371.5 c 128,-1,95
 1354 1430 1354 1430 1301 1478 c 128,-1,96
 1248 1526 1248 1526 1159 1557 c 128,-1,97
 1070 1588 1070 1588 935 1588 c 0,98,99
 834 1588 834 1588 752 1549.5 c 128,-1,100
 670 1511 670 1511 606 1445 c 128,-1,101
 542 1379 542 1379 495 1291 c 128,-1,102
 448 1203 448 1203 417.5 1103.5 c 128,-1,103
 387 1004 387 1004 372.5 898.5 c 128,-1,104
 358 793 358 793 358 693 c 0,38,39
EndSplineSet
EndChar

StartChar: d
Encoding: 100 100 9
Width: 1072
Flags: W
LayerCount: 2
Fore
SplineSet
568 756 m 0,0,1
 502 724 502 724 450.5 671.5 c 128,-1,2
 399 619 399 619 364.5 558 c 128,-1,3
 330 497 330 497 312 435 c 128,-1,4
 294 373 294 373 294 323 c 0,5,6
 294 303 294 303 298.5 283 c 128,-1,7
 303 263 303 263 315 247 c 128,-1,8
 327 231 327 231 349 221 c 128,-1,9
 371 211 371 211 406 211 c 0,10,11
 424 211 424 211 441.5 220 c 128,-1,12
 459 229 459 229 475 243.5 c 128,-1,13
 491 258 491 258 505.5 276.5 c 128,-1,14
 520 295 520 295 532 315 c 0,15,16
 560 361 560 361 583 419 c 1,17,18
 580 433 580 433 578 463.5 c 128,-1,19
 576 494 576 494 575 531.5 c 128,-1,20
 574 569 574 569 573 609 c 128,-1,21
 572 649 572 649 571.5 682 c 128,-1,22
 571 715 571 715 570 736 c 128,-1,23
 569 757 569 757 568 756 c 0,0,1
1256 196 m 1,24,25
 1185 141 1185 141 1116 98 c 0,26,27
 1087 80 1087 80 1055 62.5 c 128,-1,28
 1023 45 1023 45 992 31.5 c 128,-1,29
 961 18 961 18 931.5 9.5 c 128,-1,30
 902 1 902 1 877 1 c 0,31,32
 863 1 863 1 835.5 7 c 128,-1,33
 808 13 808 13 775.5 31.5 c 128,-1,34
 743 50 743 50 710.5 85 c 128,-1,35
 678 120 678 120 654 178 c 1,36,37
 617 142 617 142 575.5 109.5 c 128,-1,38
 534 77 534 77 489.5 53 c 128,-1,39
 445 29 445 29 399.5 14.5 c 128,-1,40
 354 0 354 0 308 0 c 0,41,42
 243 0 243 0 195.5 28 c 128,-1,43
 148 56 148 56 116.5 102.5 c 128,-1,44
 85 149 85 149 69.5 208 c 128,-1,45
 54 267 54 267 54 330 c 0,46,47
 54 394 54 394 70.5 459.5 c 128,-1,48
 87 525 87 525 118.5 586.5 c 128,-1,49
 150 648 150 648 195 702.5 c 128,-1,50
 240 757 240 757 297 799.5 c 128,-1,51
 354 842 354 842 421 870 c 128,-1,52
 488 898 488 898 564 905 c 1,53,54
 567 1033 567 1033 587 1158 c 128,-1,55
 607 1283 607 1283 640 1396 c 128,-1,56
 673 1509 673 1509 717.5 1605 c 128,-1,57
 762 1701 762 1701 815 1771 c 128,-1,58
 868 1841 868 1841 928 1880.5 c 128,-1,59
 988 1920 988 1920 1052 1920 c 0,60,61
 1099 1920 1099 1920 1132 1895.5 c 128,-1,62
 1165 1871 1165 1871 1185.5 1830.5 c 128,-1,63
 1206 1790 1206 1790 1215 1736.5 c 128,-1,64
 1224 1683 1224 1683 1224 1626 c 0,65,66
 1224 1591 1224 1591 1221 1554 c 0,67,68
 1208 1413 1208 1413 1173 1287.5 c 128,-1,69
 1138 1162 1138 1162 1091 1043 c 128,-1,70
 1044 924 1044 924 989 807 c 128,-1,71
 934 690 934 690 882 564 c 0,72,73
 877 550 877 550 872 530 c 128,-1,74
 867 510 867 510 862.5 486.5 c 128,-1,75
 858 463 858 463 855 438.5 c 128,-1,76
 852 414 852 414 852 391 c 0,77,78
 852 362 852 362 855.5 336 c 128,-1,79
 859 310 859 310 867 289.5 c 128,-1,80
 875 269 875 269 888.5 257 c 128,-1,81
 902 245 902 245 922 245 c 0,82,83
 941 245 941 245 963.5 252.5 c 128,-1,84
 986 260 986 260 1011 273 c 128,-1,85
 1036 286 1036 286 1061.5 302.5 c 128,-1,86
 1087 319 1087 319 1111 336 c 0,87,88
 1166 376 1166 376 1226 427 c 1,89,-1
 1256 196 l 1,24,25
1038 1481 m 0,90,91
 1044 1551 1044 1551 1044 1592 c 0,92,93
 1044 1646 1044 1646 1034.5 1667 c 128,-1,94
 1025 1688 1025 1688 1007 1688 c 0,95,96
 975 1688 975 1688 949 1647.5 c 128,-1,97
 923 1607 923 1607 903 1544 c 128,-1,98
 883 1481 883 1481 868 1405 c 128,-1,99
 853 1329 853 1329 843 1258 c 128,-1,100
 833 1187 833 1187 827 1130 c 128,-1,101
 821 1073 821 1073 819 1049 c 0,102,103
 815 1000 815 1000 812.5 954.5 c 128,-1,104
 810 909 810 909 809 871.5 c 128,-1,105
 808 834 808 834 808 806 c 128,-1,106
 808 778 808 778 808 763 c 2,107,-1
 808 753 l 1,108,109
 865 883 865 883 913 1012 c 0,110,111
 933 1067 933 1067 953.5 1127.5 c 128,-1,112
 974 1188 974 1188 991 1249 c 128,-1,113
 1008 1310 1008 1310 1020.5 1369 c 128,-1,114
 1033 1428 1033 1428 1038 1481 c 0,90,91
EndSplineSet
EndChar

StartChar: a
Encoding: 97 97 10
Width: 928
Flags: W
LayerCount: 2
Fore
SplineSet
1174 245 m 1,0,1
 1151 213 1151 213 1112.5 170 c 128,-1,2
 1074 127 1074 127 1026 88 c 128,-1,3
 978 49 978 49 923 22 c 128,-1,4
 868 -5 868 -5 813 -5 c 0,5,6
 747 -5 747 -5 703 37.5 c 128,-1,7
 659 80 659 80 627 161 c 1,8,9
 603 133 603 133 568 104 c 128,-1,10
 533 75 533 75 491.5 51.5 c 128,-1,11
 450 28 450 28 405 13 c 128,-1,12
 360 -2 360 -2 315 -2 c 0,13,14
 267 -2 267 -2 221.5 17.5 c 128,-1,15
 176 37 176 37 141 73.5 c 128,-1,16
 106 110 106 110 85 162.5 c 128,-1,17
 64 215 64 215 64 281 c 0,18,19
 64 356 64 356 85 435 c 128,-1,20
 106 514 106 514 143 589.5 c 128,-1,21
 180 665 180 665 230.5 732 c 128,-1,22
 281 799 281 799 341 849 c 128,-1,23
 401 899 401 899 467.5 928.5 c 128,-1,24
 534 958 534 958 603 958 c 0,25,26
 626 958 626 958 639 949 c 128,-1,27
 652 940 652 940 660.5 928.5 c 128,-1,28
 669 917 669 917 677 906 c 128,-1,29
 685 895 685 895 697 890 c 256,30,31
 709 885 709 885 721.5 883.5 c 128,-1,32
 734 882 734 882 747 882 c 0,33,34
 758 882 758 882 769.5 882.5 c 128,-1,35
 781 883 781 883 792 883 c 0,36,37
 807 883 807 883 820 880 c 128,-1,38
 833 877 833 877 843 867 c 128,-1,39
 853 857 853 857 858.5 839 c 128,-1,40
 864 821 864 821 864 790 c 0,41,42
 864 742 864 742 854 683.5 c 128,-1,43
 844 625 844 625 832 563.5 c 128,-1,44
 820 502 820 502 810 440.5 c 128,-1,45
 800 379 800 379 800 324 c 0,46,47
 800 277 800 277 808.5 250.5 c 128,-1,48
 817 224 817 224 845 224 c 0,49,50
 866 224 866 224 889 234.5 c 128,-1,51
 912 245 912 245 935.5 262 c 128,-1,52
 959 279 959 279 982.5 300.5 c 128,-1,53
 1006 322 1006 322 1027 345 c 0,54,55
 1076 399 1076 399 1126 467 c 1,56,-1
 1174 245 l 1,0,1
320 324 m 0,57,58
 320 299 320 299 323.5 275.5 c 128,-1,59
 327 252 327 252 336 233.5 c 128,-1,60
 345 215 345 215 360 203.5 c 128,-1,61
 375 192 375 192 398 192 c 0,62,63
 435 192 435 192 465 224 c 128,-1,64
 495 256 495 256 517 301 c 128,-1,65
 539 346 539 346 552.5 394 c 128,-1,66
 566 442 566 442 570 474 c 1,67,-1
 631 768 l 1,68,69
 590 768 590 768 551 747.5 c 128,-1,70
 512 727 512 727 477.5 692 c 128,-1,71
 443 657 443 657 414 612 c 128,-1,72
 385 567 385 567 364 517.5 c 128,-1,73
 343 468 343 468 331.5 418 c 128,-1,74
 320 368 320 368 320 324 c 0,57,58
EndSplineSet
EndChar

StartChar: e
Encoding: 101 101 11
Width: 787
Flags: W
LayerCount: 2
Fore
SplineSet
466 0 m 0,0,1
 372 0 372 0 301.5 34 c 128,-1,2
 231 68 231 68 184 125.5 c 128,-1,3
 137 183 137 183 113.5 258.5 c 128,-1,4
 90 334 90 334 90 417 c 0,5,6
 90 473 90 473 101 535.5 c 128,-1,7
 112 598 112 598 134.5 658 c 128,-1,8
 157 718 157 718 191 772.5 c 128,-1,9
 225 827 225 827 270.5 868.5 c 128,-1,10
 316 910 316 910 372.5 934.5 c 128,-1,11
 429 959 429 959 498 959 c 0,12,13
 554 959 554 959 602 941 c 128,-1,14
 650 923 650 923 685.5 890.5 c 128,-1,15
 721 858 721 858 741 812 c 128,-1,16
 761 766 761 766 761 709 c 0,17,18
 761 647 761 647 730.5 585 c 128,-1,19
 700 523 700 523 646 468 c 128,-1,20
 592 413 592 413 517.5 370 c 128,-1,21
 443 327 443 327 356 303 c 1,22,23
 371 276 371 276 385.5 258 c 128,-1,24
 400 240 400 240 415 230 c 128,-1,25
 430 220 430 220 446.5 216 c 128,-1,26
 463 212 463 212 482 212 c 0,27,28
 542 212 542 212 608.5 236 c 128,-1,29
 675 260 675 260 738 296 c 128,-1,30
 801 332 801 332 857 374.5 c 128,-1,31
 913 417 913 417 952 455 c 1,32,-1
 1081 321 l 1,33,34
 993 230 993 230 894 160 c 0,35,36
 851 130 851 130 801.5 101 c 128,-1,37
 752 72 752 72 697.5 49.5 c 128,-1,38
 643 27 643 27 584.5 13.5 c 128,-1,39
 526 0 526 0 466 0 c 0,0,1
333 470 m 1,40,41
 369 470 369 470 411.5 488.5 c 128,-1,42
 454 507 454 507 490.5 536 c 128,-1,43
 527 565 527 565 552 599 c 128,-1,44
 577 633 577 633 577 665 c 0,45,46
 577 710 577 710 560.5 739 c 128,-1,47
 544 768 544 768 520 768 c 0,48,49
 477 768 477 768 446.5 752 c 128,-1,50
 416 736 416 736 395.5 710.5 c 128,-1,51
 375 685 375 685 362.5 652.5 c 128,-1,52
 350 620 350 620 343.5 587 c 128,-1,53
 337 554 337 554 335 523 c 128,-1,54
 333 492 333 492 333 470 c 1,40,41
EndSplineSet
EndChar

StartChar: m
Encoding: 109 109 12
Width: 1312
Flags: W
LayerCount: 2
Fore
SplineSet
544 187 m 0,0,1
 544 200 544 200 546 224 c 128,-1,2
 548 248 548 248 552 279 c 128,-1,3
 556 310 556 310 561 344.5 c 128,-1,4
 566 379 566 379 571 413 c 0,5,6
 582 493 582 493 598 585 c 1,7,-1
 583 585 l 1,8,9
 571 570 571 570 555.5 540 c 128,-1,10
 540 510 540 510 512 452 c 128,-1,11
 484 394 484 394 440.5 301.5 c 128,-1,12
 397 209 397 209 328 70 c 0,13,14
 308 29 308 29 281.5 14.5 c 128,-1,15
 255 0 255 0 223 0 c 0,16,17
 182 0 182 0 157 17.5 c 128,-1,18
 132 35 132 35 118.5 64.5 c 128,-1,19
 105 94 105 94 100.5 131.5 c 128,-1,20
 96 169 96 169 96 209 c 0,21,22
 96 250 96 250 101 306 c 128,-1,23
 106 362 106 362 114 424 c 128,-1,24
 122 486 122 486 132.5 550.5 c 128,-1,25
 143 615 143 615 154.5 674 c 128,-1,26
 166 733 166 733 178 782 c 128,-1,27
 190 831 190 831 200 862 c 0,28,29
 210 894 210 894 219 913 c 128,-1,30
 228 932 228 932 239.5 942.5 c 128,-1,31
 251 953 251 953 267 956.5 c 128,-1,32
 283 960 283 960 308 960 c 0,33,34
 346 960 346 960 367.5 957.5 c 128,-1,35
 389 955 389 955 399.5 945.5 c 128,-1,36
 410 936 410 936 412 918 c 128,-1,37
 414 900 414 900 414 869 c 0,38,39
 414 852 414 852 412.5 830 c 128,-1,40
 411 808 411 808 408 783 c 128,-1,41
 405 758 405 758 401.5 731.5 c 128,-1,42
 398 705 398 705 394 680 c 0,43,44
 385 621 385 621 375 558 c 1,45,-1
 386 546 l 1,46,47
 388 549 388 549 407.5 584 c 128,-1,48
 427 619 427 619 455.5 668 c 128,-1,49
 484 717 484 717 517 770.5 c 128,-1,50
 550 824 550 824 580 865 c 0,51,52
 609 906 609 906 641.5 933 c 128,-1,53
 674 960 674 960 719 960 c 0,54,55
 761 960 761 960 791 935.5 c 128,-1,56
 821 911 821 911 821 866 c 0,57,58
 821 827 821 827 816 792 c 128,-1,59
 811 757 811 757 803.5 724 c 128,-1,60
 796 691 796 691 788 659.5 c 128,-1,61
 780 628 780 628 773 595 c 0,62,63
 768 572 768 572 767 566 c 128,-1,64
 766 560 766 560 766 558 c 1,65,-1
 777 546 l 1,66,67
 779 549 779 549 800 583.5 c 128,-1,68
 821 618 821 618 851.5 667 c 128,-1,69
 882 716 882 716 916.5 770 c 128,-1,70
 951 824 951 824 981 865 c 0,71,72
 1010 905 1010 905 1039 932.5 c 128,-1,73
 1068 960 1068 960 1110 960 c 0,74,75
 1157 960 1157 960 1189.5 935.5 c 128,-1,76
 1222 911 1222 911 1222 866 c 0,77,78
 1222 797 1222 797 1215 735 c 128,-1,79
 1208 673 1208 673 1199 613 c 128,-1,80
 1190 553 1190 553 1183 491.5 c 128,-1,81
 1176 430 1176 430 1176 361 c 0,82,83
 1176 307 1176 307 1190 273 c 128,-1,84
 1204 239 1204 239 1224 239 c 0,85,86
 1245 239 1245 239 1268 248 c 128,-1,87
 1291 257 1291 257 1315 271 c 128,-1,88
 1339 285 1339 285 1362 303.5 c 128,-1,89
 1385 322 1385 322 1406 342 c 0,90,91
 1455 388 1455 388 1503 446 c 1,92,-1
 1520 210 l 1,93,94
 1476 175 1476 175 1432.5 137.5 c 128,-1,95
 1389 100 1389 100 1340.5 69.5 c 128,-1,96
 1292 39 1292 39 1234 19.5 c 128,-1,97
 1176 0 1176 0 1103 0 c 0,98,99
 1067 0 1067 0 1042.5 23.5 c 128,-1,100
 1018 47 1018 47 1003 89 c 128,-1,101
 988 131 988 131 981.5 188 c 128,-1,102
 975 245 975 245 975 312 c 0,103,104
 975 375 975 375 979.5 445.5 c 128,-1,105
 984 516 984 516 992 588 c 1,106,-1
 977 588 l 1,107,-1
 774 71 l 1,108,109
 748 29 748 29 716 14.5 c 128,-1,110
 684 0 684 0 642 0 c 0,111,112
 610 0 610 0 591 17.5 c 128,-1,113
 572 35 572 35 561.5 62.5 c 128,-1,114
 551 90 551 90 547.5 123 c 128,-1,115
 544 156 544 156 544 187 c 0,0,1
EndSplineSet
EndChar

StartChar: h
Encoding: 104 104 13
Width: 1025
Flags: W
LayerCount: 2
Fore
SplineSet
473 622 m 1,0,1
 514 676 514 676 565 738 c 128,-1,2
 616 800 616 800 671 853.5 c 128,-1,3
 726 907 726 907 780.5 942.5 c 128,-1,4
 835 978 835 978 883 978 c 0,5,6
 895 978 895 978 910 973.5 c 128,-1,7
 925 969 925 969 938.5 957 c 128,-1,8
 952 945 952 945 961 923.5 c 128,-1,9
 970 902 970 902 970 868 c 0,10,11
 970 800 970 800 951 735.5 c 128,-1,12
 932 671 932 671 909.5 606.5 c 128,-1,13
 887 542 887 542 868.5 475 c 128,-1,14
 850 408 850 408 850 335 c 0,15,16
 850 295 850 295 862 271 c 128,-1,17
 874 247 874 247 893 247 c 0,18,19
 917 247 917 247 944 257 c 128,-1,20
 971 267 971 267 998 283 c 128,-1,21
 1025 299 1025 299 1051 319.5 c 128,-1,22
 1077 340 1077 340 1100 362 c 0,23,24
 1155 413 1155 413 1208 478 c 1,25,-1
 1225 212 l 1,26,27
 1207 198 1207 198 1179.5 177 c 128,-1,28
 1152 156 1152 156 1118.5 132.5 c 128,-1,29
 1085 109 1085 109 1046 85 c 128,-1,30
 1007 61 1007 61 967.5 42.5 c 128,-1,31
 928 24 928 24 888.5 12 c 128,-1,32
 849 0 849 0 813 0 c 0,33,34
 758 0 758 0 717.5 29.5 c 128,-1,35
 677 59 677 59 651 104.5 c 128,-1,36
 625 150 625 150 612 204 c 128,-1,37
 599 258 599 258 599 306 c 0,38,39
 599 338 599 338 607.5 377.5 c 128,-1,40
 616 417 616 417 628.5 457 c 128,-1,41
 641 497 641 497 656.5 535 c 128,-1,42
 672 573 672 573 685.5 603 c 128,-1,43
 699 633 699 633 709 652 c 128,-1,44
 719 671 719 671 722 674 c 1,45,-1
 701 677 l 1,46,47
 684 666 684 666 643.5 621 c 128,-1,48
 603 576 603 576 552 507.5 c 128,-1,49
 501 439 501 439 446.5 353.5 c 128,-1,50
 392 268 392 268 348 177 c 0,51,52
 326 132 326 132 312 98.5 c 128,-1,53
 298 65 298 65 284.5 43.5 c 128,-1,54
 271 22 271 22 255 11 c 128,-1,55
 239 0 239 0 214 0 c 0,56,57
 181 0 181 0 162 19 c 128,-1,58
 143 38 143 38 133 69.5 c 128,-1,59
 123 101 123 101 120 141 c 128,-1,60
 117 181 117 181 117 223 c 0,61,62
 117 290 117 290 118.5 398.5 c 128,-1,63
 120 507 120 507 128 639 c 128,-1,64
 136 771 136 771 151 917 c 128,-1,65
 166 1063 166 1063 193.5 1205.5 c 128,-1,66
 221 1348 221 1348 262.5 1477.5 c 128,-1,67
 304 1607 304 1607 363.5 1705.5 c 128,-1,68
 423 1804 423 1804 503 1862 c 128,-1,69
 583 1920 583 1920 687 1920 c 0,70,71
 741 1920 741 1920 775.5 1904 c 128,-1,72
 810 1888 810 1888 830.5 1859 c 128,-1,73
 851 1830 851 1830 859 1789.5 c 128,-1,74
 867 1749 867 1749 867 1699 c 0,75,76
 867 1625 867 1625 846 1535 c 128,-1,77
 825 1445 825 1445 790.5 1348 c 128,-1,78
 756 1251 756 1251 712 1151.5 c 128,-1,79
 668 1052 668 1052 622 958.5 c 128,-1,80
 576 865 576 865 531.5 782 c 128,-1,81
 487 699 487 699 453 636 c 1,82,-1
 473 622 l 1,0,1
562 1240 m 0,83,84
 621 1393 621 1393 647.5 1498 c 128,-1,85
 674 1603 674 1603 674 1653 c 0,86,87
 674 1729 674 1729 654 1729 c 0,88,89
 628 1729 628 1729 577 1644 c 128,-1,90
 526 1559 526 1559 457 1397 c 1,91,92
 440 1342 440 1342 425.5 1283 c 128,-1,93
 411 1224 411 1224 399.5 1165.5 c 128,-1,94
 388 1107 388 1107 378.5 1050.5 c 128,-1,95
 369 994 369 994 362 943 c 0,96,97
 345 824 345 824 336 710 c 1,98,99
 363 773 363 773 395 847 c 128,-1,100
 427 921 427 921 458 993.5 c 128,-1,101
 489 1066 489 1066 516.5 1130.5 c 128,-1,102
 544 1195 544 1195 562 1240 c 0,83,84
EndSplineSet
EndChar

StartChar: u
Encoding: 117 117 14
Width: 962
Flags: W
LayerCount: 2
Fore
SplineSet
876 895 m 0,0,1
 876 868 876 868 870 821.5 c 128,-1,2
 864 775 864 775 854.5 719.5 c 128,-1,3
 845 664 845 664 834 605 c 128,-1,4
 823 546 823 546 813.5 495 c 128,-1,5
 804 444 804 444 798 405.5 c 128,-1,6
 792 367 792 367 792 352 c 0,7,8
 792 324 792 324 793 300.5 c 128,-1,9
 794 277 794 277 799 259.5 c 128,-1,10
 804 242 804 242 814.5 232.5 c 128,-1,11
 825 223 825 223 845 223 c 0,12,13
 867 223 867 223 898.5 234 c 128,-1,14
 930 245 930 245 965.5 263.5 c 128,-1,15
 1001 282 1001 282 1038 305.5 c 128,-1,16
 1075 329 1075 329 1108.5 355 c 128,-1,17
 1142 381 1142 381 1169.5 406.5 c 128,-1,18
 1197 432 1197 432 1214 454 c 1,19,20
 1214 421 1214 421 1214.5 394 c 128,-1,21
 1215 367 1215 367 1215 342.5 c 128,-1,22
 1215 318 1215 318 1215.5 292 c 128,-1,23
 1216 266 1216 266 1216 234 c 1,24,25
 1194 212 1194 212 1161.5 187 c 128,-1,26
 1129 162 1129 162 1089.5 137 c 128,-1,27
 1050 112 1050 112 1005.5 89 c 128,-1,28
 961 66 961 66 916 48.5 c 128,-1,29
 871 31 871 31 827 20.5 c 128,-1,30
 783 10 783 10 745 10 c 256,31,32
 707 10 707 10 680 25 c 128,-1,33
 653 40 653 40 633.5 67 c 128,-1,34
 614 94 614 94 600.5 131.5 c 128,-1,35
 587 169 587 169 577 215 c 1,36,37
 541 168 541 168 501 128.5 c 128,-1,38
 461 89 461 89 419.5 60 c 128,-1,39
 378 31 378 31 335.5 14.5 c 128,-1,40
 293 -2 293 -2 253 -2 c 0,41,42
 220 -2 220 -2 191 9 c 128,-1,43
 162 20 162 20 139.5 46 c 128,-1,44
 117 72 117 72 104 114.5 c 128,-1,45
 91 157 91 157 91 220 c 0,46,47
 91 297 91 297 109.5 416 c 128,-1,48
 128 535 128 535 155 688 c 0,49,50
 157 703 157 703 162.5 728.5 c 128,-1,51
 168 754 168 754 177.5 784 c 128,-1,52
 187 814 187 814 201 845 c 128,-1,53
 215 876 215 876 234 901 c 128,-1,54
 253 926 253 926 278.5 942 c 128,-1,55
 304 958 304 958 336 959 c 1,56,57
 389 957 389 957 412 945.5 c 128,-1,58
 435 934 435 934 435 917 c 1,59,60
 426 864 426 864 415.5 799 c 128,-1,61
 405 734 405 734 394 668 c 128,-1,62
 383 602 383 602 373 539.5 c 128,-1,63
 363 477 363 477 355 428 c 128,-1,64
 347 379 347 379 342.5 349 c 128,-1,65
 338 319 338 319 338 318 c 0,66,67
 338 300 338 300 341.5 283.5 c 128,-1,68
 345 267 345 267 352 254 c 128,-1,69
 359 241 359 241 370 233 c 128,-1,70
 381 225 381 225 396 225 c 0,71,72
 418 225 418 225 441 236.5 c 128,-1,73
 464 248 464 248 484.5 269.5 c 128,-1,74
 505 291 505 291 521 322.5 c 128,-1,75
 537 354 537 354 545 394 c 2,76,-1
 644 902 l 2,77,78
 649 926 649 926 684.5 942.5 c 128,-1,79
 720 959 720 959 765 959 c 0,80,81
 816 959 816 959 846 941 c 128,-1,82
 876 923 876 923 876 895 c 0,0,1
EndSplineSet
EndChar

StartChar: l
Encoding: 108 108 15
Width: 575
Flags: W
LayerCount: 2
Fore
SplineSet
351 0 m 0,0,1
 297 0 297 0 250.5 47.5 c 128,-1,2
 204 95 204 95 169.5 175 c 128,-1,3
 135 255 135 255 115.5 360.5 c 128,-1,4
 96 466 96 466 96 582 c 0,5,6
 96 671 96 671 109 775.5 c 128,-1,7
 122 880 122 880 147 991 c 128,-1,8
 172 1102 172 1102 206.5 1214 c 128,-1,9
 241 1326 241 1326 284.5 1429 c 128,-1,10
 328 1532 328 1532 379 1621.5 c 128,-1,11
 430 1711 430 1711 486 1777.5 c 128,-1,12
 542 1844 542 1844 603 1882 c 128,-1,13
 664 1920 664 1920 727 1920 c 0,14,15
 770 1920 770 1920 798 1900.5 c 128,-1,16
 826 1881 826 1881 842 1849 c 128,-1,17
 858 1817 858 1817 864.5 1776.5 c 128,-1,18
 871 1736 871 1736 871 1694 c 0,19,20
 871 1600 871 1600 849.5 1502.5 c 128,-1,21
 828 1405 828 1405 791.5 1306.5 c 128,-1,22
 755 1208 755 1208 707 1109 c 128,-1,23
 659 1010 659 1010 607 912.5 c 128,-1,24
 555 815 555 815 502.5 720.5 c 128,-1,25
 450 626 450 626 404 536 c 0,26,27
 399 526 399 526 393.5 510 c 128,-1,28
 388 494 388 494 383 475.5 c 128,-1,29
 378 457 378 457 373 436 c 128,-1,30
 368 415 368 415 365 395 c 1,31,-1
 365 381 l 2,32,33
 365 355 365 355 370.5 330.5 c 128,-1,34
 376 306 376 306 384 286.5 c 128,-1,35
 392 267 392 267 401 255.5 c 128,-1,36
 410 244 410 244 418 244 c 0,37,38
 437 244 437 244 461.5 252 c 128,-1,39
 486 260 486 260 513.5 273.5 c 128,-1,40
 541 287 541 287 570 304.5 c 128,-1,41
 599 322 599 322 626 340 c 0,42,43
 689 382 689 382 758 437 c 1,44,-1
 840 227 l 1,45,46
 751 163 751 163 664 113 c 0,47,48
 626 92 626 92 585.5 71.5 c 128,-1,49
 545 51 545 51 504 35 c 128,-1,50
 463 19 463 19 424 9.5 c 128,-1,51
 385 0 385 0 351 0 c 0,0,1
352 800 m 1,52,53
 397 880 397 880 447.5 980 c 128,-1,54
 498 1080 498 1080 543 1186 c 128,-1,55
 588 1292 588 1292 621 1397.5 c 128,-1,56
 654 1503 654 1503 663 1594 c 1,57,58
 663 1623 663 1623 661.5 1643.5 c 128,-1,59
 660 1664 660 1664 652 1664 c 0,60,61
 623 1664 623 1664 589.5 1626.5 c 128,-1,62
 556 1589 556 1589 522.5 1525 c 128,-1,63
 489 1461 489 1461 458.5 1376 c 128,-1,64
 428 1291 428 1291 404 1195 c 128,-1,65
 380 1099 380 1099 366 997.5 c 128,-1,66
 352 896 352 896 352 800 c 1,52,53
EndSplineSet
EndChar

StartChar: o
Encoding: 111 111 16
Width: 873
Flags: W
LayerCount: 2
Fore
SplineSet
742 749 m 1,0,1
 771 691 771 691 785.5 626.5 c 128,-1,2
 800 562 800 562 800 503 c 256,3,4
 800 444 800 444 787 384 c 128,-1,5
 774 324 774 324 749.5 268 c 128,-1,6
 725 212 725 212 689.5 163 c 128,-1,7
 654 114 654 114 608.5 78 c 128,-1,8
 563 42 563 42 509 21 c 128,-1,9
 455 0 455 0 394 0 c 0,10,11
 306 0 306 0 243.5 38.5 c 128,-1,12
 181 77 181 77 141 139 c 128,-1,13
 101 201 101 201 82.5 279 c 128,-1,14
 64 357 64 357 64 437 c 0,15,16
 64 547 64 547 97 642.5 c 128,-1,17
 130 738 130 738 191.5 808.5 c 128,-1,18
 253 879 253 879 342 919.5 c 128,-1,19
 431 960 431 960 542 960 c 0,20,21
 637 960 637 960 720 930.5 c 128,-1,22
 803 901 803 901 875.5 851.5 c 128,-1,23
 948 802 948 802 1010.5 738 c 128,-1,24
 1073 674 1073 674 1127 606 c 1,25,-1
 1108 465 l 1,26,27
 1081 501 1081 501 1035 543 c 128,-1,28
 989 585 989 585 937.5 625 c 128,-1,29
 886 665 886 665 836 700.5 c 128,-1,30
 786 736 786 736 750 760 c 1,31,-1
 742 749 l 1,0,1
433 192 m 0,32,33
 467 192 467 192 499 226.5 c 128,-1,34
 531 261 531 261 555 313.5 c 128,-1,35
 579 366 579 366 593.5 429.5 c 128,-1,36
 608 493 608 493 608 551 c 0,37,38
 608 597 608 597 601 636.5 c 128,-1,39
 594 676 594 676 580 705 c 128,-1,40
 566 734 566 734 544 751 c 128,-1,41
 522 768 522 768 491 768 c 0,42,43
 450 768 450 768 413 733 c 128,-1,44
 376 698 376 698 348 643.5 c 128,-1,45
 320 589 320 589 304 523 c 128,-1,46
 288 457 288 457 288 396 c 0,47,48
 288 354 288 354 296 317 c 128,-1,49
 304 280 304 280 321 252.5 c 128,-1,50
 338 225 338 225 366 208.5 c 128,-1,51
 394 192 394 192 433 192 c 0,32,33
EndSplineSet
EndChar

StartChar: k
Encoding: 107 107 17
Width: 991
Flags: W
LayerCount: 2
Fore
SplineSet
449 559 m 1,0,1
 485 605 485 605 528 660 c 128,-1,2
 571 715 571 715 612.5 765 c 128,-1,3
 654 815 654 815 688.5 854 c 128,-1,4
 723 893 723 893 743 907 c 0,5,6
 774 929 774 929 819 944.5 c 128,-1,7
 864 960 864 960 919 960 c 0,8,9
 947 960 947 960 972.5 947 c 128,-1,10
 998 934 998 934 1017 910 c 128,-1,11
 1036 886 1036 886 1047 852 c 128,-1,12
 1058 818 1058 818 1058 776 c 0,13,14
 1058 735 1058 735 1038 693.5 c 128,-1,15
 1018 652 1018 652 988 610 c 128,-1,16
 958 568 958 568 923 526 c 128,-1,17
 888 484 888 484 858 441.5 c 128,-1,18
 828 399 828 399 808 357 c 128,-1,19
 788 315 788 315 788 273 c 0,20,21
 788 237 788 237 805.5 221.5 c 128,-1,22
 823 206 823 206 860 206 c 0,23,24
 880 206 880 206 903.5 219.5 c 128,-1,25
 927 233 927 233 952 255 c 128,-1,26
 977 277 977 277 1002.5 304 c 128,-1,27
 1028 331 1028 331 1051.5 359 c 128,-1,28
 1075 387 1075 387 1096 412.5 c 128,-1,29
 1117 438 1117 438 1134 456 c 1,30,-1
 1194 211 l 1,31,32
 1163 166 1163 166 1115.5 127.5 c 128,-1,33
 1068 89 1068 89 1012.5 60.5 c 128,-1,34
 957 32 957 32 897.5 16 c 128,-1,35
 838 0 838 0 783 0 c 0,36,37
 711 0 711 0 665.5 17.5 c 128,-1,38
 620 35 620 35 594 64 c 128,-1,39
 568 93 568 93 558.5 129.5 c 128,-1,40
 549 166 549 166 549 205 c 0,41,42
 549 228 549 228 554.5 261.5 c 128,-1,43
 560 295 560 295 575.5 337 c 128,-1,44
 591 379 591 379 619 429.5 c 128,-1,45
 647 480 647 480 692 538 c 1,46,47
 710 556 710 556 725 570.5 c 128,-1,48
 740 585 740 585 751 596.5 c 128,-1,49
 762 608 762 608 768 618 c 128,-1,50
 774 628 774 628 774 639 c 0,51,52
 774 660 774 660 766.5 673 c 128,-1,53
 759 686 759 686 745 686 c 0,54,55
 728 686 728 686 701 664 c 128,-1,56
 674 642 674 642 642 587 c 2,57,-1
 348 71 l 2,58,59
 325 31 325 31 300.5 15.5 c 128,-1,60
 276 0 276 0 244 0 c 0,61,62
 201 0 201 0 176 18.5 c 128,-1,63
 151 37 151 37 138 68.5 c 128,-1,64
 125 100 125 100 121.5 141.5 c 128,-1,65
 118 183 118 183 118 230 c 0,66,67
 118 287 118 287 122 381 c 128,-1,68
 126 475 126 475 134 587.5 c 128,-1,69
 142 700 142 700 155.5 823 c 128,-1,70
 169 946 169 946 188 1062 c 0,71,72
 195 1103 195 1103 206 1161.5 c 128,-1,73
 217 1220 217 1220 233.5 1287 c 128,-1,74
 250 1354 250 1354 272.5 1426.5 c 128,-1,75
 295 1499 295 1499 324.5 1567.5 c 128,-1,76
 354 1636 354 1636 391 1698 c 128,-1,77
 428 1760 428 1760 474 1806.5 c 128,-1,78
 520 1853 520 1853 575 1880 c 128,-1,79
 630 1907 630 1907 695 1907 c 0,80,81
 746 1907 746 1907 779 1890.5 c 128,-1,82
 812 1874 812 1874 831.5 1844.5 c 128,-1,83
 851 1815 851 1815 859 1774 c 128,-1,84
 867 1733 867 1733 867 1685 c 0,85,86
 867 1600 867 1600 845.5 1502 c 128,-1,87
 824 1404 824 1404 791 1305.5 c 128,-1,88
 758 1207 758 1207 719 1114 c 128,-1,89
 680 1021 680 1021 644 946 c 128,-1,90
 608 871 608 871 580.5 819.5 c 128,-1,91
 553 768 553 768 544 752 c 1,92,-1
 425 574 l 1,93,-1
 449 559 l 1,0,1
645 1682 m 0,94,95
 613 1682 613 1682 590 1662 c 128,-1,96
 567 1642 567 1642 546.5 1605 c 128,-1,97
 526 1568 526 1568 505.5 1515 c 128,-1,98
 485 1462 485 1462 459 1397 c 1,99,100
 443 1340 443 1340 429.5 1279 c 128,-1,101
 416 1218 416 1218 405 1157.5 c 128,-1,102
 394 1097 394 1097 385.5 1038 c 128,-1,103
 377 979 377 979 371 927 c 0,104,105
 356 804 356 804 347 685 c 1,106,107
 369 751 369 751 395 828.5 c 128,-1,108
 421 906 421 906 446.5 981.5 c 128,-1,109
 472 1057 472 1057 494.5 1124.5 c 128,-1,110
 517 1192 517 1192 532 1239 c 0,111,112
 539 1261 539 1261 552 1294 c 128,-1,113
 565 1327 565 1327 580 1365 c 128,-1,114
 595 1403 595 1403 610 1444 c 128,-1,115
 625 1485 625 1485 637.5 1523 c 128,-1,116
 650 1561 650 1561 658 1594 c 128,-1,117
 666 1627 666 1627 666 1650 c 0,118,119
 666 1682 666 1682 645 1682 c 0,94,95
EndSplineSet
EndChar

StartChar: b
Encoding: 98 98 18
Width: 950
Flags: W
LayerCount: 2
Fore
SplineSet
452 805 m 1,0,1
 508 875 508 875 554.5 917.5 c 128,-1,2
 601 960 601 960 647 960 c 0,3,4
 706 960 706 960 752 934 c 128,-1,5
 798 908 798 908 830 865 c 128,-1,6
 862 822 862 822 879 766 c 128,-1,7
 896 710 896 710 896 649 c 0,8,9
 896 598 896 598 892 552.5 c 128,-1,10
 888 507 888 507 877.5 463.5 c 128,-1,11
 867 420 867 420 848.5 377 c 128,-1,12
 830 334 830 334 800 288 c 1,13,14
 836 309 836 309 873 329 c 128,-1,15
 910 349 910 349 947.5 373 c 128,-1,16
 985 397 985 397 1023 426.5 c 128,-1,17
 1061 456 1061 456 1101 496 c 1,18,-1
 1178 331 l 1,19,20
 1123 281 1123 281 1068.5 244 c 128,-1,21
 1014 207 1014 207 956.5 179.5 c 128,-1,22
 899 152 899 152 836.5 132 c 128,-1,23
 774 112 774 112 704 96 c 1,24,25
 687 79 687 79 657.5 62 c 128,-1,26
 628 45 628 45 599 31 c 0,27,28
 566 15 566 15 528 0 c 1,29,-1
 503 0 l 2,30,31
 418 0 418 0 334.5 23.5 c 128,-1,32
 251 47 251 47 183 76 c 0,33,34
 104 109 104 109 32 152 c 1,35,36
 35 233 35 233 44 335 c 0,37,38
 52 423 52 423 66 542.5 c 128,-1,39
 80 662 80 662 104 809 c 0,40,41
 120 907 120 907 144 1027.5 c 128,-1,42
 168 1148 168 1148 200.5 1271.5 c 128,-1,43
 233 1395 233 1395 273.5 1511.5 c 128,-1,44
 314 1628 314 1628 363.5 1719 c 128,-1,45
 413 1810 413 1810 471.5 1865 c 128,-1,46
 530 1920 530 1920 598 1920 c 0,47,48
 674 1920 674 1920 720 1894 c 128,-1,49
 766 1868 766 1868 791 1823.5 c 128,-1,50
 816 1779 816 1779 824 1719 c 128,-1,51
 832 1659 832 1659 832 1591 c 0,52,53
 832 1496 832 1496 796.5 1395 c 128,-1,54
 761 1294 761 1294 704 1193.5 c 128,-1,55
 647 1093 647 1093 576.5 997 c 128,-1,56
 506 901 506 901 436 816 c 1,57,-1
 452 805 l 1,0,1
542 732 m 0,58,59
 507 732 507 732 472 717.5 c 128,-1,60
 437 703 437 703 407 672.5 c 128,-1,61
 377 642 377 642 354 594.5 c 128,-1,62
 331 547 331 547 320 480 c 0,63,64
 311 426 311 426 305 380.5 c 128,-1,65
 299 335 299 335 295 300 c 0,66,67
 291 260 291 260 288 225 c 1,68,69
 321 215 321 215 354 208 c 0,70,71
 383 202 383 202 415 197 c 128,-1,72
 447 192 447 192 476 192 c 0,73,74
 510 192 510 192 538 212 c 128,-1,75
 566 232 566 232 588 265.5 c 128,-1,76
 610 299 610 299 626 342 c 128,-1,77
 642 385 642 385 652 431.5 c 128,-1,78
 662 478 662 478 667 523.5 c 128,-1,79
 672 569 672 569 672 607 c 0,80,81
 672 632 672 632 666.5 654.5 c 128,-1,82
 661 677 661 677 646.5 694 c 128,-1,83
 632 711 632 711 606.5 721.5 c 128,-1,84
 581 732 581 732 542 732 c 0,58,59
640 1648 m 0,85,86
 640 1652 640 1652 638.5 1665 c 128,-1,87
 637 1678 637 1678 631.5 1692 c 128,-1,88
 626 1706 626 1706 616 1717 c 128,-1,89
 606 1728 606 1728 589 1728 c 0,90,91
 569 1728 569 1728 547.5 1699.5 c 128,-1,92
 526 1671 526 1671 505 1622.5 c 128,-1,93
 484 1574 484 1574 464 1510.5 c 128,-1,94
 444 1447 444 1447 425 1377.5 c 128,-1,95
 406 1308 406 1308 389.5 1236 c 128,-1,96
 373 1164 373 1164 359.5 1099.5 c 128,-1,97
 346 1035 346 1035 336 981.5 c 128,-1,98
 326 928 326 928 320 895 c 1,99,100
 347 947 347 947 380.5 1003 c 128,-1,101
 414 1059 414 1059 448 1119.5 c 128,-1,102
 482 1180 482 1180 514.5 1243.5 c 128,-1,103
 547 1307 547 1307 573.5 1373.5 c 128,-1,104
 600 1440 600 1440 617.5 1508.5 c 128,-1,105
 635 1577 635 1577 640 1648 c 0,85,86
EndSplineSet
EndChar

StartChar: N
Encoding: 78 78 19
Width: 1623
Flags: W
LayerCount: 2
Fore
SplineSet
458 761 m 1,0,1
 527 965 527 965 594 1116.5 c 128,-1,2
 661 1268 661 1268 725.5 1375.5 c 128,-1,3
 790 1483 790 1483 850.5 1551.5 c 128,-1,4
 911 1620 911 1620 968.5 1659 c 128,-1,5
 1026 1698 1026 1698 1079.5 1713 c 128,-1,6
 1133 1728 1133 1728 1183 1728 c 0,7,8
 1241 1728 1241 1728 1282 1700 c 128,-1,9
 1323 1672 1323 1672 1349.5 1628 c 128,-1,10
 1376 1584 1376 1584 1388 1531 c 128,-1,11
 1400 1478 1400 1478 1400 1427 c 0,12,13
 1400 1367 1400 1367 1390.5 1293.5 c 128,-1,14
 1381 1220 1381 1220 1367 1138 c 128,-1,15
 1353 1056 1353 1056 1336 968.5 c 128,-1,16
 1319 881 1319 881 1305 794.5 c 128,-1,17
 1291 708 1291 708 1281.5 624.5 c 128,-1,18
 1272 541 1272 541 1272 467 c 0,19,20
 1272 443 1272 443 1273.5 413.5 c 128,-1,21
 1275 384 1275 384 1280 353.5 c 128,-1,22
 1285 323 1285 323 1294.5 294 c 128,-1,23
 1304 265 1304 265 1320.5 242 c 128,-1,24
 1337 219 1337 219 1361.5 205 c 128,-1,25
 1386 191 1386 191 1420 191 c 0,26,27
 1468 191 1468 191 1521.5 215 c 128,-1,28
 1575 239 1575 239 1626.5 275.5 c 128,-1,29
 1678 312 1678 312 1724.5 354.5 c 128,-1,30
 1771 397 1771 397 1806.5 433.5 c 128,-1,31
 1842 470 1842 470 1862.5 494.5 c 128,-1,32
 1883 519 1883 519 1883 520 c 2,33,-1
 1943 303 l 1,34,35
 1911 260 1911 260 1870 217.5 c 128,-1,36
 1829 175 1829 175 1782 137 c 128,-1,37
 1735 99 1735 99 1682.5 66.5 c 128,-1,38
 1630 34 1630 34 1575 10 c 128,-1,39
 1520 -14 1520 -14 1464.5 -27.5 c 128,-1,40
 1409 -41 1409 -41 1355 -41 c 0,41,42
 1285 -41 1285 -41 1232 -17 c 128,-1,43
 1179 7 1179 7 1140.5 48 c 128,-1,44
 1102 89 1102 89 1076 143.5 c 128,-1,45
 1050 198 1050 198 1034.5 259 c 128,-1,46
 1019 320 1019 320 1012.5 383 c 128,-1,47
 1006 446 1006 446 1006 505 c 0,48,49
 1006 583 1006 583 1018.5 658 c 128,-1,50
 1031 733 1031 733 1049 805.5 c 128,-1,51
 1067 878 1067 878 1089 947 c 128,-1,52
 1111 1016 1111 1016 1129 1081.5 c 128,-1,53
 1147 1147 1147 1147 1159.5 1208.5 c 128,-1,54
 1172 1270 1172 1270 1172 1327 c 0,55,56
 1172 1342 1172 1342 1170 1367 c 128,-1,57
 1168 1392 1168 1392 1161.5 1415 c 128,-1,58
 1155 1438 1155 1438 1141 1455 c 128,-1,59
 1127 1472 1127 1472 1103 1472 c 0,60,61
 1063 1472 1063 1472 1020.5 1434.5 c 128,-1,62
 978 1397 978 1397 933.5 1331 c 128,-1,63
 889 1265 889 1265 844 1174.5 c 128,-1,64
 799 1084 799 1084 754.5 979.5 c 128,-1,65
 710 875 710 875 666.5 759.5 c 128,-1,66
 623 644 623 644 582.5 527.5 c 128,-1,67
 542 411 542 411 504 298 c 128,-1,68
 466 185 466 185 433 85 c 1,69,70
 405 31 405 31 368.5 8.5 c 128,-1,71
 332 -14 332 -14 287 -14 c 0,72,73
 261 -14 261 -14 236.5 -3 c 128,-1,74
 212 8 212 8 193 29.5 c 128,-1,75
 174 51 174 51 163 82.5 c 128,-1,76
 152 114 152 114 152 154 c 0,77,78
 152 196 152 196 156 230 c 128,-1,79
 160 264 160 264 168 299 c 0,80,81
 193 413 193 413 214.5 510 c 128,-1,82
 236 607 236 607 254 695 c 128,-1,83
 272 783 272 783 286.5 865.5 c 128,-1,84
 301 948 301 948 313 1031.5 c 128,-1,85
 325 1115 325 1115 334 1203 c 128,-1,86
 343 1291 343 1291 350 1391 c 0,87,88
 350 1400 350 1400 350 1414 c 128,-1,89
 350 1428 350 1428 347 1440.5 c 128,-1,90
 344 1453 344 1453 336.5 1462 c 128,-1,91
 329 1471 329 1471 314 1471 c 0,92,93
 294 1471 294 1471 265.5 1452 c 128,-1,94
 237 1433 237 1433 206.5 1399.5 c 128,-1,95
 176 1366 176 1366 144.5 1321 c 128,-1,96
 113 1276 113 1276 87 1224 c 1,97,98
 81 1209 81 1209 68 1202.5 c 128,-1,99
 55 1196 55 1196 39 1196 c 0,100,101
 26 1196 26 1196 12 1204.5 c 128,-1,102
 -2 1213 -2 1213 -14 1225 c 128,-1,103
 -26 1237 -26 1237 -34 1250.5 c 128,-1,104
 -42 1264 -42 1264 -42 1275 c 0,105,106
 -42 1281 -42 1281 -38 1285 c 1,107,108
 -5 1398 -5 1398 37.5 1476.5 c 128,-1,109
 80 1555 80 1555 127.5 1603.5 c 128,-1,110
 175 1652 175 1652 224 1674 c 128,-1,111
 273 1696 273 1696 320 1696 c 0,112,113
 391 1696 391 1696 439.5 1674.5 c 128,-1,114
 488 1653 488 1653 518 1614.5 c 128,-1,115
 548 1576 548 1576 561 1522 c 128,-1,116
 574 1468 574 1468 574 1402 c 256,117,118
 574 1336 574 1336 563 1260 c 128,-1,119
 552 1184 552 1184 533 1102.5 c 128,-1,120
 514 1021 514 1021 490 936 c 128,-1,121
 466 851 466 851 441 767 c 1,122,-1
 458 761 l 1,0,1
EndSplineSet
EndChar

StartChar: M
Encoding: 77 77 20
Width: 2175
Flags: W
LayerCount: 2
Fore
SplineSet
440 98 m 0,0,1
 436 68 436 68 421 49 c 128,-1,2
 406 30 406 30 385 19 c 128,-1,3
 364 8 364 8 340 3.5 c 128,-1,4
 316 -1 316 -1 294 -1 c 0,5,6
 268 -1 268 -1 243.5 4.5 c 128,-1,7
 219 10 219 10 200 21.5 c 128,-1,8
 181 33 181 33 170 49.5 c 128,-1,9
 159 66 159 66 159 87 c 0,10,11
 159 128 159 128 163 162.5 c 128,-1,12
 167 197 167 197 175 232 c 0,13,14
 203 349 203 349 224 449.5 c 128,-1,15
 245 550 245 550 260 640 c 128,-1,16
 275 730 275 730 286 814.5 c 128,-1,17
 297 899 297 899 305.5 984.5 c 128,-1,18
 314 1070 314 1070 321 1161 c 128,-1,19
 328 1252 328 1252 336 1356 c 0,20,21
 336 1365 336 1365 336 1379 c 128,-1,22
 336 1393 336 1393 333 1405.5 c 128,-1,23
 330 1418 330 1418 322.5 1427 c 128,-1,24
 315 1436 315 1436 300 1436 c 0,25,26
 276 1436 276 1436 241.5 1419.5 c 128,-1,27
 207 1403 207 1403 169 1375 c 128,-1,28
 131 1347 131 1347 93 1309.5 c 128,-1,29
 55 1272 55 1272 23 1229 c 1,30,31
 17 1214 17 1214 4 1207.5 c 128,-1,32
 -9 1201 -9 1201 -25 1201 c 0,33,34
 -30 1201 -30 1201 -35.5 1209.5 c 128,-1,35
 -41 1218 -41 1218 -45.5 1230 c 128,-1,36
 -50 1242 -50 1242 -53 1255.5 c 128,-1,37
 -56 1269 -56 1269 -56 1280 c 0,38,39
 -56 1286 -56 1286 -52 1290 c 1,40,41
 -16 1408 -16 1408 29.5 1487.5 c 128,-1,42
 75 1567 75 1567 125.5 1614.5 c 128,-1,43
 176 1662 176 1662 228.5 1682 c 128,-1,44
 281 1702 281 1702 329 1702 c 0,45,46
 391 1702 391 1702 432 1678.5 c 128,-1,47
 473 1655 473 1655 497 1612.5 c 128,-1,48
 521 1570 521 1570 530.5 1510 c 128,-1,49
 540 1450 540 1450 540 1377 c 0,50,51
 540 1321 540 1321 531 1246 c 128,-1,52
 522 1171 522 1171 508.5 1088.5 c 128,-1,53
 495 1006 495 1006 479 923 c 128,-1,54
 463 840 463 840 448 768 c 1,55,56
 480 901 480 901 523.5 1023.5 c 128,-1,57
 567 1146 567 1146 618.5 1252.5 c 128,-1,58
 670 1359 670 1359 728 1445.5 c 128,-1,59
 786 1532 786 1532 847.5 1594 c 128,-1,60
 909 1656 909 1656 972 1690 c 128,-1,61
 1035 1724 1035 1724 1097 1724 c 0,62,63
 1143 1724 1143 1724 1182 1704 c 128,-1,64
 1221 1684 1221 1684 1249 1642 c 128,-1,65
 1277 1600 1277 1600 1292.5 1536 c 128,-1,66
 1308 1472 1308 1472 1308 1384 c 0,67,68
 1308 1376 1308 1376 1306.5 1359 c 128,-1,69
 1305 1342 1305 1342 1302.5 1320 c 128,-1,70
 1300 1298 1300 1298 1296.5 1272.5 c 128,-1,71
 1293 1247 1293 1247 1290 1222 c 0,72,73
 1282 1162 1282 1162 1273 1092 c 1,74,-1
 1294 1093 l 1,75,76
 1333 1241 1333 1241 1390 1359 c 128,-1,77
 1447 1477 1447 1477 1518 1559.5 c 128,-1,78
 1589 1642 1589 1642 1671 1686 c 128,-1,79
 1753 1730 1753 1730 1841 1730 c 0,80,81
 1902 1730 1902 1730 1949.5 1694 c 128,-1,82
 1997 1658 1997 1658 2029 1596.5 c 128,-1,83
 2061 1535 2061 1535 2078 1452.5 c 128,-1,84
 2095 1370 2095 1370 2095 1278 c 0,85,86
 2095 1192 2095 1192 2083.5 1101.5 c 128,-1,87
 2072 1011 2072 1011 2055 922.5 c 128,-1,88
 2038 834 2038 834 2018.5 749 c 128,-1,89
 1999 664 1999 664 1982 588 c 128,-1,90
 1965 512 1965 512 1953.5 447.5 c 128,-1,91
 1942 383 1942 383 1942 336 c 0,92,93
 1942 277 1942 277 1963.5 250.5 c 128,-1,94
 1985 224 1985 224 2026 224 c 0,95,96
 2049 224 2049 224 2074.5 236.5 c 128,-1,97
 2100 249 2100 249 2125.5 269.5 c 128,-1,98
 2151 290 2151 290 2176 316.5 c 128,-1,99
 2201 343 2201 343 2224 371 c 0,100,101
 2277 435 2277 435 2329 518 c 1,102,103
 2329 517 2329 517 2338 497 c 0,104,105
 2345 480 2345 480 2361 439 c 128,-1,106
 2377 398 2377 398 2406 321 c 1,107,108
 2356 233 2356 233 2303 172 c 128,-1,109
 2250 111 2250 111 2195 72.5 c 128,-1,110
 2140 34 2140 34 2083.5 17 c 128,-1,111
 2027 0 2027 0 1971 0 c 0,112,113
 1917 0 1917 0 1865.5 19 c 128,-1,114
 1814 38 1814 38 1774 75.5 c 128,-1,115
 1734 113 1734 113 1710 168.5 c 128,-1,116
 1686 224 1686 224 1686 296 c 0,117,118
 1686 304 1686 304 1686.5 313 c 128,-1,119
 1687 322 1687 322 1688 331 c 0,120,121
 1692 398 1692 398 1705 473.5 c 128,-1,122
 1718 549 1718 549 1734.5 629 c 128,-1,123
 1751 709 1751 709 1769 792 c 128,-1,124
 1787 875 1787 875 1802 957.5 c 128,-1,125
 1817 1040 1817 1040 1827 1120.5 c 128,-1,126
 1837 1201 1837 1201 1837 1275 c 0,127,128
 1837 1320 1837 1320 1834 1356.5 c 128,-1,129
 1831 1393 1831 1393 1822 1418.5 c 128,-1,130
 1813 1444 1813 1444 1796 1458 c 128,-1,131
 1779 1472 1779 1472 1751 1472 c 0,132,133
 1698 1472 1698 1472 1651 1435 c 128,-1,134
 1604 1398 1604 1398 1562 1333 c 128,-1,135
 1520 1268 1520 1268 1483.5 1179 c 128,-1,136
 1447 1090 1447 1090 1414.5 986.5 c 128,-1,137
 1382 883 1382 883 1354 769.5 c 128,-1,138
 1326 656 1326 656 1302 541 c 128,-1,139
 1278 426 1278 426 1257 314 c 128,-1,140
 1236 202 1236 202 1218 102 c 1,141,142
 1210 74 1210 74 1193.5 54.5 c 128,-1,143
 1177 35 1177 35 1155.5 23 c 128,-1,144
 1134 11 1134 11 1110 5.5 c 128,-1,145
 1086 0 1086 0 1062 0 c 0,146,147
 1041 0 1041 0 1020.5 8 c 128,-1,148
 1000 16 1000 16 984.5 33.5 c 128,-1,149
 969 51 969 51 959.5 78 c 128,-1,150
 950 105 950 105 950 144 c 0,151,152
 950 170 950 170 962 233.5 c 128,-1,153
 974 297 974 297 992.5 385.5 c 128,-1,154
 1011 474 1011 474 1032.5 579.5 c 128,-1,155
 1054 685 1054 685 1072.5 794.5 c 128,-1,156
 1091 904 1091 904 1103 1011 c 128,-1,157
 1115 1118 1115 1118 1115 1208 c 0,158,159
 1115 1270 1115 1270 1112 1319 c 128,-1,160
 1109 1368 1109 1368 1098 1402 c 128,-1,161
 1087 1436 1087 1436 1066.5 1454 c 128,-1,162
 1046 1472 1046 1472 1012 1472 c 0,163,164
 984 1472 984 1472 948 1434 c 128,-1,165
 912 1396 912 1396 870.5 1329 c 128,-1,166
 829 1262 829 1262 785 1171.5 c 128,-1,167
 741 1081 741 1081 697.5 976 c 128,-1,168
 654 871 654 871 613.5 756.5 c 128,-1,169
 573 642 573 642 539 527.5 c 128,-1,170
 505 413 505 413 479 303.5 c 128,-1,171
 453 194 453 194 440 98 c 0,0,1
EndSplineSet
EndChar

StartChar: R
Encoding: 82 82 21
Width: 1700
Flags: W
LayerCount: 2
Fore
SplineSet
1824 1263 m 0,0,1
 1824 1215 1824 1215 1808 1162 c 128,-1,2
 1792 1109 1792 1109 1759 1057.5 c 128,-1,3
 1726 1006 1726 1006 1674.5 958 c 128,-1,4
 1623 910 1623 910 1551 872 c 128,-1,5
 1479 834 1479 834 1387 808.5 c 128,-1,6
 1295 783 1295 783 1180 776 c 1,7,8
 1250 750 1250 750 1297 709 c 128,-1,9
 1344 668 1344 668 1375.5 617.5 c 128,-1,10
 1407 567 1407 567 1425.5 511 c 128,-1,11
 1444 455 1444 455 1457 401 c 128,-1,12
 1470 347 1470 347 1480.5 297.5 c 128,-1,13
 1491 248 1491 248 1505.5 210.5 c 128,-1,14
 1520 173 1520 173 1542 150.5 c 128,-1,15
 1564 128 1564 128 1601 128 c 0,16,17
 1635 128 1635 128 1675.5 139.5 c 128,-1,18
 1716 151 1716 151 1758.5 172 c 128,-1,19
 1801 193 1801 193 1842.5 222 c 128,-1,20
 1884 251 1884 251 1920 286 c 1,21,-1
 2036 90 l 2,22,23
 2036 91 2036 91 2017 77.5 c 128,-1,24
 1998 64 1998 64 1964 43.5 c 128,-1,25
 1930 23 1930 23 1883.5 -1.5 c 128,-1,26
 1837 -26 1837 -26 1781 -47 c 128,-1,27
 1725 -68 1725 -68 1662.5 -82 c 128,-1,28
 1600 -96 1600 -96 1535 -96 c 0,29,30
 1462 -96 1462 -96 1410.5 -60 c 128,-1,31
 1359 -24 1359 -24 1323 35 c 128,-1,32
 1287 94 1287 94 1263 169.5 c 128,-1,33
 1239 245 1239 245 1221 324 c 128,-1,34
 1203 403 1203 403 1187.5 478.5 c 128,-1,35
 1172 554 1172 554 1153 613 c 128,-1,36
 1134 672 1134 672 1108 708 c 128,-1,37
 1082 744 1082 744 1043 744 c 2,38,-1
 980 744 l 1,39,40
 960 525 960 525 930 351.5 c 128,-1,41
 900 178 900 178 850.5 57 c 128,-1,42
 801 -64 801 -64 726.5 -128 c 128,-1,43
 652 -192 652 -192 544 -192 c 0,44,45
 464 -192 464 -192 397.5 -161.5 c 128,-1,46
 331 -131 331 -131 277.5 -78 c 128,-1,47
 224 -25 224 -25 184 46 c 128,-1,48
 144 117 144 117 117.5 198.5 c 128,-1,49
 91 280 91 280 77.5 367 c 128,-1,50
 64 454 64 454 64 540 c 0,51,52
 64 695 64 695 102.5 843.5 c 128,-1,53
 141 992 141 992 213.5 1124 c 128,-1,54
 286 1256 286 1256 389 1366.5 c 128,-1,55
 492 1477 492 1477 620.5 1557.5 c 128,-1,56
 749 1638 749 1638 900.5 1683 c 128,-1,57
 1052 1728 1052 1728 1221 1728 c 0,58,59
 1296 1728 1296 1728 1370 1714 c 128,-1,60
 1444 1700 1444 1700 1511 1673 c 128,-1,61
 1578 1646 1578 1646 1635.5 1606 c 128,-1,62
 1693 1566 1693 1566 1734.5 1514.5 c 128,-1,63
 1776 1463 1776 1463 1800 1400 c 128,-1,64
 1824 1337 1824 1337 1824 1263 c 0,0,1
1203 1504 m 0,65,66
 1038 1504 1038 1504 908.5 1458 c 128,-1,67
 779 1412 779 1412 681 1334 c 128,-1,68
 583 1256 583 1256 514 1153 c 128,-1,69
 445 1050 445 1050 402 937 c 128,-1,70
 359 824 359 824 339.5 708 c 128,-1,71
 320 592 320 592 320 487 c 0,72,73
 320 406 320 406 334 324.5 c 128,-1,74
 348 243 348 243 378 178 c 128,-1,75
 408 113 408 113 455.5 72.5 c 128,-1,76
 503 32 503 32 570 32 c 0,77,78
 604 32 604 32 630 58.5 c 128,-1,79
 656 85 656 85 676 129.5 c 128,-1,80
 696 174 696 174 711 232.5 c 128,-1,81
 726 291 726 291 736 354 c 128,-1,82
 746 417 746 417 752 481 c 128,-1,83
 758 545 758 545 761.5 601 c 128,-1,84
 765 657 765 657 766 700.5 c 128,-1,85
 767 744 767 744 767 767 c 1,86,87
 689 804 689 804 648.5 836 c 128,-1,88
 608 868 608 868 608 910 c 0,89,90
 608 920 608 920 609.5 934 c 128,-1,91
 611 948 611 948 616 960 c 128,-1,92
 621 972 621 972 630.5 980.5 c 128,-1,93
 640 989 640 989 656 989 c 0,94,95
 663 989 663 989 684 986.5 c 128,-1,96
 705 984 705 984 728 980.5 c 128,-1,97
 751 977 751 977 770.5 974.5 c 128,-1,98
 790 972 790 972 796 972 c 1,99,-1
 797 993 l 2,100,101
 798 1009 798 1009 800.5 1037 c 128,-1,102
 803 1065 803 1065 809 1097 c 128,-1,103
 815 1129 815 1129 826.5 1161.5 c 128,-1,104
 838 1194 838 1194 857 1220.5 c 128,-1,105
 876 1247 876 1247 902.5 1263.5 c 128,-1,106
 929 1280 929 1280 967 1280 c 0,107,108
 1017 1280 1017 1280 1033.5 1257.5 c 128,-1,109
 1050 1235 1050 1235 1050 1200 c 2,110,-1
 1050 1191 l 1,111,112
 1049 1153 1049 1153 1038.5 1090.5 c 128,-1,113
 1028 1028 1028 1028 1019 946 c 1,114,115
 1182 949 1182 949 1288 978.5 c 128,-1,116
 1394 1008 1394 1008 1456 1053 c 128,-1,117
 1518 1098 1518 1098 1543 1151.5 c 128,-1,118
 1568 1205 1568 1205 1568 1255 c 0,119,120
 1568 1304 1568 1304 1544.5 1349 c 128,-1,121
 1521 1394 1521 1394 1475 1428.5 c 128,-1,122
 1429 1463 1429 1463 1361 1483.5 c 128,-1,123
 1293 1504 1293 1504 1203 1504 c 0,65,66
EndSplineSet
EndChar

StartChar: t
Encoding: 116 116 22
Width: 801
Flags: W
LayerCount: 2
Fore
SplineSet
960 224 m 1,0,1
 864 168 864 168 789 126 c 128,-1,2
 714 84 714 84 655.5 56 c 128,-1,3
 597 28 597 28 551.5 14 c 128,-1,4
 506 0 506 0 469 0 c 0,5,6
 393 0 393 0 335 46 c 128,-1,7
 277 92 277 92 238 178.5 c 128,-1,8
 199 265 199 265 179.5 388 c 128,-1,9
 160 511 160 511 160 665 c 0,10,11
 160 725 160 725 165 793 c 128,-1,12
 170 861 170 861 179 928 c 1,13,14
 149 932 149 932 132.5 935.5 c 128,-1,15
 116 939 116 939 97.5 942.5 c 128,-1,16
 79 946 79 946 50.5 950 c 128,-1,17
 22 954 22 954 -32 960 c 0,18,19
 -56 963 -56 963 -69 971.5 c 128,-1,20
 -82 980 -82 980 -88 991.5 c 128,-1,21
 -94 1003 -94 1003 -95 1015.5 c 128,-1,22
 -96 1028 -96 1028 -96 1037 c 0,23,24
 -96 1057 -96 1057 -76.5 1067.5 c 128,-1,25
 -57 1078 -57 1078 -26.5 1083 c 128,-1,26
 4 1088 4 1088 40.5 1088.5 c 128,-1,27
 77 1089 77 1089 110.5 1088 c 128,-1,28
 144 1087 144 1087 170.5 1086.5 c 128,-1,29
 197 1086 197 1086 207 1088 c 1,30,31
 234 1223 234 1223 275.5 1349.5 c 128,-1,32
 317 1476 317 1476 368.5 1574.5 c 128,-1,33
 420 1673 420 1673 481 1732.5 c 128,-1,34
 542 1792 542 1792 609 1792 c 0,35,36
 652 1792 652 1792 687.5 1768 c 128,-1,37
 723 1744 723 1744 748 1704 c 128,-1,38
 773 1664 773 1664 786.5 1610.5 c 128,-1,39
 800 1557 800 1557 800 1499 c 0,40,41
 800 1450 800 1450 786 1395.5 c 128,-1,42
 772 1341 772 1341 748 1284.5 c 128,-1,43
 724 1228 724 1228 691.5 1170 c 128,-1,44
 659 1112 659 1112 623 1055 c 1,45,46
 632 1054 632 1054 653 1053.5 c 128,-1,47
 674 1053 674 1053 701.5 1052 c 128,-1,48
 729 1051 729 1051 761 1049.5 c 128,-1,49
 793 1048 793 1048 823 1047 c 128,-1,50
 853 1046 853 1046 879 1045 c 128,-1,51
 905 1044 905 1044 922 1043 c 0,52,53
 942 1042 942 1042 951 1023 c 128,-1,54
 960 1004 960 1004 960 975 c 0,55,56
 960 940 960 940 940 918 c 128,-1,57
 920 896 920 896 896 896 c 2,58,-1
 512 896 l 1,59,60
 483 856 483 856 453.5 817.5 c 128,-1,61
 424 779 424 779 399 748 c 1,62,63
 395 686 395 686 392 626 c 0,64,65
 391 600 391 600 390 572.5 c 128,-1,66
 389 545 389 545 388 518 c 128,-1,67
 387 491 387 491 386.5 466 c 128,-1,68
 386 441 386 441 386 420 c 0,69,70
 386 366 386 366 396 329 c 128,-1,71
 406 292 406 292 425 268.5 c 128,-1,72
 444 245 444 245 471.5 234.5 c 128,-1,73
 499 224 499 224 533 224 c 0,74,75
 554 224 554 224 585.5 234 c 128,-1,76
 617 244 617 244 654.5 261.5 c 128,-1,77
 692 279 692 279 733.5 303 c 128,-1,78
 775 327 775 327 815.5 355.5 c 128,-1,79
 856 384 856 384 893 415.5 c 128,-1,80
 930 447 930 447 960 480 c 1,81,-1
 960 224 l 1,0,1
640 1490 m 0,82,83
 640 1501 640 1501 638.5 1514.5 c 128,-1,84
 637 1528 637 1528 632 1540 c 128,-1,85
 627 1552 627 1552 616.5 1560 c 128,-1,86
 606 1568 606 1568 587 1568 c 0,87,88
 561 1568 561 1568 534.5 1522 c 128,-1,89
 508 1476 508 1476 483.5 1404.5 c 128,-1,90
 459 1333 459 1333 437.5 1247 c 128,-1,91
 416 1161 416 1161 398 1080 c 1,92,93
 413 1078 413 1078 428 1076.5 c 128,-1,94
 443 1075 443 1075 459 1073 c 1,95,96
 489 1124 489 1124 521.5 1183.5 c 128,-1,97
 554 1243 554 1243 580 1300.5 c 128,-1,98
 606 1358 606 1358 623 1408 c 128,-1,99
 640 1458 640 1458 640 1490 c 0,82,83
EndSplineSet
EndChar

StartChar: D
Encoding: 68 68 23
Width: 1272
Flags: W
LayerCount: 2
Fore
SplineSet
549 1736 m 0,0,1
 712 1736 712 1736 839 1709 c 128,-1,2
 966 1682 966 1682 1061.5 1634 c 128,-1,3
 1157 1586 1157 1586 1223 1519.5 c 128,-1,4
 1289 1453 1289 1453 1330 1374.5 c 128,-1,5
 1371 1296 1371 1296 1389.5 1208 c 128,-1,6
 1408 1120 1408 1120 1408 1028 c 0,7,8
 1408 902 1408 902 1380 772.5 c 128,-1,9
 1352 643 1352 643 1299 522 c 128,-1,10
 1246 401 1246 401 1168.5 295 c 128,-1,11
 1091 189 1091 189 991 110 c 128,-1,12
 891 31 891 31 771 -14.5 c 128,-1,13
 651 -60 651 -60 512 -60 c 0,14,15
 465 -60 465 -60 416 -53 c 128,-1,16
 367 -46 367 -46 321 -34 c 128,-1,17
 275 -22 275 -22 234 -7 c 128,-1,18
 193 8 193 8 162 24 c 1,19,20
 149 28 149 28 141.5 33.5 c 128,-1,21
 134 39 134 39 130 46.5 c 128,-1,22
 126 54 126 54 125 65 c 128,-1,23
 124 76 124 76 124 93 c 0,24,25
 124 259 124 259 132.5 433 c 128,-1,26
 141 607 141 607 167 773 c 128,-1,27
 193 939 193 939 242 1089.5 c 128,-1,28
 291 1240 291 1240 372 1359 c 1,29,30
 443 1408 443 1408 501 1408 c 0,31,32
 574 1408 574 1408 623 1326 c 1,33,34
 577 1264 577 1264 546 1188 c 128,-1,35
 515 1112 515 1112 494 1028.5 c 128,-1,36
 473 945 473 945 459 858 c 128,-1,37
 445 771 445 771 433 688 c 0,38,39
 419 596 419 596 409.5 530.5 c 128,-1,40
 400 465 400 465 394.5 416 c 128,-1,41
 389 367 389 367 386.5 330 c 128,-1,42
 384 293 384 293 384 258 c 0,43,44
 384 221 384 221 386.5 196 c 128,-1,45
 389 171 389 171 398.5 156 c 128,-1,46
 408 141 408 141 427.5 134.5 c 128,-1,47
 447 128 447 128 480 128 c 0,48,49
 580 128 580 128 670 167.5 c 128,-1,50
 760 207 760 207 836 273.5 c 128,-1,51
 912 340 912 340 972.5 428 c 128,-1,52
 1033 516 1033 516 1075.5 614 c 128,-1,53
 1118 712 1118 712 1141 813.5 c 128,-1,54
 1164 915 1164 915 1164 1009 c 0,55,56
 1164 1125 1164 1125 1126 1216.5 c 128,-1,57
 1088 1308 1088 1308 1019.5 1371.5 c 128,-1,58
 951 1435 951 1435 855 1468.5 c 128,-1,59
 759 1502 759 1502 644 1502 c 0,60,61
 560 1502 560 1502 477.5 1492 c 128,-1,62
 395 1482 395 1482 324.5 1461 c 128,-1,63
 254 1440 254 1440 200.5 1407.5 c 128,-1,64
 147 1375 147 1375 120 1330 c 1,65,66
 47 1217 47 1217 0 1155.5 c 128,-1,67
 -47 1094 -47 1094 -79 1094 c 0,68,69
 -123 1094 -123 1094 -123 1195 c 0,70,71
 -123 1293 -123 1293 -97.5 1371 c 128,-1,72
 -72 1449 -72 1449 -26.5 1509.5 c 128,-1,73
 19 1570 19 1570 81.5 1612.5 c 128,-1,74
 144 1655 144 1655 218.5 1682.5 c 128,-1,75
 293 1710 293 1710 377 1723 c 128,-1,76
 461 1736 461 1736 549 1736 c 0,0,1
EndSplineSet
EndChar

StartChar: quotesingle
Encoding: 39 39 24
Width: 609
Flags: W
LayerCount: 2
Fore
SplineSet
160 1283 m 0,0,1
 160 1301 160 1301 161.5 1329.5 c 128,-1,2
 163 1358 163 1358 165 1392.5 c 128,-1,3
 167 1427 167 1427 170 1465.5 c 128,-1,4
 173 1504 173 1504 176 1541 c 0,5,6
 183 1628 183 1628 192 1728 c 1,7,8
 192 1758 192 1758 207 1781.5 c 128,-1,9
 222 1805 222 1805 246 1821.5 c 128,-1,10
 270 1838 270 1838 300 1847 c 128,-1,11
 330 1856 330 1856 360 1856 c 0,12,13
 385 1856 385 1856 408 1849.5 c 128,-1,14
 431 1843 431 1843 449 1830 c 128,-1,15
 467 1817 467 1817 477.5 1796 c 128,-1,16
 488 1775 488 1775 488 1747 c 0,17,18
 488 1735 488 1735 486 1722.5 c 128,-1,19
 484 1710 484 1710 480 1696 c 0,20,21
 466 1648 466 1648 449.5 1590.5 c 128,-1,22
 433 1533 433 1533 415.5 1476 c 128,-1,23
 398 1419 398 1419 381.5 1367.5 c 128,-1,24
 365 1316 365 1316 352 1280 c 0,25,26
 335 1232 335 1232 303.5 1208.5 c 128,-1,27
 272 1185 272 1185 240 1185 c 256,28,29
 208 1185 208 1185 184 1209.5 c 128,-1,30
 160 1234 160 1234 160 1283 c 0,0,1
EndSplineSet
EndChar

StartChar: E
Encoding: 69 69 25
Width: 1248
Flags: W
LayerCount: 2
Fore
SplineSet
1477 250 m 1,0,1
 1396 164 1396 164 1294.5 99.5 c 128,-1,2
 1193 35 1193 35 1082.5 -8.5 c 128,-1,3
 972 -52 972 -52 858 -74 c 128,-1,4
 744 -96 744 -96 637 -96 c 0,5,6
 519 -96 519 -96 415 -68.5 c 128,-1,7
 311 -41 311 -41 233 15.5 c 128,-1,8
 155 72 155 72 109.5 158.5 c 128,-1,9
 64 245 64 245 64 364 c 0,10,11
 64 465 64 465 100.5 558 c 128,-1,12
 137 651 137 651 213.5 723 c 128,-1,13
 290 795 290 795 409.5 839 c 128,-1,14
 529 883 529 883 696 887 c 1,15,16
 586 887 586 887 504 918.5 c 128,-1,17
 422 950 422 950 368 1003.5 c 128,-1,18
 314 1057 314 1057 287 1128.5 c 128,-1,19
 260 1200 260 1200 260 1280 c 0,20,21
 260 1355 260 1355 286 1417 c 128,-1,22
 312 1479 312 1479 357.5 1528.5 c 128,-1,23
 403 1578 403 1578 465 1615 c 128,-1,24
 527 1652 527 1652 599.5 1676.5 c 128,-1,25
 672 1701 672 1701 751.5 1713.5 c 128,-1,26
 831 1726 831 1726 912 1726 c 0,27,28
 1029 1726 1029 1726 1141 1700.5 c 128,-1,29
 1253 1675 1253 1675 1340 1624 c 128,-1,30
 1427 1573 1427 1573 1480 1496.5 c 128,-1,31
 1533 1420 1533 1420 1533 1318 c 0,32,33
 1533 1282 1533 1282 1508.5 1247 c 128,-1,34
 1484 1212 1484 1212 1450 1184.5 c 128,-1,35
 1416 1157 1416 1157 1378.5 1140.5 c 128,-1,36
 1341 1124 1341 1124 1316 1124 c 0,37,38
 1295 1124 1295 1124 1295 1161 c 0,39,40
 1295 1194 1295 1194 1305.5 1246 c 128,-1,41
 1316 1298 1316 1298 1341 1376 c 1,42,43
 1314 1398 1314 1398 1262 1420 c 128,-1,44
 1210 1442 1210 1442 1144.5 1460 c 128,-1,45
 1079 1478 1079 1478 1005 1489.5 c 128,-1,46
 931 1501 931 1501 859 1501 c 0,47,48
 792 1501 792 1501 731 1489 c 128,-1,49
 670 1477 670 1477 623.5 1449.5 c 128,-1,50
 577 1422 577 1422 549.5 1377 c 128,-1,51
 522 1332 522 1332 522 1266 c 0,52,53
 522 1212 522 1212 541.5 1175 c 128,-1,54
 561 1138 561 1138 593.5 1112 c 128,-1,55
 626 1086 626 1086 668 1069.5 c 128,-1,56
 710 1053 710 1053 755 1040 c 128,-1,57
 800 1027 800 1027 843.5 1015 c 128,-1,58
 887 1003 887 1003 923.5 987.5 c 128,-1,59
 960 972 960 972 985 950 c 128,-1,60
 1010 928 1010 928 1018 895 c 1,61,62
 1020 874 1020 874 1022 852.5 c 128,-1,63
 1024 831 1024 831 1024 811 c 0,64,65
 1024 755 1024 755 1003 729.5 c 128,-1,66
 982 704 982 704 921 704 c 0,67,68
 895 704 895 704 856.5 707 c 128,-1,69
 818 710 818 710 783 710 c 0,70,71
 703 710 703 710 626 689.5 c 128,-1,72
 549 669 549 669 488 628.5 c 128,-1,73
 427 588 427 588 389.5 528.5 c 128,-1,74
 352 469 352 469 352 390 c 0,75,76
 352 315 352 315 373.5 265 c 128,-1,77
 395 215 395 215 432.5 184.5 c 128,-1,78
 470 154 470 154 521 141 c 128,-1,79
 572 128 572 128 631 128 c 0,80,81
 702 128 702 128 780 142 c 128,-1,82
 858 156 858 156 935.5 180.5 c 128,-1,83
 1013 205 1013 205 1086.5 238.5 c 128,-1,84
 1160 272 1160 272 1223 310.5 c 128,-1,85
 1286 349 1286 349 1334 391.5 c 128,-1,86
 1382 434 1382 434 1408 477 c 1,87,-1
 1477 250 l 1,0,1
EndSplineSet
EndChar

StartChar: O
Encoding: 79 79 26
Width: 1632
Flags: W
LayerCount: 2
Fore
SplineSet
742 -192 m 0,0,1
 593 -192 593 -192 473.5 -131 c 128,-1,2
 354 -70 354 -70 270 39.5 c 128,-1,3
 186 149 186 149 141 300.5 c 128,-1,4
 96 452 96 452 96 633 c 0,5,6
 96 729 96 729 110 830 c 128,-1,7
 124 931 124 931 152.5 1031.5 c 128,-1,8
 181 1132 181 1132 223.5 1228.5 c 128,-1,9
 266 1325 266 1325 322.5 1411 c 128,-1,10
 379 1497 379 1497 449 1569.5 c 128,-1,11
 519 1642 519 1642 603.5 1694.5 c 128,-1,12
 688 1747 688 1747 785.5 1776.5 c 128,-1,13
 883 1806 883 1806 995 1806 c 0,14,15
 1145 1806 1145 1806 1263.5 1752 c 128,-1,16
 1382 1698 1382 1698 1463.5 1601 c 128,-1,17
 1545 1504 1545 1504 1588.5 1369.5 c 128,-1,18
 1632 1235 1632 1235 1632 1073 c 0,19,20
 1632 939 1632 939 1605.5 793.5 c 128,-1,21
 1579 648 1579 648 1528 507.5 c 128,-1,22
 1477 367 1477 367 1401 240 c 128,-1,23
 1325 113 1325 113 1226 17 c 128,-1,24
 1127 -79 1127 -79 1005.5 -135.5 c 128,-1,25
 884 -192 884 -192 742 -192 c 0,0,1
766 52 m 0,26,27
 846 52 846 52 915 83 c 128,-1,28
 984 114 984 114 1041.5 168 c 128,-1,29
 1099 222 1099 222 1146.5 294.5 c 128,-1,30
 1194 367 1194 367 1231 450 c 128,-1,31
 1268 533 1268 533 1295.5 622 c 128,-1,32
 1323 711 1323 711 1341 798 c 128,-1,33
 1359 885 1359 885 1367.5 965.5 c 128,-1,34
 1376 1046 1376 1046 1376 1112 c 0,35,36
 1376 1208 1376 1208 1355 1292.5 c 128,-1,37
 1334 1377 1334 1377 1291.5 1439.5 c 128,-1,38
 1249 1502 1249 1502 1184.5 1538 c 128,-1,39
 1120 1574 1120 1574 1034 1574 c 0,40,41
 942 1574 942 1574 856 1529.5 c 128,-1,42
 770 1485 770 1485 694 1409.5 c 128,-1,43
 618 1334 618 1334 555 1234.5 c 128,-1,44
 492 1135 492 1135 447 1025 c 128,-1,45
 402 915 402 915 377 801 c 128,-1,46
 352 687 352 687 352 583 c 0,47,48
 352 470 352 470 380.5 372.5 c 128,-1,49
 409 275 409 275 462.5 204 c 128,-1,50
 516 133 516 133 592.5 92.5 c 128,-1,51
 669 52 669 52 766 52 c 0,26,27
EndSplineSet
EndChar

StartChar: period
Encoding: 46 46 27
Width: 704
Flags: W
LayerCount: 2
Fore
SplineSet
672 191 m 0,0,1
 672 187 672 187 671 171 c 128,-1,2
 670 155 670 155 664.5 134 c 128,-1,3
 659 113 659 113 647.5 89.5 c 128,-1,4
 636 66 636 66 615 46 c 128,-1,5
 594 26 594 26 562 13 c 128,-1,6
 530 0 530 0 484 0 c 0,7,8
 447 0 447 0 417 9.5 c 128,-1,9
 387 19 387 19 365.5 38.5 c 128,-1,10
 344 58 344 58 332 88.5 c 128,-1,11
 320 119 320 119 320 162 c 0,12,13
 320 198 320 198 330.5 232.5 c 128,-1,14
 341 267 341 267 363 294 c 128,-1,15
 385 321 385 321 420 337 c 128,-1,16
 455 353 455 353 503 353 c 0,17,18
 586 353 586 353 629 311 c 128,-1,19
 672 269 672 269 672 191 c 0,0,1
EndSplineSet
EndChar

StartChar: p
Encoding: 112 112 28
Width: 854
Flags: W
LayerCount: 2
Fore
SplineSet
536 178 m 1,0,1
 637 178 637 178 720 198 c 128,-1,2
 803 218 803 218 870.5 252 c 128,-1,3
 938 286 938 286 992.5 331.5 c 128,-1,4
 1047 377 1047 377 1091 429 c 1,5,-1
 1102 200 l 1,6,7
 1070 161 1070 161 1024.5 124.5 c 128,-1,8
 979 88 979 88 925 60.5 c 128,-1,9
 871 33 871 33 811.5 16.5 c 128,-1,10
 752 0 752 0 694 0 c 0,11,12
 687 0 687 0 676.5 2 c 128,-1,13
 666 4 666 4 640 9 c 128,-1,14
 614 14 614 14 565.5 22.5 c 128,-1,15
 517 31 517 31 434 43 c 1,16,-1
 434 25 l 2,17,18
 434 -157 434 -157 403.5 -305.5 c 128,-1,19
 373 -454 373 -454 322 -559 c 128,-1,20
 271 -664 271 -664 205 -721 c 128,-1,21
 139 -778 139 -778 68 -778 c 0,22,23
 11 -778 11 -778 -27 -750 c 128,-1,24
 -65 -722 -65 -722 -87.5 -674.5 c 128,-1,25
 -110 -627 -110 -627 -119.5 -563.5 c 128,-1,26
 -129 -500 -129 -500 -129 -429 c 0,27,28
 -129 -388 -129 -388 -116 -336.5 c 128,-1,29
 -103 -285 -103 -285 -81 -228.5 c 128,-1,30
 -59 -172 -59 -172 -31.5 -113.5 c 128,-1,31
 -4 -55 -4 -55 25 0 c 0,32,33
 93 128 93 128 180 264 c 1,34,35
 191 342 191 342 202.5 424 c 128,-1,36
 214 506 214 506 231.5 583 c 128,-1,37
 249 660 249 660 275.5 729 c 128,-1,38
 302 798 302 798 343.5 849 c 128,-1,39
 385 900 385 900 443 930 c 128,-1,40
 501 960 501 960 583 960 c 0,41,42
 644 960 644 960 697 943.5 c 128,-1,43
 750 927 750 927 790 890 c 128,-1,44
 830 853 830 853 853 794.5 c 128,-1,45
 876 736 876 736 876 651 c 0,46,47
 876 583 876 583 856 519.5 c 128,-1,48
 836 456 836 456 793.5 398 c 128,-1,49
 751 340 751 340 685.5 289.5 c 128,-1,50
 620 239 620 239 530 199 c 1,51,-1
 536 178 l 1,0,1
410 279 m 1,52,53
 470 309 470 309 513.5 346 c 128,-1,54
 557 383 557 383 588.5 425 c 128,-1,55
 620 467 620 467 640 512 c 128,-1,56
 660 557 660 557 672 604 c 0,57,58
 677 626 677 626 678.5 655.5 c 128,-1,59
 680 685 680 685 672.5 711 c 128,-1,60
 665 737 665 737 646.5 755.5 c 128,-1,61
 628 774 628 774 595 774 c 0,62,63
 558 774 558 774 530 753.5 c 128,-1,64
 502 733 502 733 481.5 698 c 128,-1,65
 461 663 461 663 447.5 615 c 128,-1,66
 434 567 434 567 425.5 512 c 128,-1,67
 417 457 417 457 413.5 397.5 c 128,-1,68
 410 338 410 338 410 279 c 1,52,53
62 -441 m 0,69,70
 62 -449 62 -449 65.5 -467 c 128,-1,71
 69 -485 69 -485 77 -503 c 128,-1,72
 85 -521 85 -521 98 -535 c 128,-1,73
 111 -549 111 -549 130 -549 c 0,74,75
 147 -549 147 -549 158 -530.5 c 128,-1,76
 169 -512 169 -512 176 -481 c 128,-1,77
 183 -450 183 -450 186 -411 c 128,-1,78
 189 -372 189 -372 191 -331 c 128,-1,79
 193 -290 193 -290 193.5 -251 c 128,-1,80
 194 -212 194 -212 196 -181 c 0,81,82
 199 -127 199 -127 200.5 -89.5 c 128,-1,83
 202 -52 202 -52 203 -27 c 0,84,85
 204 1 204 1 205 20 c 1,86,87
 186 -13 186 -13 168 -56.5 c 128,-1,88
 150 -100 150 -100 134 -147 c 128,-1,89
 118 -194 118 -194 105 -241 c 128,-1,90
 92 -288 92 -288 82.5 -328.5 c 128,-1,91
 73 -369 73 -369 67.5 -398.5 c 128,-1,92
 62 -428 62 -428 62 -441 c 0,69,70
EndSplineSet
EndChar

StartChar: U
Encoding: 85 85 29
Width: 1382
Flags: W
LayerCount: 2
Fore
SplineSet
1248 1568 m 0,0,1
 1251 1619 1251 1619 1267 1650 c 128,-1,2
 1283 1681 1283 1681 1307.5 1698.5 c 128,-1,3
 1332 1716 1332 1716 1362.5 1722 c 128,-1,4
 1393 1728 1393 1728 1423 1728 c 0,5,6
 1450 1728 1450 1728 1471 1722 c 128,-1,7
 1492 1716 1492 1716 1506.5 1700.5 c 128,-1,8
 1521 1685 1521 1685 1528.5 1659 c 128,-1,9
 1536 1633 1536 1633 1536 1593 c 0,10,11
 1536 1316 1536 1316 1503 1078 c 128,-1,12
 1470 840 1470 840 1410 645.5 c 128,-1,13
 1350 451 1350 451 1266 300.5 c 128,-1,14
 1182 150 1182 150 1080.5 48 c 128,-1,15
 979 -54 979 -54 862 -107 c 128,-1,16
 745 -160 745 -160 620 -160 c 0,17,18
 470 -160 470 -160 369 -99.5 c 128,-1,19
 268 -39 268 -39 207.5 64 c 128,-1,20
 147 167 147 167 121.5 302.5 c 128,-1,21
 96 438 96 438 96 588 c 0,22,23
 96 707 96 707 111.5 829 c 128,-1,24
 127 951 127 951 151 1066.5 c 128,-1,25
 175 1182 175 1182 205.5 1285.5 c 128,-1,26
 236 1389 236 1389 266 1472 c 1,27,28
 285 1530 285 1530 304.5 1562 c 128,-1,29
 324 1594 324 1594 343 1609.5 c 128,-1,30
 362 1625 362 1625 381 1628.5 c 128,-1,31
 400 1632 400 1632 420 1632 c 0,32,33
 458 1632 458 1632 487.5 1628.5 c 128,-1,34
 517 1625 517 1625 537 1615 c 128,-1,35
 557 1605 557 1605 567 1586.5 c 128,-1,36
 577 1568 577 1568 577 1537 c 2,37,-1
 577 1529 l 1,38,39
 575 1517 575 1517 574 1503 c 128,-1,40
 573 1489 573 1489 568 1472 c 0,41,42
 556 1435 556 1435 535.5 1372.5 c 128,-1,43
 515 1310 515 1310 491 1229.5 c 128,-1,44
 467 1149 467 1149 442 1056 c 128,-1,45
 417 963 417 963 397 865.5 c 128,-1,46
 377 768 377 768 364.5 671.5 c 128,-1,47
 352 575 352 575 352 488 c 0,48,49
 352 398 352 398 367 320.5 c 128,-1,50
 382 243 382 243 417.5 186 c 128,-1,51
 453 129 453 129 510 96.5 c 128,-1,52
 567 64 567 64 651 64 c 0,53,54
 716 64 716 64 774.5 99.5 c 128,-1,55
 833 135 833 135 884.5 199.5 c 128,-1,56
 936 264 936 264 981.5 354 c 128,-1,57
 1027 444 1027 444 1065 552 c 128,-1,58
 1103 660 1103 660 1133.5 782.5 c 128,-1,59
 1164 905 1164 905 1187 1035.5 c 128,-1,60
 1210 1166 1210 1166 1225.5 1301 c 128,-1,61
 1241 1436 1241 1436 1248 1568 c 0,0,1
EndSplineSet
EndChar

StartChar: Q
Encoding: 81 81 30
Width: 1512
Flags: W
LayerCount: 2
Fore
SplineSet
1632 1064 m 0,0,1
 1632 947 1632 947 1611.5 816.5 c 128,-1,2
 1591 686 1591 686 1549.5 557 c 128,-1,3
 1508 428 1508 428 1444 308 c 128,-1,4
 1380 188 1380 188 1293 92.5 c 128,-1,5
 1206 -3 1206 -3 1095.5 -67 c 128,-1,6
 985 -131 985 -131 850 -148 c 1,7,8
 897 -195 897 -195 933.5 -239 c 128,-1,9
 970 -283 970 -283 1005 -317.5 c 128,-1,10
 1040 -352 1040 -352 1078 -373 c 128,-1,11
 1116 -394 1116 -394 1165 -394 c 0,12,13
 1213 -394 1213 -394 1258.5 -369 c 128,-1,14
 1304 -344 1304 -344 1341 -314 c 0,15,16
 1384 -279 1384 -279 1423 -233 c 1,17,18
 1434 -225 1434 -225 1444 -224 c 128,-1,19
 1454 -223 1454 -223 1460 -223 c 1,20,21
 1486 -228 1486 -228 1504 -243 c 128,-1,22
 1522 -258 1522 -258 1532.5 -279 c 128,-1,23
 1543 -300 1543 -300 1547.5 -323.5 c 128,-1,24
 1552 -347 1552 -347 1552 -367 c 0,25,26
 1552 -393 1552 -393 1546.5 -403.5 c 128,-1,27
 1541 -414 1541 -414 1536 -419 c 0,28,29
 1535 -420 1535 -420 1518 -437.5 c 128,-1,30
 1501 -455 1501 -455 1470.5 -481 c 128,-1,31
 1440 -507 1440 -507 1397.5 -537.5 c 128,-1,32
 1355 -568 1355 -568 1303.5 -593.5 c 128,-1,33
 1252 -619 1252 -619 1193.5 -636 c 128,-1,34
 1135 -653 1135 -653 1072 -653 c 0,35,36
 996 -653 996 -653 943 -624 c 128,-1,37
 890 -595 890 -595 852.5 -549.5 c 128,-1,38
 815 -504 815 -504 790.5 -448.5 c 128,-1,39
 766 -393 766 -393 746 -340 c 128,-1,40
 726 -287 726 -287 708 -242.5 c 128,-1,41
 690 -198 690 -198 666 -175 c 1,42,43
 514 -148 514 -148 406 -74 c 128,-1,44
 298 0 298 0 229 107 c 128,-1,45
 160 214 160 214 128 348 c 128,-1,46
 96 482 96 482 96 628 c 0,47,48
 96 764 96 764 121.5 908 c 128,-1,49
 147 1052 147 1052 197.5 1188.5 c 128,-1,50
 248 1325 248 1325 323.5 1446 c 128,-1,51
 399 1567 399 1567 499 1658.5 c 128,-1,52
 599 1750 599 1750 723.5 1803 c 128,-1,53
 848 1856 848 1856 996 1856 c 0,54,55
 1145 1856 1145 1856 1263 1799 c 128,-1,56
 1381 1742 1381 1742 1463 1638.5 c 128,-1,57
 1545 1535 1545 1535 1588.5 1388.5 c 128,-1,58
 1632 1242 1632 1242 1632 1064 c 0,0,1
766 64 m 0,59,60
 842 64 842 64 907.5 95.5 c 128,-1,61
 973 127 973 127 1028 181 c 128,-1,62
 1083 235 1083 235 1127.5 308.5 c 128,-1,63
 1172 382 1172 382 1207 465.5 c 128,-1,64
 1242 549 1242 549 1268 638.5 c 128,-1,65
 1294 728 1294 728 1311 815.5 c 128,-1,66
 1328 903 1328 903 1336 984.5 c 128,-1,67
 1344 1066 1344 1066 1344 1132 c 0,68,69
 1344 1246 1344 1246 1324 1343.5 c 128,-1,70
 1304 1441 1304 1441 1263 1512.5 c 128,-1,71
 1222 1584 1222 1584 1160 1624 c 128,-1,72
 1098 1664 1098 1664 1014 1664 c 0,73,74
 929 1664 929 1664 849 1617 c 128,-1,75
 769 1570 769 1570 699 1490 c 128,-1,76
 629 1410 629 1410 571 1305 c 128,-1,77
 513 1200 513 1200 471.5 1083 c 128,-1,78
 430 966 430 966 407 845 c 128,-1,79
 384 724 384 724 384 613 c 0,80,81
 384 495 384 495 410 394.5 c 128,-1,82
 436 294 436 294 485 220.5 c 128,-1,83
 534 147 534 147 605 105.5 c 128,-1,84
 676 64 676 64 766 64 c 0,59,60
EndSplineSet
EndChar

StartChar: W
Encoding: 87 87 31
Width: 2399
Flags: W
LayerCount: 2
Fore
SplineSet
864 1542 m 0,0,1
 864 1508 864 1508 847.5 1441.5 c 128,-1,2
 831 1375 831 1375 806 1288 c 128,-1,3
 781 1201 781 1201 752 1099 c 128,-1,4
 723 997 723 997 698 892 c 128,-1,5
 673 787 673 787 656.5 685.5 c 128,-1,6
 640 584 640 584 640 497 c 0,7,8
 640 426 640 426 649.5 364.5 c 128,-1,9
 659 303 659 303 679 257.5 c 128,-1,10
 699 212 699 212 729 186 c 128,-1,11
 759 160 759 160 800 160 c 256,12,13
 841 160 841 160 879.5 184 c 128,-1,14
 918 208 918 208 954 250 c 128,-1,15
 990 292 990 292 1023 350 c 128,-1,16
 1056 408 1056 408 1086.5 475.5 c 128,-1,17
 1117 543 1117 543 1144 617.5 c 128,-1,18
 1171 692 1171 692 1195 768 c 0,19,20
 1279 1036 1279 1036 1344 1377 c 1,21,22
 1356 1432 1356 1432 1372.5 1469 c 128,-1,23
 1389 1506 1389 1506 1412 1528 c 128,-1,24
 1435 1550 1435 1550 1465.5 1559 c 128,-1,25
 1496 1568 1496 1568 1536 1568 c 0,26,27
 1574 1568 1574 1568 1598.5 1561 c 128,-1,28
 1623 1554 1623 1554 1637.5 1542 c 128,-1,29
 1652 1530 1652 1530 1658 1513 c 128,-1,30
 1664 1496 1664 1496 1664 1475 c 0,31,32
 1664 1468 1664 1468 1656 1416.5 c 128,-1,33
 1648 1365 1648 1365 1635.5 1284.5 c 128,-1,34
 1623 1204 1623 1204 1608.5 1102 c 128,-1,35
 1594 1000 1594 1000 1581.5 892.5 c 128,-1,36
 1569 785 1569 785 1561 680 c 128,-1,37
 1553 575 1553 575 1553 487 c 0,38,39
 1553 397 1553 397 1559.5 324.5 c 128,-1,40
 1566 252 1566 252 1581.5 201 c 128,-1,41
 1597 150 1597 150 1622 123 c 128,-1,42
 1647 96 1647 96 1684 96 c 0,43,44
 1748 96 1748 96 1800.5 146 c 128,-1,45
 1853 196 1853 196 1896.5 279.5 c 128,-1,46
 1940 363 1940 363 1974.5 473 c 128,-1,47
 2009 583 2009 583 2035.5 703 c 128,-1,48
 2062 823 2062 823 2081.5 945 c 128,-1,49
 2101 1067 2101 1067 2114 1175.5 c 128,-1,50
 2127 1284 2127 1284 2134.5 1370.5 c 128,-1,51
 2142 1457 2142 1457 2145 1506 c 0,52,53
 2148 1557 2148 1557 2163.5 1588 c 128,-1,54
 2179 1619 2179 1619 2203 1636 c 128,-1,55
 2227 1653 2227 1653 2257.5 1658.5 c 128,-1,56
 2288 1664 2288 1664 2320 1664 c 0,57,58
 2345 1664 2345 1664 2365.5 1658.5 c 128,-1,59
 2386 1653 2386 1653 2401 1639.5 c 128,-1,60
 2416 1626 2416 1626 2424 1603.5 c 128,-1,61
 2432 1581 2432 1581 2432 1546 c 0,62,63
 2432 1449 2432 1449 2419.5 1336.5 c 128,-1,64
 2407 1224 2407 1224 2388.5 1111 c 128,-1,65
 2370 998 2370 998 2348.5 891 c 128,-1,66
 2327 784 2327 784 2308.5 698 c 128,-1,67
 2290 612 2290 612 2277.5 553 c 128,-1,68
 2265 494 2265 494 2265 478 c 0,69,70
 2265 439 2265 439 2276 411.5 c 128,-1,71
 2287 384 2287 384 2305.5 366 c 128,-1,72
 2324 348 2324 348 2349.5 340 c 128,-1,73
 2375 332 2375 332 2404 332 c 256,74,75
 2433 332 2433 332 2463.5 345.5 c 128,-1,76
 2494 359 2494 359 2522 383 c 128,-1,77
 2550 407 2550 407 2573.5 440.5 c 128,-1,78
 2597 474 2597 474 2613 515 c 1,79,-1
 2630 308 l 1,80,81
 2556 223 2556 223 2477.5 174 c 128,-1,82
 2399 125 2399 125 2330 125 c 0,83,84
 2297 125 2297 125 2268 135.5 c 128,-1,85
 2239 146 2239 146 2216.5 168 c 128,-1,86
 2194 190 2194 190 2179 225 c 128,-1,87
 2164 260 2164 260 2158 308 c 1,88,89
 2108 215 2108 215 2050.5 140.5 c 128,-1,90
 1993 66 1993 66 1928.5 13.5 c 128,-1,91
 1864 -39 1864 -39 1793.5 -67.5 c 128,-1,92
 1723 -96 1723 -96 1648 -96 c 0,93,94
 1553 -96 1553 -96 1486.5 -46 c 128,-1,95
 1420 4 1420 4 1378.5 90 c 128,-1,96
 1337 176 1337 176 1318 292 c 128,-1,97
 1299 408 1299 408 1299 539 c 0,98,99
 1299 587 1299 587 1304 629 c 128,-1,100
 1309 671 1309 671 1312 704 c 1,101,102
 1276 476 1276 476 1221.5 322.5 c 128,-1,103
 1167 169 1167 169 1093.5 76 c 128,-1,104
 1020 -17 1020 -17 925.5 -56.5 c 128,-1,105
 831 -96 831 -96 716 -96 c 0,106,107
 650 -96 650 -96 590 -52.5 c 128,-1,108
 530 -9 530 -9 484.5 77 c 128,-1,109
 439 163 439 163 411.5 292.5 c 128,-1,110
 384 422 384 422 384 595 c 0,111,112
 384 701 384 701 396 812.5 c 128,-1,113
 408 924 408 924 430.5 1036 c 128,-1,114
 453 1148 453 1148 486 1258 c 128,-1,115
 519 1368 519 1368 561 1472 c 1,116,117
 586 1530 586 1530 611 1562.5 c 128,-1,118
 636 1595 636 1595 662 1610.5 c 128,-1,119
 688 1626 688 1626 714.5 1629 c 128,-1,120
 741 1632 741 1632 768 1632 c 0,121,122
 790 1632 790 1632 808 1629 c 128,-1,123
 826 1626 826 1626 838.5 1616.5 c 128,-1,124
 851 1607 851 1607 857.5 1589.5 c 128,-1,125
 864 1572 864 1572 864 1542 c 0,0,1
EndSplineSet
EndChar

StartChar: S
Encoding: 83 83 32
Width: 1695
Flags: W
LayerCount: 2
Fore
SplineSet
733 1312 m 0,0,1
 733 1246 733 1246 771.5 1194 c 128,-1,2
 810 1142 810 1142 873.5 1097.5 c 128,-1,3
 937 1053 937 1053 1017.5 1013 c 128,-1,4
 1098 973 1098 973 1182.5 930.5 c 128,-1,5
 1267 888 1267 888 1347.5 839.5 c 128,-1,6
 1428 791 1428 791 1491.5 730 c 128,-1,7
 1555 669 1555 669 1593.5 592 c 128,-1,8
 1632 515 1632 515 1632 416 c 0,9,10
 1632 326 1632 326 1603 250.5 c 128,-1,11
 1574 175 1574 175 1523.5 115 c 128,-1,12
 1473 55 1473 55 1404 9 c 128,-1,13
 1335 -37 1335 -37 1255 -67 c 128,-1,14
 1175 -97 1175 -97 1087 -112.5 c 128,-1,15
 999 -128 999 -128 910 -128 c 0,16,17
 785 -128 785 -128 667 -97.5 c 128,-1,18
 549 -67 549 -67 457 -5.5 c 128,-1,19
 365 56 365 56 309.5 148.5 c 128,-1,20
 254 241 254 241 254 365 c 0,21,22
 254 429 254 429 274.5 477.5 c 128,-1,23
 295 526 295 526 325.5 558.5 c 128,-1,24
 356 591 356 591 392 607.5 c 128,-1,25
 428 624 428 624 459 624 c 0,26,27
 491 624 491 624 512.5 606.5 c 128,-1,28
 534 589 534 589 534 552 c 0,29,30
 534 535 534 535 530 516 c 128,-1,31
 526 497 526 497 521.5 474.5 c 128,-1,32
 517 452 517 452 513 425 c 128,-1,33
 509 398 509 398 509 366 c 0,34,35
 509 296 509 296 541 245 c 128,-1,36
 573 194 573 194 626 161 c 128,-1,37
 679 128 679 128 748 112 c 128,-1,38
 817 96 817 96 891 96 c 0,39,40
 978 96 978 96 1065 117 c 128,-1,41
 1152 138 1152 138 1221 179 c 128,-1,42
 1290 220 1290 220 1333 279.5 c 128,-1,43
 1376 339 1376 339 1376 416 c 0,44,45
 1376 487 1376 487 1337.5 543 c 128,-1,46
 1299 599 1299 599 1235.5 646.5 c 128,-1,47
 1172 694 1172 694 1091 736 c 128,-1,48
 1010 778 1010 778 926 821 c 128,-1,49
 842 864 842 864 761 911.5 c 128,-1,50
 680 959 680 959 616.5 1016 c 128,-1,51
 553 1073 553 1073 514.5 1143.5 c 128,-1,52
 476 1214 476 1214 476 1304 c 0,53,54
 476 1388 476 1388 516.5 1469.5 c 128,-1,55
 557 1551 557 1551 638.5 1615.5 c 128,-1,56
 720 1680 720 1680 842 1720 c 128,-1,57
 964 1760 964 1760 1128 1760 c 0,58,59
 1232 1760 1232 1760 1331.5 1729 c 128,-1,60
 1431 1698 1431 1698 1509 1641 c 128,-1,61
 1587 1584 1587 1584 1634.5 1505 c 128,-1,62
 1682 1426 1682 1426 1682 1330 c 0,63,64
 1682 1273 1682 1273 1662.5 1213 c 128,-1,65
 1643 1153 1643 1153 1600 1088 c 0,66,67
 1558 1025 1558 1025 1508.5 994.5 c 128,-1,68
 1459 964 1459 964 1419 964 c 0,69,70
 1389 964 1389 964 1370 981.5 c 128,-1,71
 1351 999 1351 999 1351 1034 c 0,72,73
 1351 1060 1351 1060 1363 1095.5 c 128,-1,74
 1375 1131 1375 1131 1404 1177 c 0,75,76
 1431 1221 1431 1221 1444 1259.5 c 128,-1,77
 1457 1298 1457 1298 1457 1331 c 0,78,79
 1457 1382 1457 1382 1429.5 1420.5 c 128,-1,80
 1402 1459 1402 1459 1353.5 1485 c 128,-1,81
 1305 1511 1305 1511 1237 1524 c 128,-1,82
 1169 1537 1169 1537 1088 1537 c 0,83,84
 998 1537 998 1537 931.5 1516.5 c 128,-1,85
 865 1496 865 1496 820.5 1463.5 c 128,-1,86
 776 1431 776 1431 754.5 1391 c 128,-1,87
 733 1351 733 1351 733 1312 c 0,0,1
EndSplineSet
EndChar

StartChar: w
Encoding: 119 119 33
Width: 1301
Flags: W
LayerCount: 2
Fore
SplineSet
563 494 m 1,0,1
 534 385 534 385 494.5 294.5 c 128,-1,2
 455 204 455 204 410 138.5 c 128,-1,3
 365 73 365 73 317 36.5 c 128,-1,4
 269 0 269 0 223 0 c 0,5,6
 145 0 145 0 108.5 115 c 128,-1,7
 72 230 72 230 72 455 c 0,8,9
 72 487 72 487 72 511.5 c 128,-1,10
 72 536 72 536 73 560.5 c 128,-1,11
 74 585 74 585 76 613.5 c 128,-1,12
 78 642 78 642 81 682 c 0,13,14
 82 692 82 692 85.5 716.5 c 128,-1,15
 89 741 89 741 96.5 772 c 128,-1,16
 104 803 104 803 116.5 836.5 c 128,-1,17
 129 870 129 870 148.5 897.5 c 128,-1,18
 168 925 168 925 194.5 943 c 128,-1,19
 221 961 221 961 258 961 c 1,20,-1
 282 959 l 1,21,22
 326 959 326 959 349.5 941.5 c 128,-1,23
 373 924 373 924 373 895 c 1,24,-1
 303 354 l 1,25,-1
 316 355 l 1,26,27
 360 457 360 457 392.5 541.5 c 128,-1,28
 425 626 425 626 452.5 693 c 128,-1,29
 480 760 480 760 505.5 810 c 128,-1,30
 531 860 531 860 561 893 c 128,-1,31
 591 926 591 926 628.5 942.5 c 128,-1,32
 666 959 666 959 718 959 c 0,33,34
 762 959 762 959 785.5 941.5 c 128,-1,35
 809 924 809 924 809 895 c 1,36,-1
 727 354 l 1,37,-1
 741 355 l 1,38,-1
 980 889 l 2,39,40
 992 917 992 917 1032 938.5 c 128,-1,41
 1072 960 1072 960 1127 960 c 0,42,43
 1184 960 1184 960 1219 936.5 c 128,-1,44
 1254 913 1254 913 1254 876 c 0,45,46
 1254 848 1254 848 1244.5 816 c 128,-1,47
 1235 784 1235 784 1224 756.5 c 128,-1,48
 1213 729 1213 729 1203 709.5 c 128,-1,49
 1193 690 1193 690 1192 688 c 0,50,51
 1170 648 1170 648 1151.5 614 c 128,-1,52
 1133 580 1133 580 1119 554 c 0,53,54
 1102 524 1102 524 1089 498 c 1,55,56
 1103 459 1103 459 1125 428 c 0,57,58
 1144 402 1144 402 1172 380 c 128,-1,59
 1200 358 1200 358 1239 358 c 0,60,61
 1272 358 1272 358 1315 375.5 c 128,-1,62
 1358 393 1358 393 1396 415 c 0,63,64
 1441 440 1441 440 1488 472 c 1,65,-1
 1488 237 l 1,66,67
 1422 195 1422 195 1351.5 170 c 128,-1,68
 1281 145 1281 145 1216 145 c 0,69,70
 1165 145 1165 145 1119.5 157 c 128,-1,71
 1074 169 1074 169 1039.5 195 c 128,-1,72
 1005 221 1005 221 984.5 262.5 c 128,-1,73
 964 304 964 304 963 363 c 1,74,75
 929 283 929 283 892 216.5 c 128,-1,76
 855 150 855 150 816 102 c 128,-1,77
 777 54 777 54 737 27 c 128,-1,78
 697 0 697 0 657 0 c 0,79,80
 643 0 643 0 632.5 21.5 c 128,-1,81
 622 43 622 43 615 79.5 c 128,-1,82
 608 116 608 116 603.5 164.5 c 128,-1,83
 599 213 599 213 596.5 267 c 128,-1,84
 594 321 594 321 593 378 c 128,-1,85
 592 435 592 435 592 489 c 1,86,-1
 563 494 l 1,0,1
EndSplineSet
EndChar

StartChar: v
Encoding: 118 118 34
Width: 907
Flags: W
LayerCount: 2
Fore
SplineSet
128 324 m 1,0,1
 125 399 125 399 122 454.5 c 128,-1,2
 119 510 119 510 116.5 555 c 128,-1,3
 114 600 114 600 113 638 c 128,-1,4
 112 676 112 676 112 716 c 0,5,6
 112 819 112 819 121.5 876.5 c 128,-1,7
 131 934 131 934 163 939 c 2,8,-1
 283 958 l 2,9,10
 288 959 288 959 292.5 959.5 c 128,-1,11
 297 960 297 960 302 960 c 0,12,13
 336 960 336 960 354.5 940 c 128,-1,14
 373 920 373 920 374 894 c 1,15,-1
 335 261 l 1,16,-1
 349 262 l 1,17,-1
 612 889 l 1,18,19
 615 903 615 903 625 916 c 128,-1,20
 635 929 635 929 651 938.5 c 128,-1,21
 667 948 667 948 686.5 954 c 128,-1,22
 706 960 706 960 728 960 c 0,23,24
 786 960 786 960 821 936.5 c 128,-1,25
 856 913 856 913 856 876 c 0,26,27
 856 848 856 848 848.5 823 c 128,-1,28
 841 798 841 798 827.5 768.5 c 128,-1,29
 814 739 814 739 795.5 703 c 128,-1,30
 777 667 777 667 755 618 c 0,31,32
 748 600 748 600 743 581 c 0,33,34
 738 564 738 564 734.5 542.5 c 128,-1,35
 731 521 731 521 731 498 c 0,36,37
 731 474 731 474 737 451 c 128,-1,38
 743 428 743 428 758 409.5 c 128,-1,39
 773 391 773 391 799 380 c 128,-1,40
 825 369 825 369 866 369 c 0,41,42
 896 369 896 369 935.5 384.5 c 128,-1,43
 975 400 975 400 1010 420 c 0,44,45
 1051 443 1051 443 1094 472 c 1,46,-1
 1094 237 l 1,47,48
 1028 195 1028 195 957.5 170 c 128,-1,49
 887 145 887 145 823 145 c 0,50,51
 769 145 769 145 726.5 161.5 c 128,-1,52
 684 178 684 178 654.5 206 c 128,-1,53
 625 234 625 234 608.5 269 c 128,-1,54
 592 304 592 304 591 342 c 1,55,56
 562 282 562 282 525 219 c 128,-1,57
 488 156 488 156 448.5 105 c 128,-1,58
 409 54 409 54 369.5 21.5 c 128,-1,59
 330 -11 330 -11 295 -11 c 0,60,61
 237 -11 237 -11 205 18.5 c 128,-1,62
 173 48 173 48 157.5 93 c 128,-1,63
 142 138 142 138 137.5 191 c 128,-1,64
 133 244 133 244 130 292 c 2,65,-1
 128 324 l 1,0,1
EndSplineSet
EndChar

StartChar: r
Encoding: 114 114 35
Width: 864
Flags: W
LayerCount: 2
Fore
SplineSet
128 209 m 0,0,1
 128 253 128 253 133 311.5 c 128,-1,2
 138 370 138 370 146.5 435 c 128,-1,3
 155 500 155 500 166.5 567.5 c 128,-1,4
 178 635 178 635 191 696 c 128,-1,5
 204 757 204 757 217 808 c 128,-1,6
 230 859 230 859 243 892 c 0,7,8
 251 914 251 914 259 927 c 128,-1,9
 267 940 267 940 277.5 947.5 c 128,-1,10
 288 955 288 955 303.5 957.5 c 128,-1,11
 319 960 319 960 342 960 c 0,12,13
 368 960 368 960 382.5 957.5 c 128,-1,14
 397 955 397 955 404 945.5 c 128,-1,15
 411 936 411 936 412.5 918 c 128,-1,16
 414 900 414 900 414 869 c 0,17,18
 414 832 414 832 414 779.5 c 128,-1,19
 414 727 414 727 416 676 c 1,20,-1
 427 676 l 1,21,22
 447 716 447 716 472 765.5 c 128,-1,23
 497 815 497 815 530 858 c 128,-1,24
 563 901 563 901 605 930.5 c 128,-1,25
 647 960 647 960 702 960 c 0,26,27
 721 960 721 960 739 953.5 c 128,-1,28
 757 947 757 947 770.5 935 c 128,-1,29
 784 923 784 923 792 905.5 c 128,-1,30
 800 888 800 888 800 866 c 0,31,32
 800 849 800 849 795 818.5 c 128,-1,33
 790 788 790 788 784 754.5 c 128,-1,34
 778 721 778 721 773 689.5 c 128,-1,35
 768 658 768 658 768 637 c 0,36,37
 768 601 768 601 775 577 c 128,-1,38
 782 553 782 553 793.5 538.5 c 128,-1,39
 805 524 805 524 819.5 518 c 128,-1,40
 834 512 834 512 850 512 c 0,41,42
 895 512 895 512 943 532 c 128,-1,43
 991 552 991 552 1031 577 c 0,44,45
 1078 606 1078 606 1123 643 c 1,46,-1
 1108 409 l 1,47,48
 1082 392 1082 392 1049 371 c 128,-1,49
 1016 350 1016 350 978.5 331.5 c 128,-1,50
 941 313 941 313 900.5 300.5 c 128,-1,51
 860 288 860 288 818 288 c 0,52,53
 743 288 743 288 697 318.5 c 128,-1,54
 651 349 651 349 624 398.5 c 128,-1,55
 597 448 597 448 584 509.5 c 128,-1,56
 571 571 571 571 563 634 c 1,57,-1
 547 634 l 1,58,-1
 368 135 l 2,59,60
 354 96 354 96 341.5 70.5 c 128,-1,61
 329 45 329 45 316 29 c 128,-1,62
 303 13 303 13 288 6.5 c 128,-1,63
 273 0 273 0 255 0 c 0,64,65
 214 0 214 0 189 17.5 c 128,-1,66
 164 35 164 35 150.5 64.5 c 128,-1,67
 137 94 137 94 132.5 131.5 c 128,-1,68
 128 169 128 169 128 209 c 0,0,1
EndSplineSet
EndChar

StartChar: F
Encoding: 70 70 36
Width: 1376
Flags: W
LayerCount: 2
Fore
SplineSet
654 1212 m 0,0,1
 654 1210 654 1210 653 1198 c 128,-1,2
 652 1186 652 1186 642 1172 c 128,-1,3
 632 1158 632 1158 609.5 1147 c 128,-1,4
 587 1136 587 1136 544 1136 c 0,5,6
 486 1136 486 1136 453.5 1142.5 c 128,-1,7
 421 1149 421 1149 405.5 1160.5 c 128,-1,8
 390 1172 390 1172 386.5 1186.5 c 128,-1,9
 383 1201 383 1201 383 1216 c 0,10,11
 383 1365 383 1365 458 1471.5 c 128,-1,12
 533 1578 533 1578 668.5 1646 c 128,-1,13
 804 1714 804 1714 993.5 1746 c 128,-1,14
 1183 1778 1183 1778 1412 1778 c 0,15,16
 1564 1778 1564 1778 1730.5 1768 c 128,-1,17
 1897 1758 1897 1758 2074 1733 c 1,18,19
 2125 1719 2125 1719 2144.5 1693 c 128,-1,20
 2164 1667 2164 1667 2164 1638 c 0,21,22
 2164 1619 2164 1619 2158.5 1598 c 128,-1,23
 2153 1577 2153 1577 2142 1559 c 128,-1,24
 2131 1541 2131 1541 2112.5 1529.5 c 128,-1,25
 2094 1518 2094 1518 2069 1518 c 0,26,27
 2065 1518 2065 1518 2060.5 1518.5 c 128,-1,28
 2056 1519 2056 1519 2051 1520 c 0,29,30
 1986 1531 1986 1531 1910 1539.5 c 128,-1,31
 1834 1548 1834 1548 1751 1553.5 c 128,-1,32
 1668 1559 1668 1559 1579.5 1561.5 c 128,-1,33
 1491 1564 1491 1564 1400 1564 c 0,34,35
 1373 1564 1373 1564 1335.5 1561 c 128,-1,36
 1298 1558 1298 1558 1263 1554 c 0,37,38
 1223 1550 1223 1550 1180 1544 c 1,39,40
 1180 1533 1180 1533 1178 1519 c 128,-1,41
 1176 1505 1176 1505 1172 1480 c 128,-1,42
 1168 1455 1168 1455 1162.5 1416 c 128,-1,43
 1157 1377 1157 1377 1149 1315.5 c 128,-1,44
 1141 1254 1141 1254 1131 1167 c 128,-1,45
 1121 1080 1121 1080 1109 960 c 1,46,-1
 1664 960 l 2,47,48
 1688 960 1688 960 1701 950.5 c 128,-1,49
 1714 941 1714 941 1720 926.5 c 128,-1,50
 1726 912 1726 912 1727 895.5 c 128,-1,51
 1728 879 1728 879 1728 864 c 0,52,53
 1728 816 1728 816 1707 792 c 128,-1,54
 1686 768 1686 768 1664 768 c 0,55,56
 1657 768 1657 768 1618 766.5 c 128,-1,57
 1579 765 1579 765 1523 763 c 128,-1,58
 1467 761 1467 761 1400 758.5 c 128,-1,59
 1333 756 1333 756 1270.5 754 c 128,-1,60
 1208 752 1208 752 1156.5 750.5 c 128,-1,61
 1105 749 1105 749 1079 749 c 1,62,63
 1061 628 1061 628 1038 516 c 128,-1,64
 1015 404 1015 404 980.5 306.5 c 128,-1,65
 946 209 946 209 899 129 c 128,-1,66
 852 49 852 49 787 -8 c 128,-1,67
 722 -65 722 -65 637 -96.5 c 128,-1,68
 552 -128 552 -128 442 -128 c 0,69,70
 419 -128 419 -128 387 -125 c 128,-1,71
 355 -122 355 -122 320 -115 c 128,-1,72
 285 -108 285 -108 250.5 -96.5 c 128,-1,73
 216 -85 216 -85 189 -68 c 128,-1,74
 162 -51 162 -51 145 -28.5 c 128,-1,75
 128 -6 128 -6 128 23 c 0,76,77
 128 38 128 38 134.5 62.5 c 128,-1,78
 141 87 141 87 154.5 110 c 128,-1,79
 168 133 168 133 188.5 150 c 128,-1,80
 209 167 209 167 238 167 c 0,81,82
 271 167 271 167 307.5 156 c 128,-1,83
 344 145 344 145 383 131.5 c 128,-1,84
 422 118 422 118 463 107 c 128,-1,85
 504 96 504 96 546 96 c 0,86,87
 579 96 579 96 610 122.5 c 128,-1,88
 641 149 641 149 668.5 195.5 c 128,-1,89
 696 242 696 242 721 304.5 c 128,-1,90
 746 367 746 367 768 439.5 c 128,-1,91
 790 512 790 512 809 591 c 128,-1,92
 828 670 828 670 844 749 c 1,93,-1
 721 749 l 2,94,95
 704 749 704 749 679 753 c 128,-1,96
 654 757 654 757 631 766.5 c 128,-1,97
 608 776 608 776 592 792 c 128,-1,98
 576 808 576 808 576 832 c 0,99,100
 576 849 576 849 585 864 c 128,-1,101
 594 879 594 879 615 886 c 1,102,103
 671 898 671 898 713 907 c 128,-1,104
 755 916 755 916 787.5 922.5 c 128,-1,105
 820 929 820 929 845 934 c 128,-1,106
 870 939 870 939 891 942 c 1,107,108
 915 1049 915 1049 929 1128 c 128,-1,109
 943 1207 943 1207 953 1271.5 c 128,-1,110
 963 1336 963 1336 972 1393 c 128,-1,111
 981 1450 981 1450 993 1514 c 1,112,113
 906 1489 906 1489 842 1454 c 128,-1,114
 778 1419 778 1419 736 1379 c 128,-1,115
 694 1339 694 1339 674 1296 c 128,-1,116
 654 1253 654 1253 654 1212 c 0,0,1
EndSplineSet
EndChar

StartChar: at
Encoding: 64 64 37
Width: 2241
Flags: W
LayerCount: 2
Fore
SplineSet
1486 1029 m 1,0,1
 1463 1035 1463 1035 1437.5 1038.5 c 128,-1,2
 1412 1042 1412 1042 1389 1042 c 0,3,4
 1325 1042 1325 1042 1264 1009 c 128,-1,5
 1203 976 1203 976 1148 922.5 c 128,-1,6
 1093 869 1093 869 1047 799.5 c 128,-1,7
 1001 730 1001 730 967.5 656.5 c 128,-1,8
 934 583 934 583 915.5 512 c 128,-1,9
 897 441 897 441 897 383 c 0,10,11
 897 308 897 308 928.5 267.5 c 128,-1,12
 960 227 960 227 1027 227 c 0,13,14
 1072 227 1072 227 1112.5 245.5 c 128,-1,15
 1153 264 1153 264 1187.5 294.5 c 128,-1,16
 1222 325 1222 325 1250.5 363 c 128,-1,17
 1279 401 1279 401 1300.5 440 c 128,-1,18
 1322 479 1322 479 1336 515.5 c 128,-1,19
 1350 552 1350 552 1355 578 c 1,20,-1
 1486 1029 l 1,0,1
112 215 m 0,21,22
 112 329 112 329 136 448 c 128,-1,23
 160 567 160 567 205.5 683.5 c 128,-1,24
 251 800 251 800 316.5 911 c 128,-1,25
 382 1022 382 1022 464.5 1120 c 128,-1,26
 547 1218 547 1218 645.5 1300.5 c 128,-1,27
 744 1383 744 1383 855.5 1442.5 c 128,-1,28
 967 1502 967 1502 1089.5 1535 c 128,-1,29
 1212 1568 1212 1568 1344 1568 c 0,30,31
 1441 1568 1441 1568 1537.5 1551 c 128,-1,32
 1634 1534 1634 1534 1722.5 1498.5 c 128,-1,33
 1811 1463 1811 1463 1886.5 1407.5 c 128,-1,34
 1962 1352 1962 1352 2018 1274.5 c 128,-1,35
 2074 1197 2074 1197 2106 1096.5 c 128,-1,36
 2138 996 2138 996 2138 870 c 0,37,38
 2138 844 2138 844 2137 817 c 128,-1,39
 2136 790 2136 790 2132 762 c 0,40,41
 2123 694 2123 694 2095.5 614.5 c 128,-1,42
 2068 535 2068 535 2024.5 456.5 c 128,-1,43
 1981 378 1981 378 1923 305 c 128,-1,44
 1865 232 1865 232 1795 176.5 c 128,-1,45
 1725 121 1725 121 1644 87.5 c 128,-1,46
 1563 54 1563 54 1475 54 c 0,47,48
 1453 54 1453 54 1430.5 61.5 c 128,-1,49
 1408 69 1408 69 1390 89 c 128,-1,50
 1372 109 1372 109 1361 144 c 128,-1,51
 1350 179 1350 179 1350 235 c 0,52,53
 1350 259 1350 259 1353.5 286 c 128,-1,54
 1357 313 1357 313 1363 345 c 1,55,56
 1325 268 1325 268 1277.5 210 c 128,-1,57
 1230 152 1230 152 1176 112 c 128,-1,58
 1122 72 1122 72 1064.5 52 c 128,-1,59
 1007 32 1007 32 950 32 c 0,60,61
 884 32 884 32 824.5 54 c 128,-1,62
 765 76 765 76 719.5 119.5 c 128,-1,63
 674 163 674 163 647 227.5 c 128,-1,64
 620 292 620 292 620 378 c 0,65,66
 620 465 620 465 647.5 563 c 128,-1,67
 675 661 675 661 725.5 757 c 128,-1,68
 776 853 776 853 847.5 940.5 c 128,-1,69
 919 1028 919 1028 1008 1095 c 128,-1,70
 1097 1162 1097 1162 1201.5 1201.5 c 128,-1,71
 1306 1241 1306 1241 1421 1241 c 0,72,73
 1444 1241 1444 1241 1458 1237.5 c 128,-1,74
 1472 1234 1472 1234 1479 1228.5 c 128,-1,75
 1486 1223 1486 1223 1488 1217 c 128,-1,76
 1490 1211 1490 1211 1490 1207 c 256,77,78
 1490 1203 1490 1203 1489.5 1200.5 c 128,-1,79
 1489 1198 1489 1198 1489 1196 c 2,80,-1
 1489 1192 l 1,81,82
 1512 1182 1512 1182 1537.5 1180 c 128,-1,83
 1563 1178 1563 1178 1587 1176 c 128,-1,84
 1611 1174 1611 1174 1632.5 1169 c 128,-1,85
 1654 1164 1654 1164 1670.5 1148 c 128,-1,86
 1687 1132 1687 1132 1696.5 1101 c 128,-1,87
 1706 1070 1706 1070 1706 1018 c 0,88,89
 1706 978 1706 978 1697.5 927.5 c 128,-1,90
 1689 877 1689 877 1675.5 822 c 128,-1,91
 1662 767 1662 767 1645 710.5 c 128,-1,92
 1628 654 1628 654 1612 600.5 c 128,-1,93
 1596 547 1596 547 1582.5 500 c 128,-1,94
 1569 453 1569 453 1562 417 c 1,95,96
 1548 372 1548 372 1548 340 c 0,97,98
 1548 317 1548 317 1555.5 303 c 128,-1,99
 1563 289 1563 289 1580 289 c 0,100,101
 1617 289 1617 289 1654 311.5 c 128,-1,102
 1691 334 1691 334 1725.5 373 c 128,-1,103
 1760 412 1760 412 1789.5 464.5 c 128,-1,104
 1819 517 1819 517 1841 577.5 c 128,-1,105
 1863 638 1863 638 1875.5 703 c 128,-1,106
 1888 768 1888 768 1888 832 c 0,107,108
 1888 982 1888 982 1845.5 1086 c 128,-1,109
 1803 1190 1803 1190 1729 1254.5 c 128,-1,110
 1655 1319 1655 1319 1556 1347.5 c 128,-1,111
 1457 1376 1457 1376 1344 1376 c 0,112,113
 1203 1376 1203 1376 1078 1324 c 128,-1,114
 953 1272 953 1272 848 1184.5 c 128,-1,115
 743 1097 743 1097 660 983.5 c 128,-1,116
 577 870 577 870 519 746 c 128,-1,117
 461 622 461 622 430.5 496.5 c 128,-1,118
 400 371 400 371 400 261 c 0,119,120
 400 172 400 172 431 100.5 c 128,-1,121
 462 29 462 29 532 -22 c 128,-1,122
 602 -73 602 -73 715 -100.5 c 128,-1,123
 828 -128 828 -128 992 -128 c 0,124,125
 1231 -128 1231 -128 1414.5 -91.5 c 128,-1,126
 1598 -55 1598 -55 1733 7 c 0,127,128
 1756 17 1756 17 1775 17 c 0,129,130
 1792 17 1792 17 1804 9 c 128,-1,131
 1816 1 1816 1 1824 -12 c 128,-1,132
 1832 -25 1832 -25 1835.5 -41.5 c 128,-1,133
 1839 -58 1839 -58 1839 -75 c 0,134,135
 1839 -101 1839 -101 1831 -124.5 c 128,-1,136
 1823 -148 1823 -148 1809 -156 c 0,137,138
 1713 -213 1713 -213 1597.5 -256 c 128,-1,139
 1482 -299 1482 -299 1361 -327.5 c 128,-1,140
 1240 -356 1240 -356 1120 -370 c 128,-1,141
 1000 -384 1000 -384 896 -384 c 0,142,143
 701 -384 701 -384 554 -339 c 128,-1,144
 407 -294 407 -294 309 -214.5 c 128,-1,145
 211 -135 211 -135 161.5 -25 c 128,-1,146
 112 85 112 85 112 215 c 0,21,22
EndSplineSet
EndChar

StartChar: J
Encoding: 74 74 38
Width: 1952
Flags: W
LayerCount: 2
Fore
SplineSet
576 -256 m 0,0,1
 576 -121 576 -121 627.5 19.5 c 128,-1,2
 679 160 679 160 774 285.5 c 128,-1,3
 869 411 869 411 1003 509.5 c 128,-1,4
 1137 608 1137 608 1302 659 c 1,5,6
 1217 728 1217 728 1143 804 c 128,-1,7
 1069 880 1069 880 1014 959.5 c 128,-1,8
 959 1039 959 1039 927.5 1119.5 c 128,-1,9
 896 1200 896 1200 896 1280 c 0,10,11
 896 1382 896 1382 918.5 1474 c 128,-1,12
 941 1566 941 1566 980.5 1644.5 c 128,-1,13
 1020 1723 1020 1723 1074 1786.5 c 128,-1,14
 1128 1850 1128 1850 1190 1894.5 c 128,-1,15
 1252 1939 1252 1939 1319.5 1963 c 128,-1,16
 1387 1987 1387 1987 1455 1987 c 0,17,18
 1545 1987 1545 1987 1628.5 1941 c 128,-1,19
 1712 1895 1712 1895 1777 1795 c 128,-1,20
 1842 1695 1842 1695 1881 1536 c 128,-1,21
 1920 1377 1920 1377 1920 1152 c 0,22,23
 1920 989 1920 989 1908.5 842.5 c 128,-1,24
 1897 696 1897 696 1875 562 c 1,25,26
 1936 524 1936 524 1998.5 488 c 128,-1,27
 2061 452 2061 452 2125 416 c 0,28,29
 2138 408 2138 408 2157.5 397 c 128,-1,30
 2177 386 2177 386 2195.5 373.5 c 128,-1,31
 2214 361 2214 361 2227 348.5 c 128,-1,32
 2240 336 2240 336 2240 326 c 256,33,34
 2240 316 2240 316 2231.5 306.5 c 128,-1,35
 2223 297 2223 297 2211.5 288.5 c 128,-1,36
 2200 280 2200 280 2188.5 274 c 128,-1,37
 2177 268 2177 268 2171 265 c 0,38,39
 2154 256 2154 256 2127 256 c 0,40,41
 2071 257 2071 257 1995.5 278 c 128,-1,42
 1920 299 1920 299 1831 337 c 1,43,44
 1787 152 1787 152 1725.5 -1.5 c 128,-1,45
 1664 -155 1664 -155 1591 -277 c 128,-1,46
 1518 -399 1518 -399 1436.5 -489.5 c 128,-1,47
 1355 -580 1355 -580 1271.5 -640 c 128,-1,48
 1188 -700 1188 -700 1105.5 -730 c 128,-1,49
 1023 -760 1023 -760 947 -760 c 0,50,51
 868 -760 868 -760 800.5 -728 c 128,-1,52
 733 -696 733 -696 683 -632.5 c 128,-1,53
 633 -569 633 -569 604.5 -475 c 128,-1,54
 576 -381 576 -381 576 -256 c 0,0,1
832 -320 m 0,55,56
 832 -422 832 -422 871.5 -474.5 c 128,-1,57
 911 -527 911 -527 976 -527 c 0,58,59
 1042 -527 1042 -527 1125.5 -469 c 128,-1,60
 1209 -411 1209 -411 1293 -289.5 c 128,-1,61
 1377 -168 1377 -168 1453.5 19 c 128,-1,62
 1530 206 1530 206 1583 464 c 1,63,-1
 1546 487 l 1,64,65
 1444 467 1444 467 1351.5 417.5 c 128,-1,66
 1259 368 1259 368 1179.5 300 c 128,-1,67
 1100 232 1100 232 1036 150.5 c 128,-1,68
 972 69 972 69 926.5 -14 c 128,-1,69
 881 -97 881 -97 856.5 -176.5 c 128,-1,70
 832 -256 832 -256 832 -320 c 0,55,56
1152 1344 m 0,71,72
 1152 1264 1152 1264 1187 1185 c 128,-1,73
 1222 1106 1222 1106 1285 1028.5 c 128,-1,74
 1348 951 1348 951 1435 875 c 128,-1,75
 1522 799 1522 799 1627 725 c 1,76,77
 1644 864 1644 864 1654 1017.5 c 128,-1,78
 1664 1171 1664 1171 1664 1344 c 0,79,80
 1664 1462 1664 1462 1649 1543.5 c 128,-1,81
 1634 1625 1634 1625 1608.5 1676 c 128,-1,82
 1583 1727 1583 1727 1548.5 1749.5 c 128,-1,83
 1514 1772 1514 1772 1476 1772 c 0,84,85
 1439 1772 1439 1772 1401 1754 c 128,-1,86
 1363 1736 1363 1736 1327 1704.5 c 128,-1,87
 1291 1673 1291 1673 1259 1631 c 128,-1,88
 1227 1589 1227 1589 1203.5 1541.5 c 128,-1,89
 1180 1494 1180 1494 1166 1443.5 c 128,-1,90
 1152 1393 1152 1393 1152 1344 c 0,71,72
EndSplineSet
EndChar

StartChar: K
Encoding: 75 75 39
Width: 1920
Flags: W
LayerCount: 2
Fore
SplineSet
1227 1497 m 0,0,1
 1217 1410 1217 1410 1209.5 1320.5 c 128,-1,2
 1202 1231 1202 1231 1196 1158 c 0,3,4
 1189 1072 1189 1072 1184 992 c 1,5,6
 1288 992 1288 992 1375.5 998 c 128,-1,7
 1463 1004 1463 1004 1534 1023.5 c 128,-1,8
 1605 1043 1605 1043 1659.5 1079.5 c 128,-1,9
 1714 1116 1714 1116 1750.5 1176.5 c 128,-1,10
 1787 1237 1787 1237 1805.5 1325 c 128,-1,11
 1824 1413 1824 1413 1824 1536 c 0,12,13
 1824 1586 1824 1586 1824.5 1615.5 c 128,-1,14
 1825 1645 1825 1645 1835.5 1661 c 128,-1,15
 1846 1677 1846 1677 1872.5 1684 c 128,-1,16
 1899 1691 1899 1691 1952 1696 c 1,17,18
 1991 1696 1991 1696 2015.5 1685.5 c 128,-1,19
 2040 1675 2040 1675 2053.5 1660 c 128,-1,20
 2067 1645 2067 1645 2071.5 1629.5 c 128,-1,21
 2076 1614 2076 1614 2077 1604 c 0,22,23
 2079 1581 2079 1581 2078.5 1543.5 c 128,-1,24
 2078 1506 2078 1506 2080 1474 c 1,25,26
 2080 1361 2080 1361 2065.5 1267.5 c 128,-1,27
 2051 1174 2051 1174 2017.5 1099 c 128,-1,28
 1984 1024 1984 1024 1928.5 968 c 128,-1,29
 1873 912 1873 912 1791 874.5 c 128,-1,30
 1709 837 1709 837 1598.5 818.5 c 128,-1,31
 1488 800 1488 800 1344 800 c 1,32,33
 1404 644 1404 644 1453.5 524.5 c 128,-1,34
 1503 405 1503 405 1550.5 324 c 128,-1,35
 1598 243 1598 243 1648 201.5 c 128,-1,36
 1698 160 1698 160 1760 160 c 0,37,38
 1798 160 1798 160 1844 170.5 c 128,-1,39
 1890 181 1890 181 1937.5 200.5 c 128,-1,40
 1985 220 1985 220 2032 247 c 128,-1,41
 2079 274 2079 274 2119 306 c 1,42,-1
 2235 110 l 2,43,44
 2235 111 2235 111 2216 98.5 c 128,-1,45
 2197 86 2197 86 2163 66.5 c 128,-1,46
 2129 47 2129 47 2082.5 24.5 c 128,-1,47
 2036 2 2036 2 1980 -18 c 128,-1,48
 1924 -38 1924 -38 1861.5 -51 c 128,-1,49
 1799 -64 1799 -64 1734 -64 c 0,50,51
 1662 -64 1662 -64 1606.5 -41.5 c 128,-1,52
 1551 -19 1551 -19 1507.5 20 c 128,-1,53
 1464 59 1464 59 1430 111.5 c 128,-1,54
 1396 164 1396 164 1367 224 c 128,-1,55
 1338 284 1338 284 1311.5 348.5 c 128,-1,56
 1285 413 1285 413 1256.5 476 c 128,-1,57
 1228 539 1228 539 1195 597.5 c 128,-1,58
 1162 656 1162 656 1120 704 c 1,59,60
 1067 500 1067 500 996 354.5 c 128,-1,61
 925 209 925 209 837.5 116 c 128,-1,62
 750 23 750 23 648.5 -20.5 c 128,-1,63
 547 -64 547 -64 434 -64 c 0,64,65
 395 -64 395 -64 342 -59 c 128,-1,66
 289 -54 289 -54 240.5 -42 c 128,-1,67
 192 -30 192 -30 158 -11 c 128,-1,68
 124 8 124 8 124 36 c 0,69,70
 124 63 124 63 137 85.5 c 128,-1,71
 150 108 150 108 163 131 c 0,72,73
 167 138 167 138 176 149 c 128,-1,74
 185 160 185 160 197 170.5 c 128,-1,75
 209 181 209 181 223 188.5 c 128,-1,76
 237 196 237 196 251 196 c 0,77,78
 257 196 257 196 260 195 c 0,79,80
 295 179 295 179 330.5 169.5 c 128,-1,81
 366 160 366 160 399 160 c 0,82,83
 489 160 489 160 562 215 c 128,-1,84
 635 270 635 270 693 365 c 128,-1,85
 751 460 751 460 795.5 588.5 c 128,-1,86
 840 717 840 717 873 864.5 c 128,-1,87
 906 1012 906 1012 929.5 1170.5 c 128,-1,88
 953 1329 953 1329 969 1485 c 1,89,-1
 981 1568 l 1,90,91
 893 1568 893 1568 822 1547 c 128,-1,92
 751 1526 751 1526 695 1490 c 128,-1,93
 639 1454 639 1454 598.5 1406.5 c 128,-1,94
 558 1359 558 1359 531.5 1307 c 128,-1,95
 505 1255 505 1255 492.5 1200.5 c 128,-1,96
 480 1146 480 1146 480 1097 c 0,97,98
 480 1092 480 1092 476.5 1080 c 128,-1,99
 473 1068 473 1068 460.5 1055.5 c 128,-1,100
 448 1043 448 1043 423.5 1033.5 c 128,-1,101
 399 1024 399 1024 356 1024 c 0,102,103
 300 1024 300 1024 267.5 1034 c 128,-1,104
 235 1044 235 1044 218.5 1057.5 c 128,-1,105
 202 1071 202 1071 197 1086 c 128,-1,106
 192 1101 192 1101 192 1111 c 2,107,-1
 192 1120 l 2,108,109
 192 1122 192 1122 193 1123 c 0,110,111
 209 1258 209 1258 263.5 1355.5 c 128,-1,112
 318 1453 318 1453 397 1520 c 128,-1,113
 476 1587 476 1587 571.5 1628 c 128,-1,114
 667 1669 667 1669 763 1691 c 128,-1,115
 859 1713 859 1713 948.5 1720.5 c 128,-1,116
 1038 1728 1038 1728 1105 1728 c 0,117,118
 1144 1728 1144 1728 1168.5 1719 c 128,-1,119
 1193 1710 1193 1710 1207 1696 c 128,-1,120
 1221 1682 1221 1682 1226 1665 c 128,-1,121
 1231 1648 1231 1648 1231 1632 c 0,122,123
 1231 1591 1231 1591 1230.5 1558.5 c 128,-1,124
 1230 1526 1230 1526 1227 1497 c 0,0,1
EndSplineSet
EndChar

StartChar: acute
Encoding: 180 180 40
Width: 609
Flags: W
LayerCount: 2
Fore
SplineSet
112 1203 m 0,0,1
 118 1216 118 1216 129 1242.5 c 128,-1,2
 140 1269 140 1269 154.5 1302.5 c 128,-1,3
 169 1336 169 1336 185.5 1375 c 128,-1,4
 202 1414 202 1414 219 1452 c 0,5,6
 258 1542 258 1542 304 1646 c 1,7,8
 317 1680 317 1680 343.5 1695 c 128,-1,9
 370 1710 370 1710 399 1710 c 0,10,11
 425 1710 425 1710 451 1700 c 128,-1,12
 477 1690 477 1690 497.5 1672 c 128,-1,13
 518 1654 518 1654 531 1629 c 128,-1,14
 544 1604 544 1604 544 1574 c 0,15,16
 544 1527 544 1527 507 1477 c 0,17,18
 488 1451 488 1451 463.5 1419.5 c 128,-1,19
 439 1388 439 1388 412.5 1353.5 c 128,-1,20
 386 1319 386 1319 358.5 1285 c 128,-1,21
 331 1251 331 1251 306 1220.5 c 128,-1,22
 281 1190 281 1190 260.5 1165 c 128,-1,23
 240 1140 240 1140 228 1125 c 0,24,25
 211 1105 211 1105 194 1096.5 c 128,-1,26
 177 1088 177 1088 160 1088 c 0,27,28
 136 1088 136 1088 119 1106.5 c 128,-1,29
 102 1125 102 1125 102 1155 c 0,30,31
 102 1166 102 1166 104.5 1178 c 128,-1,32
 107 1190 107 1190 112 1203 c 0,0,1
EndSplineSet
EndChar

StartChar: A
Encoding: 65 65 41
Width: 1632
Flags: W
LayerCount: 2
Fore
SplineSet
1872 224 m 1,0,1
 1851 202 1851 202 1818.5 174 c 128,-1,2
 1786 146 1786 146 1745.5 117.5 c 128,-1,3
 1705 89 1705 89 1658 62 c 128,-1,4
 1611 35 1611 35 1562 14 c 128,-1,5
 1513 -7 1513 -7 1463.5 -19.5 c 128,-1,6
 1414 -32 1414 -32 1368 -32 c 0,7,8
 1336 -32 1336 -32 1303.5 -21 c 128,-1,9
 1271 -10 1271 -10 1244.5 19.5 c 128,-1,10
 1218 49 1218 49 1201 101 c 128,-1,11
 1184 153 1184 153 1184 236 c 0,12,13
 1184 271 1184 271 1189 311.5 c 128,-1,14
 1194 352 1194 352 1202 399 c 1,15,16
 1146 286 1146 286 1075.5 199.5 c 128,-1,17
 1005 113 1005 113 925.5 54.5 c 128,-1,18
 846 -4 846 -4 761 -34 c 128,-1,19
 676 -64 676 -64 591 -64 c 0,20,21
 498 -64 498 -64 414.5 -31.5 c 128,-1,22
 331 1 331 1 267 65.5 c 128,-1,23
 203 130 203 130 165.5 226 c 128,-1,24
 128 322 128 322 128 450 c 0,25,26
 128 547 128 547 150.5 653 c 128,-1,27
 173 759 173 759 216 867 c 128,-1,28
 259 975 259 975 320 1081 c 128,-1,29
 381 1187 381 1187 459 1282.5 c 128,-1,30
 537 1378 537 1378 629.5 1459.5 c 128,-1,31
 722 1541 722 1541 827 1600.5 c 128,-1,32
 932 1660 932 1660 1048 1694 c 128,-1,33
 1164 1728 1164 1728 1289 1728 c 0,34,35
 1323 1728 1323 1728 1343.5 1722.5 c 128,-1,36
 1364 1717 1364 1717 1374.5 1708.5 c 128,-1,37
 1385 1700 1385 1700 1388 1691 c 128,-1,38
 1391 1682 1391 1682 1391 1675 c 0,39,40
 1391 1670 1391 1670 1390.5 1666 c 128,-1,41
 1390 1662 1390 1662 1390 1660 c 2,42,-1
 1390 1655 l 1,43,44
 1417 1639 1417 1639 1445 1635.5 c 128,-1,45
 1473 1632 1473 1632 1500 1629.5 c 128,-1,46
 1527 1627 1527 1627 1551 1619 c 128,-1,47
 1575 1611 1575 1611 1593 1587.5 c 128,-1,48
 1611 1564 1611 1564 1621.5 1519 c 128,-1,49
 1632 1474 1632 1474 1632 1397 c 0,50,51
 1632 1337 1632 1337 1620.5 1262 c 128,-1,52
 1609 1187 1609 1187 1590 1105 c 128,-1,53
 1571 1023 1571 1023 1547.5 939 c 128,-1,54
 1524 855 1524 855 1500.5 776 c 128,-1,55
 1477 697 1477 697 1455 627 c 128,-1,56
 1433 557 1433 557 1418 505 c 1,57,58
 1415 461 1415 461 1413 423 c 128,-1,59
 1411 385 1411 385 1411 344 c 0,60,61
 1411 312 1411 312 1412.5 291.5 c 128,-1,62
 1414 271 1414 271 1418 259 c 128,-1,63
 1422 247 1422 247 1429 242.5 c 128,-1,64
 1436 238 1436 238 1447 238 c 0,65,66
 1467 238 1467 238 1497.5 248.5 c 128,-1,67
 1528 259 1528 259 1562.5 275.5 c 128,-1,68
 1597 292 1597 292 1634.5 312.5 c 128,-1,69
 1672 333 1672 333 1706.5 353.5 c 128,-1,70
 1741 374 1741 374 1771 391 c 128,-1,71
 1801 408 1801 408 1821 419 c 1,72,-1
 1872 224 l 1,0,1
1399 1517 m 1,73,74
 1364 1527 1364 1527 1326.5 1531.5 c 128,-1,75
 1289 1536 1289 1536 1254 1536 c 0,76,77
 1173 1536 1173 1536 1094 1505 c 128,-1,78
 1015 1474 1015 1474 940.5 1420.5 c 128,-1,79
 866 1367 866 1367 798.5 1294.5 c 128,-1,80
 731 1222 731 1222 672.5 1138.5 c 128,-1,81
 614 1055 614 1055 567 965 c 128,-1,82
 520 875 520 875 486 785.5 c 128,-1,83
 452 696 452 696 434 611.5 c 128,-1,84
 416 527 416 527 416 456 c 0,85,86
 416 315 416 315 472.5 237.5 c 128,-1,87
 529 160 529 160 648 160 c 0,88,89
 722 160 722 160 788.5 191 c 128,-1,90
 855 222 855 222 912 272.5 c 128,-1,91
 969 323 969 323 1016.5 386.5 c 128,-1,92
 1064 450 1064 450 1099.5 515 c 128,-1,93
 1135 580 1135 580 1158 640.5 c 128,-1,94
 1181 701 1181 701 1191 745 c 1,95,-1
 1399 1517 l 1,73,74
EndSplineSet
EndChar

StartChar: B
Encoding: 66 66 42
Width: 1292
Flags: W
LayerCount: 2
Fore
SplineSet
60 1330 m 1,0,1
 -5 1212 -5 1212 -56 1153 c 128,-1,2
 -107 1094 -107 1094 -139 1094 c 0,3,4
 -183 1094 -183 1094 -183 1195 c 0,5,6
 -183 1293 -183 1293 -155 1371 c 128,-1,7
 -127 1449 -127 1449 -76.5 1509.5 c 128,-1,8
 -26 1570 -26 1570 43.5 1612.5 c 128,-1,9
 113 1655 113 1655 195.5 1682.5 c 128,-1,10
 278 1710 278 1710 370 1723 c 128,-1,11
 462 1736 462 1736 559 1736 c 0,12,13
 672 1736 672 1736 786 1719.5 c 128,-1,14
 900 1703 900 1703 1005 1673 c 128,-1,15
 1110 1643 1110 1643 1201 1600.5 c 128,-1,16
 1292 1558 1292 1558 1359.5 1506.5 c 128,-1,17
 1427 1455 1427 1455 1465.5 1395 c 128,-1,18
 1504 1335 1504 1335 1504 1270 c 0,19,20
 1504 1193 1504 1193 1470.5 1118 c 128,-1,21
 1437 1043 1437 1043 1365.5 982.5 c 128,-1,22
 1294 922 1294 922 1182.5 883 c 128,-1,23
 1071 844 1071 844 915 841 c 1,24,25
 1014 841 1014 841 1088 809.5 c 128,-1,26
 1162 778 1162 778 1212 724.5 c 128,-1,27
 1262 671 1262 671 1287 601 c 128,-1,28
 1312 531 1312 531 1312 454 c 0,29,30
 1312 391 1312 391 1295 326 c 128,-1,31
 1278 261 1278 261 1244 201 c 128,-1,32
 1210 141 1210 141 1159 88.5 c 128,-1,33
 1108 36 1108 36 1039.5 -3 c 128,-1,34
 971 -42 971 -42 885 -64.5 c 128,-1,35
 799 -87 799 -87 696 -87 c 0,36,37
 631 -87 631 -87 559 -78.5 c 128,-1,38
 487 -70 487 -70 413.5 -55.5 c 128,-1,39
 340 -41 340 -41 269 -21 c 128,-1,40
 198 -1 198 -1 135 22 c 1,41,42
 107 29 107 29 85.5 43 c 128,-1,43
 64 57 64 57 64 93 c 0,44,45
 64 259 64 259 72.5 433 c 128,-1,46
 81 607 81 607 107 773 c 128,-1,47
 133 939 133 939 182 1089.5 c 128,-1,48
 231 1240 231 1240 312 1359 c 1,49,50
 383 1408 383 1408 441 1408 c 0,51,52
 514 1408 514 1408 563 1326 c 1,53,54
 517 1264 517 1264 484.5 1188 c 128,-1,55
 452 1112 452 1112 430 1028.5 c 128,-1,56
 408 945 408 945 394.5 858 c 128,-1,57
 381 771 381 771 373 688 c 0,58,59
 368 641 368 641 364.5 588 c 128,-1,60
 361 535 361 535 358 480 c 128,-1,61
 355 425 355 425 353.5 370.5 c 128,-1,62
 352 316 352 316 352 266 c 0,63,64
 352 258 352 258 352.5 244 c 128,-1,65
 353 230 353 230 355 215 c 128,-1,66
 357 200 357 200 361 187.5 c 128,-1,67
 365 175 365 175 373 169 c 1,68,69
 434 149 434 149 504 135 c 128,-1,70
 574 121 574 121 644 121 c 0,71,72
 729 121 729 121 809 141.5 c 128,-1,73
 889 162 889 162 951 206.5 c 128,-1,74
 1013 251 1013 251 1050.5 320.5 c 128,-1,75
 1088 390 1088 390 1088 489 c 0,76,77
 1088 547 1088 547 1066 585.5 c 128,-1,78
 1044 624 1044 624 1008.5 650 c 128,-1,79
 973 676 973 676 927.5 691.5 c 128,-1,80
 882 707 882 707 834.5 719.5 c 128,-1,81
 787 732 787 732 741.5 744 c 128,-1,82
 696 756 696 756 660.5 774.5 c 128,-1,83
 625 793 625 793 603 820.5 c 128,-1,84
 581 848 581 848 581 892 c 0,85,86
 581 913 581 913 583.5 928.5 c 128,-1,87
 586 944 586 944 595.5 954 c 128,-1,88
 605 964 605 964 623.5 969 c 128,-1,89
 642 974 642 974 674 974 c 0,90,91
 717 974 717 974 752.5 970.5 c 128,-1,92
 788 967 788 967 829 967 c 0,93,94
 925 967 925 967 1002.5 990.5 c 128,-1,95
 1080 1014 1080 1014 1134.5 1054 c 128,-1,96
 1189 1094 1189 1094 1218.5 1147.5 c 128,-1,97
 1248 1201 1248 1201 1248 1262 c 0,98,99
 1248 1302 1248 1302 1225 1335.5 c 128,-1,100
 1202 1369 1202 1369 1160.5 1395.5 c 128,-1,101
 1119 1422 1119 1422 1063 1442 c 128,-1,102
 1007 1462 1007 1462 941 1475.5 c 128,-1,103
 875 1489 875 1489 802 1495.5 c 128,-1,104
 729 1502 729 1502 654 1502 c 0,105,106
 559 1502 559 1502 466.5 1491.5 c 128,-1,107
 374 1481 374 1481 294.5 1459.5 c 128,-1,108
 215 1438 215 1438 153.5 1405.5 c 128,-1,109
 92 1373 92 1373 60 1330 c 1,0,1
EndSplineSet
EndChar

StartChar: C
Encoding: 67 67 43
Width: 1440
Flags: W
LayerCount: 2
Fore
SplineSet
1766 338 m 1,0,1
 1717 317 1717 317 1671 282.5 c 128,-1,2
 1625 248 1625 248 1578 207 c 128,-1,3
 1531 166 1531 166 1480.5 120.5 c 128,-1,4
 1430 75 1430 75 1371.5 30.5 c 128,-1,5
 1313 -14 1313 -14 1244 -54.5 c 128,-1,6
 1175 -95 1175 -95 1091.5 -125.5 c 128,-1,7
 1008 -156 1008 -156 907.5 -174 c 128,-1,8
 807 -192 807 -192 685 -192 c 0,9,10
 550 -192 550 -192 441.5 -137.5 c 128,-1,11
 333 -83 333 -83 256 9.5 c 128,-1,12
 179 102 179 102 137.5 224.5 c 128,-1,13
 96 347 96 347 96 482 c 0,14,15
 96 574 96 574 116 679.5 c 128,-1,16
 136 785 136 785 173.5 894.5 c 128,-1,17
 211 1004 211 1004 265 1113 c 128,-1,18
 319 1222 319 1222 387.5 1322 c 128,-1,19
 456 1422 456 1422 538 1507.5 c 128,-1,20
 620 1593 620 1593 713 1656.5 c 128,-1,21
 806 1720 806 1720 909 1756 c 128,-1,22
 1012 1792 1012 1792 1123 1792 c 0,23,24
 1195 1792 1195 1792 1269 1766.5 c 128,-1,25
 1343 1741 1343 1741 1402 1688 c 128,-1,26
 1461 1635 1461 1635 1498.5 1554 c 128,-1,27
 1536 1473 1536 1473 1536 1363 c 0,28,29
 1536 1289 1536 1289 1512.5 1213.5 c 128,-1,30
 1489 1138 1489 1138 1448 1068.5 c 128,-1,31
 1407 999 1407 999 1351.5 938 c 128,-1,32
 1296 877 1296 877 1232 832.5 c 128,-1,33
 1168 788 1168 788 1099 762 c 128,-1,34
 1030 736 1030 736 961 736 c 0,35,36
 870 736 870 736 825 760.5 c 128,-1,37
 780 785 780 785 780 831 c 0,38,39
 780 839 780 839 779.5 850 c 128,-1,40
 779 861 779 861 779 873 c 0,41,42
 779 891 779 891 781 910.5 c 128,-1,43
 783 930 783 930 789 946 c 128,-1,44
 795 962 795 962 806.5 972 c 128,-1,45
 818 982 818 982 838 982 c 0,46,47
 850 982 850 982 859 978.5 c 128,-1,48
 868 975 868 975 879 971 c 128,-1,49
 890 967 890 967 905.5 963.5 c 128,-1,50
 921 960 921 960 945 960 c 0,51,52
 1009 960 1009 960 1074.5 988 c 128,-1,53
 1140 1016 1140 1016 1192.5 1067 c 128,-1,54
 1245 1118 1245 1118 1278.5 1188.5 c 128,-1,55
 1312 1259 1312 1259 1312 1344 c 0,56,57
 1312 1389 1312 1389 1300 1429.5 c 128,-1,58
 1288 1470 1288 1470 1261 1500.5 c 128,-1,59
 1234 1531 1234 1531 1191.5 1549.5 c 128,-1,60
 1149 1568 1149 1568 1088 1568 c 0,61,62
 1016 1568 1016 1568 947.5 1536.5 c 128,-1,63
 879 1505 879 1505 816 1451 c 128,-1,64
 753 1397 753 1397 696.5 1323 c 128,-1,65
 640 1249 640 1249 592 1164.5 c 128,-1,66
 544 1080 544 1080 505.5 988.5 c 128,-1,67
 467 897 467 897 440 806 c 128,-1,68
 413 715 413 715 398.5 629.5 c 128,-1,69
 384 544 384 544 384 472 c 0,70,71
 384 369 384 369 409.5 292.5 c 128,-1,72
 435 216 435 216 482 165 c 128,-1,73
 529 114 529 114 597 89 c 128,-1,74
 665 64 665 64 750 64 c 0,75,76
 856 64 856 64 947.5 90.5 c 128,-1,77
 1039 117 1039 117 1122 160 c 128,-1,78
 1205 203 1205 203 1282.5 257 c 128,-1,79
 1360 311 1360 311 1437.5 365.5 c 128,-1,80
 1515 420 1515 420 1595.5 469.5 c 128,-1,81
 1676 519 1676 519 1766 553 c 1,82,-1
 1766 338 l 1,0,1
EndSplineSet
EndChar

StartChar: parenleft
Encoding: 40 40 44
Width: 1377
Flags: W
LayerCount: 2
Fore
SplineSet
704 -384 m 0,0,1
 621 -384 621 -384 560.5 -343.5 c 128,-1,2
 500 -303 500 -303 461 -230.5 c 128,-1,3
 422 -158 422 -158 403 -58 c 128,-1,4
 384 42 384 42 384 160 c 0,5,6
 384 276 384 276 402 405.5 c 128,-1,7
 420 535 420 535 453.5 667 c 128,-1,8
 487 799 487 799 534 929 c 128,-1,9
 581 1059 581 1059 640.5 1176.5 c 128,-1,10
 700 1294 700 1294 769 1395 c 128,-1,11
 838 1496 838 1496 915.5 1570 c 128,-1,12
 993 1644 993 1644 1076.5 1686 c 128,-1,13
 1160 1728 1160 1728 1248 1728 c 0,14,15
 1312 1728 1312 1728 1381 1706 c 128,-1,16
 1450 1684 1450 1684 1508.5 1648 c 128,-1,17
 1567 1612 1567 1612 1609.5 1566 c 128,-1,18
 1652 1520 1652 1520 1664 1472 c 0,19,20
 1664 1470 1664 1470 1664.5 1468 c 128,-1,21
 1665 1466 1665 1466 1665 1464 c 0,22,23
 1665 1447 1665 1447 1650.5 1425 c 128,-1,24
 1636 1403 1636 1403 1614.5 1383.5 c 128,-1,25
 1593 1364 1593 1364 1568.5 1351 c 128,-1,26
 1544 1338 1544 1338 1525 1338 c 0,27,28
 1511 1338 1511 1338 1504 1344 c 0,29,30
 1480 1362 1480 1362 1455 1389 c 128,-1,31
 1430 1416 1430 1416 1400 1441.5 c 128,-1,32
 1370 1467 1370 1467 1333 1485.5 c 128,-1,33
 1296 1504 1296 1504 1248 1504 c 0,34,35
 1187 1504 1187 1504 1128.5 1465.5 c 128,-1,36
 1070 1427 1070 1427 1015.5 1360.5 c 128,-1,37
 961 1294 961 1294 912 1204 c 128,-1,38
 863 1114 863 1114 821.5 1010 c 128,-1,39
 780 906 780 906 746.5 794 c 128,-1,40
 713 682 713 682 689.5 570.5 c 128,-1,41
 666 459 666 459 653 354 c 128,-1,42
 640 249 640 249 640 160 c 0,43,44
 640 90 640 90 646.5 31 c 128,-1,45
 653 -28 653 -28 668 -70.5 c 128,-1,46
 683 -113 683 -113 707.5 -136.5 c 128,-1,47
 732 -160 732 -160 768 -160 c 0,48,49
 794 -160 794 -160 824 -155.5 c 128,-1,50
 854 -151 854 -151 892.5 -132 c 128,-1,51
 931 -113 931 -113 978.5 -74.5 c 128,-1,52
 1026 -36 1026 -36 1088 32 c 0,53,54
 1101 46 1101 46 1115.5 52 c 128,-1,55
 1130 58 1130 58 1143 58 c 0,56,57
 1162 58 1162 58 1179.5 46 c 128,-1,58
 1197 34 1197 34 1209.5 15.5 c 128,-1,59
 1222 -3 1222 -3 1229.5 -26 c 128,-1,60
 1237 -49 1237 -49 1237 -71 c 0,61,62
 1237 -88 1237 -88 1232.5 -103 c 128,-1,63
 1228 -118 1228 -118 1217 -129 c 0,64,65
 1084 -266 1084 -266 954 -325 c 128,-1,66
 824 -384 824 -384 704 -384 c 0,0,1
EndSplineSet
EndChar

StartChar: parenright
Encoding: 41 41 45
Width: 1279
Flags: W
LayerCount: 2
Fore
SplineSet
766 1728 m 0,0,1
 866 1728 866 1728 939 1671.5 c 128,-1,2
 1012 1615 1012 1615 1058.5 1517.5 c 128,-1,3
 1105 1420 1105 1420 1127.5 1290 c 128,-1,4
 1150 1160 1150 1160 1150 1014 c 0,5,6
 1150 866 1150 866 1128.5 710 c 128,-1,7
 1107 554 1107 554 1066 406 c 128,-1,8
 1025 258 1025 258 966 126 c 128,-1,9
 907 -6 907 -6 832.5 -105 c 128,-1,10
 758 -204 758 -204 668.5 -261.5 c 128,-1,11
 579 -319 579 -319 478 -319 c 0,12,13
 413 -319 413 -319 344.5 -303 c 128,-1,14
 276 -287 276 -287 217.5 -260.5 c 128,-1,15
 159 -234 159 -234 116.5 -199.5 c 128,-1,16
 74 -165 74 -165 62 -128 c 0,17,18
 62 -126 62 -126 61.5 -124 c 128,-1,19
 61 -122 61 -122 61 -120 c 0,20,21
 61 -103 61 -103 75.5 -81 c 128,-1,22
 90 -59 90 -59 111.5 -39.5 c 128,-1,23
 133 -20 133 -20 157.5 -7 c 128,-1,24
 182 6 182 6 201 6 c 0,25,26
 215 6 215 6 222 0 c 1,27,28
 246 -11 246 -11 271 -27.5 c 128,-1,29
 296 -44 296 -44 326 -59 c 128,-1,30
 356 -74 356 -74 393 -84.5 c 128,-1,31
 430 -95 430 -95 478 -95 c 0,32,33
 538 -95 538 -95 592.5 -42 c 128,-1,34
 647 11 647 11 693.5 100 c 128,-1,35
 740 189 740 189 777.5 306 c 128,-1,36
 815 423 815 423 841.5 551.5 c 128,-1,37
 868 680 868 680 882.5 812 c 128,-1,38
 897 944 897 944 897 1062 c 0,39,40
 897 1156 897 1156 887.5 1236.5 c 128,-1,41
 878 1317 878 1317 857.5 1376.5 c 128,-1,42
 837 1436 837 1436 805 1470 c 128,-1,43
 773 1504 773 1504 729 1504 c 0,44,45
 703 1504 703 1504 668.5 1499.5 c 128,-1,46
 634 1495 634 1495 591 1476 c 128,-1,47
 548 1457 548 1457 495.5 1418.5 c 128,-1,48
 443 1380 443 1380 382 1312 c 0,49,50
 369 1298 369 1298 354.5 1292 c 128,-1,51
 340 1286 340 1286 327 1286 c 0,52,53
 307 1286 307 1286 290 1298 c 128,-1,54
 273 1310 273 1310 260.5 1328.5 c 128,-1,55
 248 1347 248 1347 240.5 1370 c 128,-1,56
 233 1393 233 1393 233 1415 c 0,57,58
 233 1452 233 1452 253 1473 c 0,59,60
 386 1610 386 1610 516 1669 c 128,-1,61
 646 1728 646 1728 766 1728 c 0,0,1
EndSplineSet
EndChar

StartChar: G
Encoding: 71 71 46
Width: 1536
Flags: W
LayerCount: 2
Fore
SplineSet
1536 341 m 0,0,1
 1536 225 1536 225 1522.5 100 c 128,-1,2
 1509 -25 1509 -25 1479 -145 c 128,-1,3
 1449 -265 1449 -265 1399.5 -372 c 128,-1,4
 1350 -479 1350 -479 1278 -560 c 128,-1,5
 1206 -641 1206 -641 1109.5 -688.5 c 128,-1,6
 1013 -736 1013 -736 889 -736 c 0,7,8
 866 -736 866 -736 834 -733 c 128,-1,9
 802 -730 802 -730 767 -723 c 128,-1,10
 732 -716 732 -716 697.5 -704.5 c 128,-1,11
 663 -693 663 -693 636 -676 c 128,-1,12
 609 -659 609 -659 592 -636.5 c 128,-1,13
 575 -614 575 -614 575 -585 c 0,14,15
 575 -570 575 -570 581.5 -545.5 c 128,-1,16
 588 -521 588 -521 601.5 -498 c 128,-1,17
 615 -475 615 -475 635.5 -458 c 128,-1,18
 656 -441 656 -441 685 -441 c 0,19,20
 718 -441 718 -441 749 -452 c 128,-1,21
 780 -463 780 -463 813 -476.5 c 128,-1,22
 846 -490 846 -490 882 -501 c 128,-1,23
 918 -512 918 -512 960 -512 c 0,24,25
 1007 -512 1007 -512 1052.5 -464 c 128,-1,26
 1098 -416 1098 -416 1138.5 -339 c 128,-1,27
 1179 -262 1179 -262 1212.5 -166.5 c 128,-1,28
 1246 -71 1246 -71 1269 25 c 1,29,30
 1221 -19 1221 -19 1167.5 -58.5 c 128,-1,31
 1114 -98 1114 -98 1045.5 -127.5 c 128,-1,32
 977 -157 977 -157 889 -174.5 c 128,-1,33
 801 -192 801 -192 685 -192 c 0,34,35
 550 -192 550 -192 441.5 -137.5 c 128,-1,36
 333 -83 333 -83 256 9.5 c 128,-1,37
 179 102 179 102 137.5 224.5 c 128,-1,38
 96 347 96 347 96 482 c 0,39,40
 96 659 96 659 138.5 820.5 c 128,-1,41
 181 982 181 982 256 1120.5 c 128,-1,42
 331 1259 331 1259 433 1371.5 c 128,-1,43
 535 1484 535 1484 653 1563.5 c 128,-1,44
 771 1643 771 1643 900.5 1686.5 c 128,-1,45
 1030 1730 1030 1730 1160 1730 c 0,46,47
 1240 1730 1240 1730 1308.5 1706 c 128,-1,48
 1377 1682 1377 1682 1427.5 1631 c 128,-1,49
 1478 1580 1478 1580 1506.5 1502 c 128,-1,50
 1535 1424 1535 1424 1535 1316 c 0,51,52
 1535 1274 1535 1274 1525 1232.5 c 128,-1,53
 1515 1191 1515 1191 1492 1149 c 1,54,55
 1460 1102 1460 1102 1430 1082.5 c 128,-1,56
 1400 1063 1400 1063 1373 1063 c 0,57,58
 1352 1063 1352 1063 1334 1074 c 128,-1,59
 1316 1085 1316 1085 1303 1103 c 128,-1,60
 1290 1121 1290 1121 1282.5 1143.5 c 128,-1,61
 1275 1166 1275 1166 1275 1190 c 0,62,63
 1275 1209 1275 1209 1281 1227 c 128,-1,64
 1287 1245 1287 1245 1293.5 1263 c 128,-1,65
 1300 1281 1300 1281 1306 1300.5 c 128,-1,66
 1312 1320 1312 1320 1312 1341 c 0,67,68
 1312 1441 1312 1441 1268 1491 c 128,-1,69
 1224 1541 1224 1541 1158 1541 c 0,70,71
 1077 1541 1077 1541 987.5 1507.5 c 128,-1,72
 898 1474 898 1474 812 1410.5 c 128,-1,73
 726 1347 726 1347 648.5 1254.5 c 128,-1,74
 571 1162 571 1162 512 1043 c 128,-1,75
 453 924 453 924 418.5 780.5 c 128,-1,76
 384 637 384 637 384 472 c 0,77,78
 384 369 384 369 409.5 292.5 c 128,-1,79
 435 216 435 216 482 165 c 128,-1,80
 529 114 529 114 597 89 c 128,-1,81
 665 64 665 64 750 64 c 0,82,83
 908 64 908 64 1041 106.5 c 128,-1,84
 1174 149 1174 149 1291 226 c 1,85,86
 1299 256 1299 256 1305 283.5 c 128,-1,87
 1311 311 1311 311 1311 334 c 0,88,89
 1311 364 1311 364 1303 381.5 c 128,-1,90
 1295 399 1295 399 1281.5 407.5 c 128,-1,91
 1268 416 1268 416 1249.5 418 c 128,-1,92
 1231 420 1231 420 1210 420 c 0,93,94
 1172 420 1172 420 1143.5 430 c 128,-1,95
 1115 440 1115 440 1095 456 c 128,-1,96
 1075 472 1075 472 1065 493 c 128,-1,97
 1055 514 1055 514 1055 535 c 256,98,99
 1055 556 1055 556 1064.5 575.5 c 128,-1,100
 1074 595 1074 595 1094 610 c 128,-1,101
 1114 625 1114 625 1144.5 634.5 c 128,-1,102
 1175 644 1175 644 1216 644 c 0,103,104
 1313 644 1313 644 1375.5 624 c 128,-1,105
 1438 604 1438 604 1473.5 565 c 128,-1,106
 1509 526 1509 526 1522.5 469.5 c 128,-1,107
 1536 413 1536 413 1536 341 c 0,0,1
EndSplineSet
EndChar

StartChar: H
Encoding: 72 72 47
Width: 2111
Flags: W
LayerCount: 2
Fore
SplineSet
1798 750 m 1,0,1
 1763 627 1763 627 1742 520.5 c 128,-1,2
 1721 414 1721 414 1721 336 c 0,3,4
 1721 268 1721 268 1749.5 229.5 c 128,-1,5
 1778 191 1778 191 1844 191 c 0,6,7
 1869 191 1869 191 1904 205.5 c 128,-1,8
 1939 220 1939 220 1984 251 c 128,-1,9
 2029 282 2029 282 2084.5 331 c 128,-1,10
 2140 380 2140 380 2208 448 c 1,11,12
 2211 442 2211 442 2220 420 c 0,13,14
 2228 401 2228 401 2242.5 362.5 c 128,-1,15
 2257 324 2257 324 2283 257 c 1,16,17
 2208 178 2208 178 2132.5 118 c 128,-1,18
 2057 58 2057 58 1985.5 17.5 c 128,-1,19
 1914 -23 1914 -23 1848.5 -43.5 c 128,-1,20
 1783 -64 1783 -64 1728 -64 c 0,21,22
 1665 -64 1665 -64 1611 -40.5 c 128,-1,23
 1557 -17 1557 -17 1517.5 28 c 128,-1,24
 1478 73 1478 73 1455 138.5 c 128,-1,25
 1432 204 1432 204 1432 288 c 0,26,27
 1432 317 1432 317 1438 361 c 128,-1,28
 1444 405 1444 405 1455.5 461 c 128,-1,29
 1467 517 1467 517 1483.5 583.5 c 128,-1,30
 1500 650 1500 650 1520 724 c 1,31,32
 1386 710 1386 710 1263 698 c 128,-1,33
 1140 686 1140 686 1018 675 c 1,34,35
 990 591 990 591 962.5 510.5 c 128,-1,36
 935 430 935 430 909.5 359.5 c 128,-1,37
 884 289 884 289 862.5 230.5 c 128,-1,38
 841 172 841 172 826 131 c 1,39,40
 777 25 777 25 730.5 -19 c 128,-1,41
 684 -63 684 -63 647 -63 c 0,42,43
 623 -63 623 -63 600 -55 c 128,-1,44
 577 -47 577 -47 559 -32 c 128,-1,45
 541 -17 541 -17 530.5 4 c 128,-1,46
 520 25 520 25 520 51 c 0,47,48
 520 67 520 67 524 82 c 0,49,50
 566 235 566 235 615.5 377.5 c 128,-1,51
 665 520 665 520 716 655 c 1,52,53
 661 655 661 655 610.5 663.5 c 128,-1,54
 560 672 560 672 517 693 c 128,-1,55
 474 714 474 714 440.5 751 c 128,-1,56
 407 788 407 788 385 845 c 1,57,58
 381 863 381 863 378.5 877 c 128,-1,59
 376 891 376 891 376 905 c 0,60,61
 376 949 376 949 407 949 c 0,62,63
 426 949 426 949 449 928.5 c 128,-1,64
 472 908 472 908 508 863 c 1,65,66
 555 865 555 865 602 866 c 128,-1,67
 649 867 649 867 703 867 c 2,68,-1
 799 867 l 1,69,70
 835 960 835 960 867.5 1046.5 c 128,-1,71
 900 1133 900 1133 928 1216 c 0,72,73
 945 1269 945 1269 955 1322 c 128,-1,74
 965 1375 965 1375 965 1423 c 0,75,76
 965 1462 965 1462 958 1495 c 128,-1,77
 951 1528 951 1528 935 1551 c 128,-1,78
 919 1574 919 1574 894 1587 c 128,-1,79
 869 1600 869 1600 832 1600 c 0,80,81
 802 1600 802 1600 762.5 1590 c 128,-1,82
 723 1580 723 1580 675 1557.5 c 128,-1,83
 627 1535 627 1535 570.5 1498.5 c 128,-1,84
 514 1462 514 1462 448 1408 c 0,85,86
 425 1389 425 1389 405.5 1381 c 128,-1,87
 386 1373 386 1373 370 1373 c 0,88,89
 362 1373 362 1373 358 1399.5 c 128,-1,90
 354 1426 354 1426 354 1465 c 0,91,92
 354 1517 354 1517 378.5 1564 c 128,-1,93
 403 1611 403 1611 444 1650.5 c 128,-1,94
 485 1690 485 1690 538.5 1722.5 c 128,-1,95
 592 1755 592 1755 648.5 1777.5 c 128,-1,96
 705 1800 705 1800 761 1812 c 128,-1,97
 817 1824 817 1824 864 1824 c 0,98,99
 934 1824 934 1824 998 1805 c 128,-1,100
 1062 1786 1062 1786 1110.5 1744 c 128,-1,101
 1159 1702 1159 1702 1187.5 1635 c 128,-1,102
 1216 1568 1216 1568 1216 1472 c 0,103,104
 1216 1427 1216 1427 1205.5 1362 c 128,-1,105
 1195 1297 1195 1297 1177 1219.5 c 128,-1,106
 1159 1142 1159 1142 1134.5 1054.5 c 128,-1,107
 1110 967 1110 967 1082 876 c 1,108,109
 1185 883 1185 883 1314 890 c 128,-1,110
 1443 897 1443 897 1573 904 c 1,111,112
 1624 1071 1624 1071 1685.5 1249.5 c 128,-1,113
 1747 1428 1747 1428 1816 1600 c 0,114,115
 1839 1657 1839 1657 1876.5 1691 c 128,-1,116
 1914 1725 1914 1725 1965 1725 c 0,117,118
 1986 1725 1986 1725 2005.5 1719 c 128,-1,119
 2025 1713 2025 1713 2040 1700.5 c 128,-1,120
 2055 1688 2055 1688 2063.5 1668.5 c 128,-1,121
 2072 1649 2072 1649 2072 1623 c 0,122,123
 2072 1600 2072 1600 2069 1569.5 c 128,-1,124
 2066 1539 2066 1539 2053 1504 c 0,125,126
 2030 1442 2030 1442 2004 1371.5 c 128,-1,127
 1978 1301 1978 1301 1951.5 1226.5 c 128,-1,128
 1925 1152 1925 1152 1898.5 1074 c 128,-1,129
 1872 996 1872 996 1848 919 c 1,130,131
 1911 923 1911 923 1958 926.5 c 128,-1,132
 2005 930 2005 930 2029 932 c 0,133,134
 2040 933 2040 933 2049.5 933.5 c 128,-1,135
 2059 934 2059 934 2067 934 c 0,136,137
 2097 934 2097 934 2115.5 928 c 128,-1,138
 2134 922 2134 922 2144.5 911 c 128,-1,139
 2155 900 2155 900 2159 885 c 128,-1,140
 2163 870 2163 870 2163 851 c 0,141,142
 2163 830 2163 830 2154 816 c 128,-1,143
 2145 802 2145 802 2131.5 793.5 c 128,-1,144
 2118 785 2118 785 2103 781.5 c 128,-1,145
 2088 778 2088 778 2075 777 c 0,146,147
 2047 774 2047 774 2035 772.5 c 128,-1,148
 2023 771 2023 771 2018 770.5 c 128,-1,149
 2013 770 2013 770 2011.5 769.5 c 128,-1,150
 2010 769 2010 769 2004 768.5 c 128,-1,151
 1998 768 1998 768 1983 767 c 128,-1,152
 1968 766 1968 766 1937 763 c 0,153,154
 1901 759 1901 759 1866.5 756 c 128,-1,155
 1832 753 1832 753 1798 750 c 1,0,1
EndSplineSet
EndChar

StartChar: hyphen
Encoding: 45 45 48
Width: 768
Flags: W
LayerCount: 2
Fore
SplineSet
608 704 m 1,0,1
 621 704 621 704 638 701 c 128,-1,2
 655 698 655 698 669 689.5 c 128,-1,3
 683 681 683 681 693 666.5 c 128,-1,4
 703 652 703 652 703 628 c 0,5,6
 703 608 703 608 698.5 587.5 c 128,-1,7
 694 567 694 567 680.5 550.5 c 128,-1,8
 667 534 667 534 642 523 c 128,-1,9
 617 512 617 512 575 512 c 2,10,-1
 160 512 l 2,11,12
 128 512 128 512 109 523.5 c 128,-1,13
 90 535 90 535 79.5 551.5 c 128,-1,14
 69 568 69 568 66 587 c 128,-1,15
 63 606 63 606 63 621 c 0,16,17
 63 634 63 634 66 648.5 c 128,-1,18
 69 663 69 663 79 675.5 c 128,-1,19
 89 688 89 688 108.5 696 c 128,-1,20
 128 704 128 704 160 704 c 2,21,-1
 608 704 l 1,22,-1
 608 704 l 1,0,1
EndSplineSet
EndChar

StartChar: s
Encoding: 115 115 49
Width: 865
Flags: W
LayerCount: 2
Fore
SplineSet
96 384 m 0,0,1
 152 432 152 432 187 464 c 128,-1,2
 222 496 222 496 247 522.5 c 128,-1,3
 272 549 272 549 292.5 576 c 128,-1,4
 313 603 313 603 341 640 c 128,-1,5
 369 677 369 677 409 730.5 c 128,-1,6
 449 784 449 784 513 864 c 1,7,8
 526 882 526 882 542 899 c 128,-1,9
 558 916 558 916 577.5 929.5 c 128,-1,10
 597 943 597 943 620.5 951.5 c 128,-1,11
 644 960 644 960 673 960 c 0,12,13
 721 960 721 960 747 949.5 c 128,-1,14
 773 939 773 939 785 924 c 128,-1,15
 797 909 797 909 799 892.5 c 128,-1,16
 801 876 801 876 801 864 c 0,17,18
 801 840 801 840 782 811 c 128,-1,19
 763 782 763 782 740 755 c 128,-1,20
 717 728 717 728 696.5 705.5 c 128,-1,21
 676 683 676 683 673 672 c 1,22,23
 673 641 673 641 677.5 615.5 c 128,-1,24
 682 590 682 590 689.5 565.5 c 128,-1,25
 697 541 697 541 705 513.5 c 128,-1,26
 713 486 713 486 720.5 450 c 128,-1,27
 728 414 728 414 732.5 367 c 128,-1,28
 737 320 737 320 737 256 c 1,29,30
 773 280 773 280 814.5 299.5 c 128,-1,31
 856 319 856 319 901 340 c 128,-1,32
 946 361 946 361 993.5 386.5 c 128,-1,33
 1041 412 1041 412 1089 448 c 1,34,-1
 1090 224 l 1,35,36
 1028 176 1028 176 946.5 134 c 128,-1,37
 865 92 865 92 775.5 60 c 128,-1,38
 686 28 686 28 594.5 9.5 c 128,-1,39
 503 -9 503 -9 421 -9 c 0,40,41
 362 -9 362 -9 311 2 c 128,-1,42
 260 13 260 13 221.5 36.5 c 128,-1,43
 183 60 183 60 159 98 c 128,-1,44
 135 136 135 136 130 190 c 1,45,46
 116 187 116 187 102.5 186 c 128,-1,47
 89 185 89 185 76 185 c 0,48,49
 60 185 60 185 46 186 c 128,-1,50
 32 187 32 187 22 193.5 c 128,-1,51
 12 200 12 200 6 214.5 c 128,-1,52
 0 229 0 229 0 256 c 0,53,54
 0 280 0 280 12 300.5 c 128,-1,55
 24 321 24 321 40 337 c 128,-1,56
 56 353 56 353 72 365 c 128,-1,57
 88 377 88 377 96 384 c 0,0,1
224 256 m 1,58,59
 236 256 236 256 250.5 241 c 128,-1,60
 265 226 265 226 284 208 c 128,-1,61
 303 190 303 190 328 175 c 128,-1,62
 353 160 353 160 385 160 c 0,63,64
 424 160 424 160 449.5 173 c 128,-1,65
 475 186 475 186 490 207.5 c 128,-1,66
 505 229 505 229 511 257.5 c 128,-1,67
 517 286 517 286 517 317 c 0,68,69
 517 344 517 344 513.5 372 c 128,-1,70
 510 400 510 400 504.5 425.5 c 128,-1,71
 499 451 499 451 492.5 473.5 c 128,-1,72
 486 496 486 496 481 512 c 1,73,-1
 224 256 l 1,58,59
EndSplineSet
EndChar

StartChar: I
Encoding: 73 73 50
Width: 863
Flags: W
LayerCount: 2
Fore
SplineSet
309 1404 m 0,0,1
 305 1402 305 1402 305 1402 c 1,2,3
 302 1402 302 1402 299.5 1437.5 c 128,-1,4
 297 1473 297 1473 297 1533 c 0,5,6
 297 1545 297 1545 308 1564.5 c 128,-1,7
 319 1584 319 1584 345 1606 c 128,-1,8
 371 1628 371 1628 413.5 1650 c 128,-1,9
 456 1672 456 1672 520.5 1690 c 128,-1,10
 585 1708 585 1708 672.5 1719 c 128,-1,11
 760 1730 760 1730 875 1730 c 0,12,13
 974 1730 974 1730 1029.5 1720.5 c 128,-1,14
 1085 1711 1085 1711 1113 1695.5 c 128,-1,15
 1141 1680 1141 1680 1147.5 1659.5 c 128,-1,16
 1154 1639 1154 1639 1154 1618 c 0,17,18
 1154 1596 1154 1596 1149 1575 c 128,-1,19
 1144 1554 1144 1554 1123 1537.5 c 128,-1,20
 1102 1521 1102 1521 1060 1511 c 128,-1,21
 1018 1501 1018 1501 945 1501 c 0,22,23
 912 1501 912 1501 879 1504 c 1,24,25
 851 1395 851 1395 830 1309 c 128,-1,26
 809 1223 809 1223 792 1150.5 c 128,-1,27
 775 1078 775 1078 761 1014 c 128,-1,28
 747 950 747 950 732.5 885 c 128,-1,29
 718 820 718 820 702 749 c 128,-1,30
 686 678 686 678 665.5 592 c 128,-1,31
 645 506 645 506 617.5 399.5 c 128,-1,32
 590 293 590 293 554 157 c 1,33,34
 560 157 560 157 581.5 155 c 128,-1,35
 603 153 603 153 631 148 c 128,-1,36
 659 143 659 143 690.5 135 c 128,-1,37
 722 127 722 127 748 115 c 128,-1,38
 774 103 774 103 791 87 c 128,-1,39
 808 71 808 71 808 50 c 0,40,41
 808 8 808 8 736 -32 c 1,42,43
 715 -32 715 -32 668.5 -32 c 128,-1,44
 622 -32 622 -32 559 -32 c 128,-1,45
 496 -32 496 -32 423 -32 c 128,-1,46
 350 -32 350 -32 277 -32.5 c 128,-1,47
 204 -33 204 -33 135.5 -32.5 c 128,-1,48
 67 -32 67 -32 15 -31.5 c 128,-1,49
 -37 -31 -37 -31 -68.5 -30 c 128,-1,50
 -100 -29 -100 -29 -100 -27 c 0,51,52
 -100 -24 -100 -24 -90.5 -17.5 c 128,-1,53
 -81 -11 -81 -11 -69 0.5 c 128,-1,54
 -57 12 -57 12 -46 29 c 128,-1,55
 -35 46 -35 46 -32 71 c 0,56,57
 -30 88 -30 88 2 103.5 c 128,-1,58
 34 119 34 119 79 131.5 c 128,-1,59
 124 144 124 144 174.5 152 c 128,-1,60
 225 160 225 160 264 163 c 1,61,62
 295 294 295 294 326.5 425 c 128,-1,63
 358 556 358 556 388.5 681.5 c 128,-1,64
 419 807 419 807 448.5 924.5 c 128,-1,65
 478 1042 478 1042 506 1145 c 128,-1,66
 534 1248 534 1248 560 1334 c 128,-1,67
 586 1420 586 1420 609 1484 c 1,68,69
 572 1480 572 1480 544 1476 c 128,-1,70
 516 1472 516 1472 494 1467 c 128,-1,71
 472 1462 472 1462 452.5 1456 c 128,-1,72
 433 1450 433 1450 412 1442.5 c 128,-1,73
 391 1435 391 1435 366.5 1425.5 c 128,-1,74
 342 1416 342 1416 309 1404 c 0,0,1
EndSplineSet
EndChar

StartChar: Z
Encoding: 90 90 51
Width: 1025
Flags: W
LayerCount: 2
Fore
SplineSet
635 1313 m 0,0,1
 582 1319 582 1319 541 1330.5 c 128,-1,2
 500 1342 500 1342 468 1353.5 c 128,-1,3
 436 1365 436 1365 410.5 1373.5 c 128,-1,4
 385 1382 385 1382 363 1382 c 0,5,6
 345 1382 345 1382 328 1374 c 128,-1,7
 311 1366 311 1366 293.5 1346.5 c 128,-1,8
 276 1327 276 1327 257 1294.5 c 128,-1,9
 238 1262 238 1262 216 1213 c 0,10,11
 188 1152 188 1152 159 1129.5 c 128,-1,12
 130 1107 130 1107 109 1107 c 0,13,14
 90 1107 90 1107 82 1123.5 c 128,-1,15
 74 1140 74 1140 74 1168 c 0,16,17
 74 1179 74 1179 75.5 1192 c 128,-1,18
 77 1205 77 1205 79 1219 c 0,19,20
 96 1348 96 1348 129.5 1429 c 128,-1,21
 163 1510 163 1510 204.5 1555.5 c 128,-1,22
 246 1601 246 1601 290 1617 c 128,-1,23
 334 1633 334 1633 373 1633 c 0,24,25
 417 1633 417 1633 460 1620 c 128,-1,26
 503 1607 503 1607 547.5 1591 c 128,-1,27
 592 1575 592 1575 638.5 1561.5 c 128,-1,28
 685 1548 685 1548 735 1547 c 0,29,30
 772 1546 772 1546 804.5 1546 c 128,-1,31
 837 1546 837 1546 866 1546 c 0,32,33
 957 1546 957 1546 1010.5 1548 c 128,-1,34
 1064 1550 1064 1550 1092.5 1552 c 128,-1,35
 1121 1554 1121 1554 1131 1556 c 128,-1,36
 1141 1558 1141 1558 1145 1558 c 0,37,38
 1187 1558 1187 1558 1205.5 1530 c 128,-1,39
 1224 1502 1224 1502 1224 1454 c 0,40,41
 1224 1439 1224 1439 1222 1422.5 c 128,-1,42
 1220 1406 1220 1406 1217 1388 c 1,43,44
 1215 1383 1215 1383 1202.5 1369.5 c 128,-1,45
 1190 1356 1190 1356 1161 1340 c 1,46,47
 1045 1227 1045 1227 947.5 1113.5 c 128,-1,48
 850 1000 850 1000 770.5 894 c 128,-1,49
 691 788 691 788 629 694 c 128,-1,50
 567 600 567 600 522 526.5 c 128,-1,51
 477 453 477 453 448.5 405 c 128,-1,52
 420 357 420 357 408 342 c 1,53,-1
 403 319 l 2,54,55
 404 319 404 319 419.5 311 c 128,-1,56
 435 303 435 303 460.5 291.5 c 128,-1,57
 486 280 486 280 517.5 266 c 128,-1,58
 549 252 549 252 582 240.5 c 128,-1,59
 615 229 615 229 646 221 c 128,-1,60
 677 213 677 213 701 213 c 0,61,62
 782 213 782 213 846 230 c 128,-1,63
 910 247 910 247 962.5 271.5 c 128,-1,64
 1015 296 1015 296 1057.5 323.5 c 128,-1,65
 1100 351 1100 351 1137 372 c 1,66,67
 1159 388 1159 388 1181 388 c 256,68,69
 1203 388 1203 388 1223.5 376 c 128,-1,70
 1244 364 1244 364 1260 345 c 128,-1,71
 1276 326 1276 326 1285.5 302.5 c 128,-1,72
 1295 279 1295 279 1295 257 c 0,73,74
 1295 223 1295 223 1277 202 c 1,75,76
 1241 172 1241 172 1180.5 132 c 128,-1,77
 1120 92 1120 92 1045 56 c 128,-1,78
 970 20 970 20 885 -5 c 128,-1,79
 800 -30 800 -30 713 -30 c 0,80,81
 699 -30 699 -30 666 -22 c 128,-1,82
 633 -14 633 -14 578 5.5 c 128,-1,83
 523 25 523 25 446 56.5 c 128,-1,84
 369 88 369 88 268 135 c 1,85,86
 217 90 217 90 166.5 70.5 c 128,-1,87
 116 51 116 51 74 51 c 0,88,89
 20 51 20 51 -13.5 79 c 128,-1,90
 -47 107 -47 107 -47 156 c 0,91,92
 -47 194 -47 194 -21.5 244 c 128,-1,93
 4 294 4 294 64 352 c 1,94,-1
 798 1312 l 1,95,96
 775 1312 775 1312 750.5 1311 c 128,-1,97
 726 1310 726 1310 700 1310 c 0,98,99
 668 1310 668 1310 635 1313 c 0,0,1
EndSplineSet
EndChar

StartChar: z
Encoding: 122 122 52
Width: 673
Flags: W
LayerCount: 2
Fore
SplineSet
27 187 m 0,0,1
 27 209 27 209 35 223.5 c 128,-1,2
 43 238 43 238 56 251 c 128,-1,3
 69 264 69 264 86 277.5 c 128,-1,4
 103 291 103 291 121 311 c 1,5,-1
 432 729 l 1,6,7
 414 737 414 737 401 744 c 128,-1,8
 388 751 388 751 377.5 756.5 c 128,-1,9
 367 762 367 762 356 765 c 128,-1,10
 345 768 345 768 332 768 c 0,11,12
 300 768 300 768 279 767 c 128,-1,13
 258 766 258 766 243.5 760 c 128,-1,14
 229 754 229 754 217.5 742 c 128,-1,15
 206 730 206 730 192 708 c 0,16,17
 161 660 161 660 140 637.5 c 128,-1,18
 119 615 119 615 102 615 c 0,19,20
 86 615 86 615 79.5 629.5 c 128,-1,21
 73 644 73 644 73 668 c 0,22,23
 73 678 73 678 74 689.5 c 128,-1,24
 75 701 75 701 77 713 c 0,25,26
 92 800 92 800 120 854 c 128,-1,27
 148 908 148 908 182.5 937.5 c 128,-1,28
 217 967 217 967 254.5 977.5 c 128,-1,29
 292 988 292 988 324 988 c 0,30,31
 348 988 348 988 372 976.5 c 128,-1,32
 396 965 396 965 419.5 951 c 128,-1,33
 443 937 443 937 467.5 925.5 c 128,-1,34
 492 914 492 914 518 913 c 0,35,36
 538 912 538 912 554.5 912 c 128,-1,37
 571 912 571 912 585 912 c 0,38,39
 625 912 625 912 649 913.5 c 128,-1,40
 673 915 673 915 685.5 917 c 128,-1,41
 698 919 698 919 703 920.5 c 128,-1,42
 708 922 708 922 711 922 c 0,43,44
 746 922 746 922 761.5 897.5 c 128,-1,45
 777 873 777 873 777 831 c 0,46,47
 777 804 777 804 771 773 c 0,48,49
 769 765 769 765 751 752.5 c 128,-1,50
 733 740 733 740 691 729 c 1,51,52
 679 707 679 707 651 667 c 128,-1,53
 623 627 623 627 586.5 578 c 128,-1,54
 550 529 550 529 510.5 477 c 128,-1,55
 471 425 471 425 435.5 379.5 c 128,-1,56
 400 334 400 334 373.5 300.5 c 128,-1,57
 347 267 347 267 338 255 c 1,58,-1
 333 235 l 2,59,60
 334 235 334 235 351 228 c 128,-1,61
 368 221 368 221 391 212.5 c 128,-1,62
 414 204 414 204 439.5 197 c 128,-1,63
 465 190 465 190 484 190 c 0,64,65
 526 190 526 190 560.5 202.5 c 128,-1,66
 595 215 595 215 624.5 234 c 128,-1,67
 654 253 654 253 679.5 274.5 c 128,-1,68
 705 296 705 296 728.5 315 c 128,-1,69
 752 334 752 334 775 346.5 c 128,-1,70
 798 359 798 359 823 359 c 0,71,72
 842 359 842 359 857.5 350 c 128,-1,73
 873 341 873 341 883.5 327 c 128,-1,74
 894 313 894 313 899.5 295.5 c 128,-1,75
 905 278 905 278 905 261 c 0,76,77
 905 232 905 232 883 200.5 c 128,-1,78
 861 169 861 169 824 139 c 128,-1,79
 787 109 787 109 738 82 c 128,-1,80
 689 55 689 55 635.5 34.5 c 128,-1,81
 582 14 582 14 526.5 2 c 128,-1,82
 471 -10 471 -10 422 -10 c 0,83,84
 418 -10 418 -10 401 -6 c 128,-1,85
 384 -2 384 -2 356 7.5 c 128,-1,86
 328 17 328 17 291 32 c 128,-1,87
 254 47 254 47 210 70 c 1,88,89
 172 58 172 58 144 58 c 0,90,91
 114 58 114 58 92 68.5 c 128,-1,92
 70 79 70 79 55.5 97 c 128,-1,93
 41 115 41 115 34 138 c 128,-1,94
 27 161 27 161 27 187 c 0,0,1
EndSplineSet
EndChar

StartChar: g
Encoding: 103 103 53
Width: 928
Flags: W
LayerCount: 2
Fore
SplineSet
541 105 m 1,0,1
 487 57 487 57 428.5 27.5 c 128,-1,2
 370 -2 370 -2 315 -2 c 0,3,4
 267 -2 267 -2 221.5 17.5 c 128,-1,5
 176 37 176 37 141 73.5 c 128,-1,6
 106 110 106 110 85 162.5 c 128,-1,7
 64 215 64 215 64 281 c 0,8,9
 64 356 64 356 85 435 c 128,-1,10
 106 514 106 514 143 589.5 c 128,-1,11
 180 665 180 665 230.5 732 c 128,-1,12
 281 799 281 799 341 849 c 128,-1,13
 401 899 401 899 467.5 928.5 c 128,-1,14
 534 958 534 958 603 958 c 0,15,16
 626 958 626 958 639 949 c 128,-1,17
 652 940 652 940 660.5 928.5 c 128,-1,18
 669 917 669 917 677 906 c 128,-1,19
 685 895 685 895 697 890 c 256,20,21
 709 885 709 885 721.5 883.5 c 128,-1,22
 734 882 734 882 747 882 c 0,23,24
 758 882 758 882 769.5 882.5 c 128,-1,25
 781 883 781 883 792 883 c 0,26,27
 807 883 807 883 820 880 c 128,-1,28
 833 877 833 877 843 867 c 128,-1,29
 853 857 853 857 858.5 839 c 128,-1,30
 864 821 864 821 864 790 c 0,31,32
 864 764 864 764 860 720 c 128,-1,33
 856 676 856 676 849 622 c 128,-1,34
 842 568 842 568 833.5 507.5 c 128,-1,35
 825 447 825 447 816 389 c 0,36,37
 795 251 795 251 768 94 c 1,38,39
 798 111 798 111 833 136 c 128,-1,40
 868 161 868 161 911 203 c 128,-1,41
 954 245 954 245 1007 308.5 c 128,-1,42
 1060 372 1060 372 1126 467 c 1,43,-1
 1174 245 l 1,44,45
 1156 214 1156 214 1127.5 181.5 c 128,-1,46
 1099 149 1099 149 1064.5 116.5 c 128,-1,47
 1030 84 1030 84 992.5 53.5 c 128,-1,48
 955 23 955 23 919 -4 c 0,49,50
 834 -68 834 -68 736 -128 c 1,51,52
 717 -235 717 -235 691 -336.5 c 128,-1,53
 665 -438 665 -438 629.5 -526.5 c 128,-1,54
 594 -615 594 -615 548.5 -689 c 128,-1,55
 503 -763 503 -763 445.5 -816 c 128,-1,56
 388 -869 388 -869 317 -898.5 c 128,-1,57
 246 -928 246 -928 160 -928 c 0,58,59
 126 -928 126 -928 86.5 -921 c 128,-1,60
 47 -914 47 -914 13.5 -893 c 128,-1,61
 -20 -872 -20 -872 -42 -833 c 128,-1,62
 -64 -794 -64 -794 -64 -729 c 0,63,64
 -64 -684 -64 -684 -41 -627.5 c 128,-1,65
 -18 -571 -18 -571 22 -508.5 c 128,-1,66
 62 -446 62 -446 117 -378.5 c 128,-1,67
 172 -311 172 -311 236.5 -244 c 128,-1,68
 301 -177 301 -177 371.5 -112 c 128,-1,69
 442 -47 442 -47 514 12 c 1,70,-1
 541 105 l 1,0,1
320 324 m 0,71,72
 320 299 320 299 323.5 275.5 c 128,-1,73
 327 252 327 252 336 233.5 c 128,-1,74
 345 215 345 215 360 203.5 c 128,-1,75
 375 192 375 192 398 192 c 0,76,77
 435 192 435 192 465 224 c 128,-1,78
 495 256 495 256 517 301 c 128,-1,79
 539 346 539 346 552.5 394 c 128,-1,80
 566 442 566 442 570 474 c 1,81,-1
 631 768 l 1,82,83
 590 768 590 768 551 747.5 c 128,-1,84
 512 727 512 727 477.5 692 c 128,-1,85
 443 657 443 657 414 612 c 128,-1,86
 385 567 385 567 364 517.5 c 128,-1,87
 343 468 343 468 331.5 418 c 128,-1,88
 320 368 320 368 320 324 c 0,71,72
172 -736 m 0,89,90
 214 -736 214 -736 251.5 -711.5 c 128,-1,91
 289 -687 289 -687 320.5 -647 c 128,-1,92
 352 -607 352 -607 378 -556 c 128,-1,93
 404 -505 404 -505 424 -451.5 c 128,-1,94
 444 -398 444 -398 458 -347 c 128,-1,95
 472 -296 472 -296 480 -256 c 1,96,97
 441 -282 441 -282 400.5 -318 c 128,-1,98
 360 -354 360 -354 321.5 -395.5 c 128,-1,99
 283 -437 283 -437 248.5 -481 c 128,-1,100
 214 -525 214 -525 188 -565.5 c 128,-1,101
 162 -606 162 -606 147 -641 c 128,-1,102
 132 -676 132 -676 132 -699 c 0,103,104
 132 -736 132 -736 172 -736 c 0,89,90
EndSplineSet
EndChar

StartChar: y
Encoding: 121 121 54
Width: 928
Flags: W
LayerCount: 2
Fore
SplineSet
640 768 m 2,0,1
 648 802 648 802 668.5 828.5 c 128,-1,2
 689 855 689 855 715.5 873 c 128,-1,3
 742 891 742 891 771 900 c 128,-1,4
 800 909 800 909 826 909 c 0,5,6
 857 909 857 909 878 895.5 c 128,-1,7
 899 882 899 882 899 853 c 0,8,9
 899 844 899 844 896 832 c 0,10,11
 890 806 890 806 881 761 c 128,-1,12
 872 716 872 716 861.5 659 c 128,-1,13
 851 602 851 602 840 538.5 c 128,-1,14
 829 475 829 475 819 412 c 0,15,16
 794 264 794 264 768 94 c 1,17,18
 798 111 798 111 833 136 c 128,-1,19
 868 161 868 161 911 203 c 128,-1,20
 954 245 954 245 1007 308.5 c 128,-1,21
 1060 372 1060 372 1126 467 c 1,22,-1
 1174 245 l 1,23,24
 1156 214 1156 214 1127.5 181.5 c 128,-1,25
 1099 149 1099 149 1064.5 116.5 c 128,-1,26
 1030 84 1030 84 992.5 53.5 c 128,-1,27
 955 23 955 23 919 -4 c 0,28,29
 834 -68 834 -68 736 -128 c 1,30,31
 717 -235 717 -235 691 -336.5 c 128,-1,32
 665 -438 665 -438 629.5 -526.5 c 128,-1,33
 594 -615 594 -615 548.5 -689 c 128,-1,34
 503 -763 503 -763 445.5 -816 c 128,-1,35
 388 -869 388 -869 317 -898.5 c 128,-1,36
 246 -928 246 -928 160 -928 c 0,37,38
 126 -928 126 -928 86.5 -921 c 128,-1,39
 47 -914 47 -914 13.5 -893 c 128,-1,40
 -20 -872 -20 -872 -42 -833 c 128,-1,41
 -64 -794 -64 -794 -64 -729 c 0,42,43
 -64 -684 -64 -684 -41 -627.5 c 128,-1,44
 -18 -571 -18 -571 22 -508.5 c 128,-1,45
 62 -446 62 -446 117 -378.5 c 128,-1,46
 172 -311 172 -311 236.5 -244 c 128,-1,47
 301 -177 301 -177 371.5 -112 c 128,-1,48
 442 -47 442 -47 514 12 c 1,49,-1
 541 105 l 1,50,51
 487 57 487 57 428.5 27.5 c 128,-1,52
 370 -2 370 -2 315 -2 c 0,53,54
 267 -2 267 -2 221.5 17.5 c 128,-1,55
 176 37 176 37 141 73.5 c 128,-1,56
 106 110 106 110 85 162.5 c 128,-1,57
 64 215 64 215 64 281 c 0,58,59
 64 368 64 368 72.5 441 c 128,-1,60
 81 514 81 514 97 580 c 128,-1,61
 113 646 113 646 137 707.5 c 128,-1,62
 161 769 161 769 192 832 c 0,63,64
 215 877 215 877 258 900.5 c 128,-1,65
 301 924 301 924 342 924 c 0,66,67
 377 924 377 924 402 906.5 c 128,-1,68
 427 889 427 889 427 852 c 0,69,70
 427 841 427 841 424.5 828 c 128,-1,71
 422 815 422 815 416 800 c 0,72,73
 398 754 398 754 380.5 691.5 c 128,-1,74
 363 629 363 629 349.5 563.5 c 128,-1,75
 336 498 336 498 328 435 c 128,-1,76
 320 372 320 372 320 324 c 0,77,78
 320 299 320 299 323.5 275.5 c 128,-1,79
 327 252 327 252 336 233.5 c 128,-1,80
 345 215 345 215 360 203.5 c 128,-1,81
 375 192 375 192 398 192 c 0,82,83
 435 192 435 192 465 224 c 128,-1,84
 495 256 495 256 517 301 c 128,-1,85
 539 346 539 346 552.5 394 c 128,-1,86
 566 442 566 442 570 474 c 1,87,-1
 640 768 l 2,0,1
172 -736 m 0,88,89
 214 -736 214 -736 251.5 -711.5 c 128,-1,90
 289 -687 289 -687 320.5 -647 c 128,-1,91
 352 -607 352 -607 378 -556 c 128,-1,92
 404 -505 404 -505 424 -451.5 c 128,-1,93
 444 -398 444 -398 458 -347 c 128,-1,94
 472 -296 472 -296 480 -256 c 1,95,96
 441 -282 441 -282 400.5 -318 c 128,-1,97
 360 -354 360 -354 321.5 -395.5 c 128,-1,98
 283 -437 283 -437 248.5 -481 c 128,-1,99
 214 -525 214 -525 188 -565.5 c 128,-1,100
 162 -606 162 -606 147 -641 c 128,-1,101
 132 -676 132 -676 132 -699 c 0,102,103
 132 -736 132 -736 172 -736 c 0,88,89
EndSplineSet
EndChar

StartChar: q
Encoding: 113 113 55
Width: 832
Flags: W
LayerCount: 2
Fore
SplineSet
384 160 m 1,0,1
 372 158 372 158 360.5 157 c 128,-1,2
 349 156 349 156 338 156 c 0,3,4
 269 156 269 156 213 185.5 c 128,-1,5
 157 215 157 215 116.5 264.5 c 128,-1,6
 76 314 76 314 54 378.5 c 128,-1,7
 32 443 32 443 32 512 c 0,8,9
 32 606 32 606 70.5 688 c 128,-1,10
 109 770 109 770 172 830.5 c 128,-1,11
 235 891 235 891 315.5 925.5 c 128,-1,12
 396 960 396 960 480 960 c 0,13,14
 556 960 556 960 610.5 938.5 c 128,-1,15
 665 917 665 917 699.5 881 c 128,-1,16
 734 845 734 845 750 797.5 c 128,-1,17
 766 750 766 750 766 698 c 0,18,19
 766 680 766 680 763.5 660.5 c 128,-1,20
 761 641 761 641 756 624 c 0,21,22
 748 600 748 600 737 563.5 c 128,-1,23
 726 527 726 527 714.5 486.5 c 128,-1,24
 703 446 703 446 691 405.5 c 128,-1,25
 679 365 679 365 670 332.5 c 128,-1,26
 661 300 661 300 655 279 c 128,-1,27
 649 258 649 258 649 256 c 1,28,29
 648 257 648 257 652 241.5 c 128,-1,30
 656 226 656 226 662 200 c 1,31,32
 674 195 674 195 685 193.5 c 128,-1,33
 696 192 696 192 704 192 c 0,34,35
 740 192 740 192 786.5 217 c 128,-1,36
 833 242 833 242 882 277.5 c 128,-1,37
 931 313 931 313 977 351 c 128,-1,38
 1023 389 1023 389 1056 416 c 1,39,-1
 1056 192 l 1,40,41
 1026 163 1026 163 990 134 c 128,-1,42
 954 105 954 105 911 79.5 c 128,-1,43
 868 54 868 54 816 34.5 c 128,-1,44
 764 15 764 15 701 6 c 1,45,46
 715 -72 715 -72 725.5 -158 c 128,-1,47
 736 -244 736 -244 736 -320 c 0,48,49
 736 -416 736 -416 715.5 -493 c 128,-1,50
 695 -570 695 -570 654.5 -624 c 128,-1,51
 614 -678 614 -678 554.5 -707 c 128,-1,52
 495 -736 495 -736 416 -736 c 0,53,54
 382 -736 382 -736 347.5 -721 c 128,-1,55
 313 -706 313 -706 285.5 -677 c 128,-1,56
 258 -648 258 -648 241 -606.5 c 128,-1,57
 224 -565 224 -565 224 -512 c 0,58,59
 224 -452 224 -452 240 -372 c 128,-1,60
 256 -292 256 -292 280 -203 c 128,-1,61
 304 -114 304 -114 332 -20.5 c 128,-1,62
 360 73 360 73 384 160 c 1,0,1
416 288 m 1,63,64
 418 293 418 293 424.5 315.5 c 128,-1,65
 431 338 431 338 440.5 370.5 c 128,-1,66
 450 403 450 403 461 442.5 c 128,-1,67
 472 482 472 482 484 523 c 0,68,69
 511 618 511 618 544 736 c 1,70,71
 535 745 535 745 524 752 c 0,72,73
 515 758 515 758 503.5 763 c 128,-1,74
 492 768 492 768 480 768 c 0,75,76
 425 768 425 768 383.5 743 c 128,-1,77
 342 718 342 718 313.5 679.5 c 128,-1,78
 285 641 285 641 270.5 596 c 128,-1,79
 256 551 256 551 256 512 c 0,80,81
 256 480 256 480 262 442.5 c 128,-1,82
 268 405 268 405 285.5 372 c 128,-1,83
 303 339 303 339 334 315.5 c 128,-1,84
 365 292 365 292 416 288 c 1,63,64
544 33 m 1,85,86
 539 19 539 19 527 -20 c 128,-1,87
 515 -59 515 -59 499 -111 c 128,-1,88
 483 -163 483 -163 465.5 -222 c 128,-1,89
 448 -281 448 -281 434 -335 c 128,-1,90
 420 -389 420 -389 410.5 -433 c 128,-1,91
 401 -477 401 -477 401 -498 c 0,92,93
 401 -518 401 -518 411 -531 c 128,-1,94
 421 -544 421 -544 438 -544 c 0,95,96
 477 -544 477 -544 503 -520.5 c 128,-1,97
 529 -497 529 -497 545.5 -457.5 c 128,-1,98
 562 -418 562 -418 569 -365.5 c 128,-1,99
 576 -313 576 -313 576 -256 c 0,100,101
 576 -185 576 -185 568.5 -108.5 c 128,-1,102
 561 -32 561 -32 544 33 c 1,85,86
EndSplineSet
EndChar

StartChar: j
Encoding: 106 106 56
Width: 672
Flags: W
LayerCount: 2
Fore
SplineSet
0 0 m 0,0,1
 0 16 0 16 4.5 56.5 c 128,-1,2
 9 97 9 97 16.5 154.5 c 128,-1,3
 24 212 24 212 35 282 c 128,-1,4
 46 352 46 352 59 425.5 c 128,-1,5
 72 499 72 499 87 571.5 c 128,-1,6
 102 644 102 644 118 707.5 c 128,-1,7
 134 771 134 771 150.5 820 c 128,-1,8
 167 869 167 869 183 896 c 0,9,10
 197 919 197 919 216 932 c 128,-1,11
 235 945 235 945 257.5 951 c 128,-1,12
 280 957 280 957 304.5 958.5 c 128,-1,13
 329 960 329 960 353 960 c 0,14,15
 388 960 388 960 403.5 939 c 128,-1,16
 419 918 419 918 419 895 c 0,17,18
 419 883 419 883 413.5 857 c 128,-1,19
 408 831 408 831 400 801 c 128,-1,20
 392 771 392 771 384 744 c 128,-1,21
 376 717 376 717 372 704 c 2,22,-1
 316 544 l 1,23,24
 372 553 372 553 424 556.5 c 128,-1,25
 476 560 476 560 538 569.5 c 128,-1,26
 600 579 600 579 678 601.5 c 128,-1,27
 756 624 756 624 864 672 c 1,28,-1
 864 480 l 1,29,30
 798 444 798 444 731.5 424.5 c 128,-1,31
 665 405 665 405 611 396 c 0,32,33
 548 385 548 385 488 384 c 1,34,35
 513 319 513 319 532 249 c 0,36,37
 549 189 549 189 562.5 115.5 c 128,-1,38
 576 42 576 42 576 -32 c 0,39,40
 576 -45 576 -45 573.5 -92.5 c 128,-1,41
 571 -140 571 -140 561.5 -204 c 128,-1,42
 552 -268 552 -268 531.5 -339.5 c 128,-1,43
 511 -411 511 -411 475.5 -470.5 c 128,-1,44
 440 -530 440 -530 386.5 -569 c 128,-1,45
 333 -608 333 -608 256 -608 c 0,46,47
 186 -608 186 -608 137 -567 c 128,-1,48
 88 -526 88 -526 57.5 -448 c 128,-1,49
 27 -370 27 -370 13.5 -257 c 128,-1,50
 0 -144 0 -144 0 0 c 0,0,1
286 447 m 1,51,52
 260 292 260 292 242 134 c 128,-1,53
 224 -24 224 -24 224 -192 c 0,54,55
 224 -247 224 -247 231 -283.5 c 128,-1,56
 238 -320 238 -320 248.5 -342.5 c 128,-1,57
 259 -365 259 -365 269.5 -374.5 c 128,-1,58
 280 -384 280 -384 288 -384 c 0,59,60
 321 -384 321 -384 340.5 -348 c 128,-1,61
 360 -312 360 -312 369.5 -259 c 128,-1,62
 379 -206 379 -206 381.5 -144.5 c 128,-1,63
 384 -83 384 -83 384 -32 c 0,64,65
 384 -3 384 -3 379.5 33.5 c 128,-1,66
 375 70 375 70 368.5 109 c 128,-1,67
 362 148 362 148 353 188 c 128,-1,68
 344 228 344 228 335 266 c 0,69,70
 313 354 313 354 286 447 c 1,51,52
222 1241 m 0,71,72
 222 1264 222 1264 232 1293 c 128,-1,73
 242 1322 242 1322 264.5 1347.5 c 128,-1,74
 287 1373 287 1373 324.5 1390.5 c 128,-1,75
 362 1408 362 1408 418 1408 c 0,76,77
 453 1408 453 1408 484 1400 c 128,-1,78
 515 1392 515 1392 538 1375.5 c 128,-1,79
 561 1359 561 1359 574.5 1332 c 128,-1,80
 588 1305 588 1305 588 1268 c 0,81,82
 588 1234 588 1234 577 1202 c 128,-1,83
 566 1170 566 1170 542 1145 c 128,-1,84
 518 1120 518 1120 481.5 1104.5 c 128,-1,85
 445 1089 445 1089 394 1089 c 0,86,87
 306 1089 306 1089 264 1130.5 c 128,-1,88
 222 1172 222 1172 222 1241 c 0,71,72
EndSplineSet
EndChar

StartChar: eight
Encoding: 56 56 57
Width: 801
Flags: W
LayerCount: 2
Fore
SplineSet
148 827 m 0,0,1
 148 900 148 900 183.5 955 c 128,-1,2
 219 1010 219 1010 275 1046.5 c 128,-1,3
 331 1083 331 1083 401.5 1101 c 128,-1,4
 472 1119 472 1119 541 1119 c 0,5,6
 599 1119 599 1119 652 1107 c 128,-1,7
 705 1095 705 1095 745 1071 c 128,-1,8
 785 1047 785 1047 809 1011 c 128,-1,9
 833 975 833 975 833 927 c 0,10,11
 833 840 833 840 808 776 c 128,-1,12
 783 712 783 712 742 664 c 128,-1,13
 701 616 701 616 646.5 580.5 c 128,-1,14
 592 545 592 545 534 516 c 1,15,16
 578 483 578 483 619 447.5 c 128,-1,17
 660 412 660 412 692 372 c 128,-1,18
 724 332 724 332 743 286 c 128,-1,19
 762 240 762 240 762 186 c 0,20,21
 762 116 762 116 733.5 58.5 c 128,-1,22
 705 1 705 1 654.5 -40.5 c 128,-1,23
 604 -82 604 -82 535 -105 c 128,-1,24
 466 -128 466 -128 384 -128 c 0,25,26
 326 -128 326 -128 264 -116 c 128,-1,27
 202 -104 202 -104 150.5 -72 c 128,-1,28
 99 -40 99 -40 65.5 16.5 c 128,-1,29
 32 73 32 73 32 162 c 0,30,31
 32 238 32 238 55.5 296.5 c 128,-1,32
 79 355 79 355 117 401.5 c 128,-1,33
 155 448 155 448 204 484 c 128,-1,34
 253 520 253 520 304 552 c 1,35,36
 223 604 223 604 185.5 677.5 c 128,-1,37
 148 751 148 751 148 827 c 0,0,1
499 996 m 0,38,39
 470 996 470 996 443.5 986.5 c 128,-1,40
 417 977 417 977 397.5 959 c 128,-1,41
 378 941 378 941 366.5 915.5 c 128,-1,42
 355 890 355 890 355 858 c 0,43,44
 355 832 355 832 360.5 803 c 128,-1,45
 366 774 366 774 377 745 c 128,-1,46
 388 716 388 716 403.5 688.5 c 128,-1,47
 419 661 419 661 440 639 c 1,48,49
 474 660 474 660 505.5 692.5 c 128,-1,50
 537 725 537 725 562 761 c 128,-1,51
 587 797 587 797 602 833 c 128,-1,52
 617 869 617 869 617 898 c 0,53,54
 617 923 617 923 607 941.5 c 128,-1,55
 597 960 597 960 580.5 972 c 128,-1,56
 564 984 564 984 542.5 990 c 128,-1,57
 521 996 521 996 499 996 c 0,38,39
506 237 m 0,58,59
 506 288 506 288 481.5 326 c 128,-1,60
 457 364 457 364 422 399 c 1,61,62
 383 381 383 381 349.5 360 c 128,-1,63
 316 339 316 339 291.5 313 c 128,-1,64
 267 287 267 287 253.5 254.5 c 128,-1,65
 240 222 240 222 240 181 c 0,66,67
 240 149 240 149 249.5 125 c 128,-1,68
 259 101 259 101 274 84.5 c 128,-1,69
 289 68 289 68 307 59.5 c 128,-1,70
 325 51 325 51 342 51 c 0,71,72
 372 51 372 51 401.5 62.5 c 128,-1,73
 431 74 431 74 454.5 97.5 c 128,-1,74
 478 121 478 121 492 155.5 c 128,-1,75
 506 190 506 190 506 237 c 0,58,59
EndSplineSet
EndChar

StartChar: nine
Encoding: 57 57 58
Width: 927
Flags: W
LayerCount: 2
Fore
SplineSet
464 511 m 1,0,1
 483 532 483 532 491 532 c 256,2,3
 499 532 499 532 500 526.5 c 128,-1,4
 501 521 501 521 501 511 c 0,5,6
 501 479 501 479 486.5 443.5 c 128,-1,7
 472 408 472 408 446.5 378 c 128,-1,8
 421 348 421 348 385.5 328.5 c 128,-1,9
 350 309 350 309 308 309 c 0,10,11
 242 309 242 309 193.5 338 c 128,-1,12
 145 367 145 367 114 412.5 c 128,-1,13
 83 458 83 458 68 515.5 c 128,-1,14
 53 573 53 573 53 630 c 0,15,16
 53 682 53 682 66 736 c 128,-1,17
 79 790 79 790 104 841 c 128,-1,18
 129 892 129 892 166 937 c 128,-1,19
 203 982 203 982 252 1015.5 c 128,-1,20
 301 1049 301 1049 361 1068.5 c 128,-1,21
 421 1088 421 1088 492 1088 c 0,22,23
 553 1088 553 1088 619.5 1065 c 128,-1,24
 686 1042 686 1042 741 992.5 c 128,-1,25
 796 943 796 943 831.5 866 c 128,-1,26
 867 789 867 789 867 680 c 0,27,28
 867 519 867 519 820.5 389 c 128,-1,29
 774 259 774 259 693.5 156.5 c 128,-1,30
 613 54 613 54 505.5 -22.5 c 128,-1,31
 398 -99 398 -99 276 -153 c 0,32,33
 256 -162 256 -162 238 -168 c 128,-1,34
 220 -174 220 -174 203 -174 c 0,35,36
 158 -174 158 -174 133 -154.5 c 128,-1,37
 108 -135 108 -135 108 -107 c 0,38,39
 108 -84 108 -84 122 -59.5 c 128,-1,40
 136 -35 136 -35 168 -14 c 1,41,42
 268 37 268 37 350.5 99.5 c 128,-1,43
 433 162 433 162 492 242.5 c 128,-1,44
 551 323 551 323 583 423 c 128,-1,45
 615 523 615 523 615 648 c 0,46,47
 615 697 615 697 608.5 742 c 128,-1,48
 602 787 602 787 586 821.5 c 128,-1,49
 570 856 570 856 543.5 876.5 c 128,-1,50
 517 897 517 897 477 897 c 0,51,52
 436 897 436 897 402 871.5 c 128,-1,53
 368 846 368 846 343.5 806.5 c 128,-1,54
 319 767 319 767 305.5 718 c 128,-1,55
 292 669 292 669 292 622 c 0,56,57
 292 586 292 586 301 558 c 128,-1,58
 310 530 310 530 325 510.5 c 128,-1,59
 340 491 340 491 359 481 c 128,-1,60
 378 471 378 471 398 471 c 0,61,62
 415 471 415 471 432.5 481 c 128,-1,63
 450 491 450 491 464 511 c 1,0,1
EndSplineSet
EndChar

StartChar: question
Encoding: 63 63 59
Width: 1292
Flags: W
LayerCount: 2
Fore
SplineSet
711 584 m 1,0,1
 696 536 696 536 668.5 511 c 128,-1,2
 641 486 641 486 608 486 c 0,3,4
 573 486 573 486 546.5 501 c 128,-1,5
 520 516 520 516 520 550 c 0,6,7
 520 640 520 640 549.5 706.5 c 128,-1,8
 579 773 579 773 623 825.5 c 128,-1,9
 667 878 667 878 718.5 922 c 128,-1,10
 770 966 770 966 814 1013 c 128,-1,11
 858 1060 858 1060 887.5 1115.5 c 128,-1,12
 917 1171 917 1171 917 1245 c 0,13,14
 917 1287 917 1287 901.5 1316 c 128,-1,15
 886 1345 886 1345 861.5 1363.5 c 128,-1,16
 837 1382 837 1382 807 1390.5 c 128,-1,17
 777 1399 777 1399 747 1399 c 0,18,19
 724 1399 724 1399 699 1385 c 128,-1,20
 674 1371 674 1371 652 1352 c 128,-1,21
 630 1333 630 1333 614 1312.5 c 128,-1,22
 598 1292 598 1292 594 1280 c 1,23,24
 577 1259 577 1259 555.5 1249.5 c 128,-1,25
 534 1240 534 1240 511 1240 c 0,26,27
 492 1240 492 1240 473.5 1250 c 128,-1,28
 455 1260 455 1260 441 1277.5 c 128,-1,29
 427 1295 427 1295 418 1318.5 c 128,-1,30
 409 1342 409 1342 409 1370 c 0,31,32
 409 1392 409 1392 424 1416 c 0,33,34
 454 1461 454 1461 495 1496 c 128,-1,35
 536 1531 536 1531 583.5 1554.5 c 128,-1,36
 631 1578 631 1578 682 1590 c 128,-1,37
 733 1602 733 1602 783 1602 c 0,38,39
 844 1602 844 1602 911 1582.5 c 128,-1,40
 978 1563 978 1563 1033.5 1521.5 c 128,-1,41
 1089 1480 1089 1480 1125 1416 c 128,-1,42
 1161 1352 1161 1352 1161 1264 c 0,43,44
 1161 1158 1161 1158 1136 1083 c 128,-1,45
 1111 1008 1111 1008 1070.5 952 c 128,-1,46
 1030 896 1030 896 980 853.5 c 128,-1,47
 930 811 930 811 880 770.5 c 128,-1,48
 830 730 830 730 785 686 c 128,-1,49
 740 642 740 642 711 584 c 1,0,1
746 191 m 0,50,51
 746 187 746 187 745 171 c 128,-1,52
 744 155 744 155 738.5 134 c 128,-1,53
 733 113 733 113 721.5 89.5 c 128,-1,54
 710 66 710 66 689 46 c 128,-1,55
 668 26 668 26 636 13 c 128,-1,56
 604 0 604 0 558 0 c 0,57,58
 521 0 521 0 491 9.5 c 128,-1,59
 461 19 461 19 439.5 38.5 c 128,-1,60
 418 58 418 58 406 88.5 c 128,-1,61
 394 119 394 119 394 162 c 0,62,63
 394 198 394 198 404.5 232.5 c 128,-1,64
 415 267 415 267 437 294 c 128,-1,65
 459 321 459 321 494 337 c 128,-1,66
 529 353 529 353 577 353 c 0,67,68
 660 353 660 353 703 311 c 128,-1,69
 746 269 746 269 746 191 c 0,50,51
EndSplineSet
EndChar

StartChar: six
Encoding: 54 54 60
Width: 928
Flags: W
LayerCount: 2
Fore
SplineSet
625 432 m 0,0,1
 625 497 625 497 603 531.5 c 128,-1,2
 581 566 581 566 547 566 c 0,3,4
 522 566 522 566 505 553.5 c 128,-1,5
 488 541 488 541 476 522.5 c 128,-1,6
 464 504 464 504 455 482 c 128,-1,7
 446 460 446 460 437 441.5 c 128,-1,8
 428 423 428 423 418 410.5 c 128,-1,9
 408 398 408 398 394 398 c 0,10,11
 389 398 389 398 382.5 421.5 c 128,-1,12
 376 445 376 445 376 480 c 0,13,14
 376 535 376 535 398.5 579 c 128,-1,15
 421 623 421 623 457 653.5 c 128,-1,16
 493 684 493 684 539 700.5 c 128,-1,17
 585 717 585 717 633 717 c 0,18,19
 679 717 679 717 722 701 c 128,-1,20
 765 685 765 685 799 651.5 c 128,-1,21
 833 618 833 618 853.5 566 c 128,-1,22
 874 514 874 514 874 442 c 0,23,24
 874 362 874 362 843 283 c 128,-1,25
 812 204 812 204 754 141 c 128,-1,26
 696 78 696 78 613 39 c 128,-1,27
 530 0 530 0 425 0 c 0,28,29
 352 0 352 0 282 21.5 c 128,-1,30
 212 43 212 43 157 91 c 128,-1,31
 102 139 102 139 68.5 215 c 128,-1,32
 35 291 35 291 35 400 c 0,33,34
 35 524 35 524 82.5 642 c 128,-1,35
 130 760 130 760 212 863.5 c 128,-1,36
 294 967 294 967 405 1052.5 c 128,-1,37
 516 1138 516 1138 642 1197 c 0,38,39
 662 1206 662 1206 679.5 1211.5 c 128,-1,40
 697 1217 697 1217 715 1217 c 0,41,42
 759 1217 759 1217 784 1194.5 c 128,-1,43
 809 1172 809 1172 809 1140 c 0,44,45
 809 1117 809 1117 795.5 1093 c 128,-1,46
 782 1069 782 1069 750 1047 c 1,47,48
 661 994 661 994 576.5 918.5 c 128,-1,49
 492 843 492 843 426.5 753 c 128,-1,50
 361 663 361 663 321 562.5 c 128,-1,51
 281 462 281 462 281 361 c 0,52,53
 281 322 281 322 288.5 287 c 128,-1,54
 296 252 296 252 313.5 225 c 128,-1,55
 331 198 331 198 359 182.5 c 128,-1,56
 387 167 387 167 429 167 c 0,57,58
 472 167 472 167 508.5 191.5 c 128,-1,59
 545 216 545 216 570.5 254.5 c 128,-1,60
 596 293 596 293 610.5 340 c 128,-1,61
 625 387 625 387 625 432 c 0,0,1
EndSplineSet
EndChar

StartChar: eth
Encoding: 240 240 61
Width: 1089
Flags: W
LayerCount: 2
Fore
SplineSet
426 1506 m 0,0,1
 410 1506 410 1506 395.5 1515.5 c 128,-1,2
 381 1525 381 1525 370 1541 c 128,-1,3
 359 1557 359 1557 352.5 1577 c 128,-1,4
 346 1597 346 1597 346 1618 c 256,5,6
 346 1639 346 1639 353.5 1658.5 c 128,-1,7
 361 1678 361 1678 378.5 1694 c 128,-1,8
 396 1710 396 1710 423.5 1719.5 c 128,-1,9
 451 1729 451 1729 491 1729 c 0,10,11
 570 1729 570 1729 639.5 1711.5 c 128,-1,12
 709 1694 709 1694 769 1662 c 128,-1,13
 829 1630 829 1630 879.5 1584.5 c 128,-1,14
 930 1539 930 1539 971 1483 c 1,15,-1
 1136 1555 l 2,16,17
 1147 1560 1147 1560 1160 1563.5 c 128,-1,18
 1173 1567 1173 1567 1187 1567 c 0,19,20
 1200 1567 1200 1567 1214.5 1561 c 128,-1,21
 1229 1555 1229 1555 1240.5 1542.5 c 128,-1,22
 1252 1530 1252 1530 1259.5 1511 c 128,-1,23
 1267 1492 1267 1492 1267 1466 c 256,24,25
 1267 1440 1267 1440 1249 1413.5 c 128,-1,26
 1231 1387 1231 1387 1182 1366 c 2,27,-1
 1062 1314 l 1,28,29
 1094 1233 1094 1233 1110 1143 c 128,-1,30
 1126 1053 1126 1053 1126 958 c 0,31,32
 1126 827 1126 827 1105.5 704.5 c 128,-1,33
 1085 582 1085 582 1047 475.5 c 128,-1,34
 1009 369 1009 369 954.5 281.5 c 128,-1,35
 900 194 900 194 831.5 131.5 c 128,-1,36
 763 69 763 69 682 34.5 c 128,-1,37
 601 0 601 0 510 0 c 0,38,39
 432 0 432 0 352.5 23.5 c 128,-1,40
 273 47 273 47 209 97.5 c 128,-1,41
 145 148 145 148 104.5 227 c 128,-1,42
 64 306 64 306 64 416 c 0,43,44
 64 483 64 483 88 551.5 c 128,-1,45
 112 620 112 620 153.5 684 c 128,-1,46
 195 748 195 748 251.5 804 c 128,-1,47
 308 860 308 860 372.5 901.5 c 128,-1,48
 437 943 437 943 506.5 967 c 128,-1,49
 576 991 576 991 645 991 c 256,50,51
 714 991 714 991 770 983 c 128,-1,52
 826 975 826 975 872 961 c 1,53,-1
 872 968 l 2,54,55
 872 1040 872 1040 863 1101.5 c 128,-1,56
 854 1163 854 1163 837 1216 c 1,57,58
 792 1197 792 1197 746.5 1177 c 128,-1,59
 701 1157 701 1157 653 1136 c 0,60,61
 630 1126 630 1126 609 1126 c 0,62,63
 582 1126 582 1126 563.5 1140 c 128,-1,64
 545 1154 545 1154 533 1172.5 c 128,-1,65
 521 1191 521 1191 516 1209 c 128,-1,66
 511 1227 511 1227 511 1236 c 0,67,68
 511 1256 511 1256 525 1276 c 128,-1,69
 539 1296 539 1296 577 1313 c 2,70,-1
 743 1384 l 1,71,72
 685 1446 685 1446 605.5 1476 c 128,-1,73
 526 1506 526 1506 426 1506 c 0,0,1
542 192 m 0,74,75
 595 192 595 192 642.5 240 c 128,-1,76
 690 288 690 288 729.5 365 c 128,-1,77
 769 442 769 442 799 537.5 c 128,-1,78
 829 633 829 633 847 729 c 1,79,80
 814 745 814 745 769.5 756 c 128,-1,81
 725 767 725 767 661 767 c 256,82,83
 597 767 597 767 531 739 c 128,-1,84
 465 711 465 711 411.5 663 c 128,-1,85
 358 615 358 615 324 551 c 128,-1,86
 290 487 290 487 290 416 c 0,87,88
 290 371 290 371 303.5 330.5 c 128,-1,89
 317 290 317 290 347 259.5 c 128,-1,90
 377 229 377 229 425 210.5 c 128,-1,91
 473 192 473 192 542 192 c 0,74,75
EndSplineSet
EndChar

StartChar: T
Encoding: 84 84 62
Width: 1536
Flags: W
LayerCount: 2
Fore
SplineSet
199 1330 m 1,0,1
 199 1414 199 1414 233.5 1476.5 c 128,-1,2
 268 1539 268 1539 330.5 1583 c 128,-1,3
 393 1627 393 1627 480.5 1655.5 c 128,-1,4
 568 1684 568 1684 673 1700 c 128,-1,5
 778 1716 778 1716 898 1722 c 128,-1,6
 1018 1728 1018 1728 1146 1728 c 0,7,8
 1320 1728 1320 1728 1510.5 1714 c 128,-1,9
 1701 1700 1701 1700 1908 1663 c 1,10,11
 1956 1653 1956 1653 1975.5 1627 c 128,-1,12
 1995 1601 1995 1601 1995 1569 c 0,13,14
 1995 1549 1995 1549 1986 1530 c 128,-1,15
 1977 1511 1977 1511 1962 1495 c 128,-1,16
 1947 1479 1947 1479 1927 1469.5 c 128,-1,17
 1907 1460 1907 1460 1885 1460 c 0,18,19
 1808 1460 1808 1460 1724.5 1468 c 128,-1,20
 1641 1476 1641 1476 1550.5 1486 c 128,-1,21
 1460 1496 1460 1496 1364 1506 c 128,-1,22
 1268 1516 1268 1516 1166 1521 c 1,23,24
 1148 1409 1148 1409 1120 1280 c 128,-1,25
 1092 1151 1092 1151 1058.5 1016.5 c 128,-1,26
 1025 882 1025 882 988.5 748.5 c 128,-1,27
 952 615 952 615 918 493.5 c 128,-1,28
 884 372 884 372 854.5 269 c 128,-1,29
 825 166 825 166 806 92 c 0,30,31
 798 58 798 58 781.5 29.5 c 128,-1,32
 765 1 765 1 744.5 -20 c 128,-1,33
 724 -41 724 -41 702 -52.5 c 128,-1,34
 680 -64 680 -64 661 -64 c 0,35,36
 604 -64 604 -64 567 -37 c 128,-1,37
 530 -10 530 -10 530 50 c 0,38,39
 530 69 530 69 536 92 c 1,40,41
 549 183 549 183 570.5 271 c 128,-1,42
 592 359 592 359 621 454.5 c 128,-1,43
 650 550 650 550 687 657 c 128,-1,44
 724 764 724 764 769 892.5 c 128,-1,45
 814 1021 814 1021 866.5 1176 c 128,-1,46
 919 1331 919 1331 980 1521 c 1,47,48
 927 1517 927 1517 872.5 1512 c 128,-1,49
 818 1507 818 1507 766.5 1498.5 c 128,-1,50
 715 1490 715 1490 670.5 1477 c 128,-1,51
 626 1464 626 1464 592.5 1444 c 128,-1,52
 559 1424 559 1424 539.5 1396 c 128,-1,53
 520 1368 520 1368 520 1330 c 0,54,55
 520 1328 520 1328 517.5 1308 c 128,-1,56
 515 1288 515 1288 500 1264.5 c 128,-1,57
 485 1241 485 1241 452.5 1221.5 c 128,-1,58
 420 1202 420 1202 360 1202 c 256,59,60
 300 1202 300 1202 267 1222 c 128,-1,61
 234 1242 234 1242 219 1266 c 0,62,63
 201 1294 201 1294 199 1330 c 1,0,1
EndSplineSet
EndChar

StartChar: L
Encoding: 76 76 63
Width: 992
Flags: W
LayerCount: 2
Fore
SplineSet
-156 327 m 0,0,1
 -143 336 -143 336 -112 356.5 c 128,-1,2
 -81 377 -81 377 -39 405 c 128,-1,3
 3 433 3 433 51.5 466.5 c 128,-1,4
 100 500 100 500 147 534 c 1,5,-1
 155 602 l 1,6,7
 177 812 177 812 226 987.5 c 128,-1,8
 275 1163 275 1163 341.5 1304.5 c 128,-1,9
 408 1446 408 1446 486.5 1552 c 128,-1,10
 565 1658 565 1658 646.5 1729.5 c 128,-1,11
 728 1801 728 1801 807.5 1836.5 c 128,-1,12
 887 1872 887 1872 956 1872 c 0,13,14
 1006 1872 1006 1872 1048 1853 c 128,-1,15
 1090 1834 1090 1834 1120 1796 c 128,-1,16
 1150 1758 1150 1758 1167 1701 c 128,-1,17
 1184 1644 1184 1644 1184 1568 c 0,18,19
 1184 1475 1184 1475 1156 1373 c 128,-1,20
 1128 1271 1128 1271 1076.5 1167 c 128,-1,21
 1025 1063 1025 1063 953 959.5 c 128,-1,22
 881 856 881 856 793.5 760 c 128,-1,23
 706 664 706 664 604.5 578.5 c 128,-1,24
 503 493 503 493 394 426 c 1,25,26
 392 365 392 365 390.5 329.5 c 128,-1,27
 389 294 389 294 388.5 275.5 c 128,-1,28
 388 257 388 257 388 250 c 128,-1,29
 388 243 388 243 388 239 c 0,30,31
 388 230 388 230 391.5 222.5 c 128,-1,32
 395 215 395 215 405.5 210.5 c 128,-1,33
 416 206 416 206 434 203.5 c 128,-1,34
 452 201 452 201 482 201 c 0,35,36
 527 201 527 201 603 223 c 2,37,-1
 938 319 l 2,38,39
 946 321 946 321 954 322 c 128,-1,40
 962 323 962 323 969 323 c 0,41,42
 994 323 994 323 1012 313.5 c 128,-1,43
 1030 304 1030 304 1042 288 c 128,-1,44
 1054 272 1054 272 1060 251 c 128,-1,45
 1066 230 1066 230 1066 208 c 0,46,47
 1066 188 1066 188 1060 169 c 128,-1,48
 1054 150 1054 150 1042 133.5 c 128,-1,49
 1030 117 1030 117 1012 105 c 128,-1,50
 994 93 994 93 970 89 c 1,51,52
 872 50 872 50 770 19 c 0,53,54
 726 6 726 6 677.5 -6.5 c 128,-1,55
 629 -19 629 -19 578.5 -28.5 c 128,-1,56
 528 -38 528 -38 476.5 -44 c 128,-1,57
 425 -50 425 -50 377 -50 c 0,58,59
 303 -50 303 -50 255.5 -24.5 c 128,-1,60
 208 1 208 1 180.5 44.5 c 128,-1,61
 153 88 153 88 142 145 c 128,-1,62
 131 202 131 202 131 266 c 1,63,64
 45 203 45 203 -15 166 c 128,-1,65
 -75 129 -75 129 -92 129 c 256,66,67
 -109 129 -109 129 -124.5 140.5 c 128,-1,68
 -140 152 -140 152 -153 171 c 128,-1,69
 -166 190 -166 190 -173.5 213.5 c 128,-1,70
 -181 237 -181 237 -181 260 c 0,71,72
 -181 279 -181 279 -176.5 297.5 c 128,-1,73
 -172 316 -172 316 -156 327 c 0,0,1
412 678 m 1,74,75
 463 731 463 731 518.5 793.5 c 128,-1,76
 574 856 574 856 628.5 924.5 c 128,-1,77
 683 993 683 993 733.5 1064.5 c 128,-1,78
 784 1136 784 1136 824.5 1207 c 128,-1,79
 865 1278 865 1278 892.5 1345 c 128,-1,80
 920 1412 920 1412 928 1472 c 0,81,82
 931 1492 931 1492 932 1510.5 c 128,-1,83
 933 1529 933 1529 933 1545 c 0,84,85
 933 1602 933 1602 917.5 1628 c 128,-1,86
 902 1654 902 1654 875 1654 c 0,87,88
 843 1654 843 1654 800 1620.5 c 128,-1,89
 757 1587 757 1587 710 1525 c 128,-1,90
 663 1463 663 1463 615 1375 c 128,-1,91
 567 1287 567 1287 526 1179 c 128,-1,92
 485 1071 485 1071 454.5 944 c 128,-1,93
 424 817 424 817 412 678 c 1,74,75
EndSplineSet
EndChar

StartChar: x
Encoding: 120 120 64
Width: 1025
Flags: W
LayerCount: 2
Fore
SplineSet
198 466 m 1,0,1
 198 437 198 437 197 409.5 c 128,-1,2
 196 382 196 382 196 358 c 256,3,4
 196 334 196 334 198 314.5 c 128,-1,5
 200 295 200 295 206.5 281 c 128,-1,6
 213 267 213 267 224.5 259 c 128,-1,7
 236 251 236 251 256 251 c 0,8,9
 267 251 267 251 280.5 264 c 128,-1,10
 294 277 294 277 311.5 301 c 128,-1,11
 329 325 329 325 351 358 c 128,-1,12
 373 391 373 391 401 430 c 1,13,14
 370 502 370 502 340 586.5 c 128,-1,15
 310 671 310 671 281 771 c 0,16,17
 279 777 279 777 279 781 c 0,18,19
 279 799 279 799 294 819 c 128,-1,20
 309 839 309 839 332.5 856 c 128,-1,21
 356 873 356 873 383.5 884.5 c 128,-1,22
 411 896 411 896 436 896 c 0,23,24
 456 896 456 896 470.5 889 c 128,-1,25
 485 882 485 882 492 868 c 0,26,27
 503 842 503 842 527 784 c 128,-1,28
 551 726 551 726 582 653 c 1,29,30
 633 707 633 707 695 760.5 c 128,-1,31
 757 814 757 814 832 864 c 0,32,33
 857 881 857 881 879 888 c 128,-1,34
 901 895 901 895 919 895 c 0,35,36
 942 895 942 895 959.5 885.5 c 128,-1,37
 977 876 977 876 989 860 c 128,-1,38
 1001 844 1001 844 1007 823 c 128,-1,39
 1013 802 1013 802 1013 780 c 0,40,41
 1013 748 1013 748 1000 718.5 c 128,-1,42
 987 689 987 689 960 672 c 0,43,44
 882 623 882 623 812.5 562.5 c 128,-1,45
 743 502 743 502 680 436 c 1,46,47
 702 392 702 392 724.5 353 c 128,-1,48
 747 314 747 314 768 285 c 128,-1,49
 789 256 789 256 808.5 239.5 c 128,-1,50
 828 223 828 223 845 223 c 0,51,52
 867 223 867 223 898.5 234 c 128,-1,53
 930 245 930 245 965.5 263.5 c 128,-1,54
 1001 282 1001 282 1038 305.5 c 128,-1,55
 1075 329 1075 329 1108.5 355 c 128,-1,56
 1142 381 1142 381 1169.5 406.5 c 128,-1,57
 1197 432 1197 432 1214 454 c 1,58,59
 1214 421 1214 421 1214.5 394 c 128,-1,60
 1215 367 1215 367 1215 342.5 c 128,-1,61
 1215 318 1215 318 1215.5 292 c 128,-1,62
 1216 266 1216 266 1216 234 c 1,63,64
 1183 201 1183 201 1131 160.5 c 128,-1,65
 1079 120 1079 120 1015.5 84.5 c 128,-1,66
 952 49 952 49 880 24.5 c 128,-1,67
 808 0 808 0 736 0 c 0,68,69
 695 0 695 0 632.5 55.5 c 128,-1,70
 570 111 570 111 498 235 c 1,71,72
 455 185 455 185 416 142.5 c 128,-1,73
 377 100 377 100 343 68 c 128,-1,74
 309 36 309 36 279 18 c 128,-1,75
 249 0 249 0 224 0 c 0,76,77
 174 0 174 0 142 26 c 128,-1,78
 110 52 110 52 90.5 92.5 c 128,-1,79
 71 133 71 133 62.5 180.5 c 128,-1,80
 54 228 54 228 52 272 c 1,81,-1
 198 466 l 1,0,1
EndSplineSet
EndChar

StartChar: exclam
Encoding: 33 33 65
Width: 1184
Flags: W
LayerCount: 2
Fore
SplineSet
416 512 m 1,0,1
 426 615 426 615 446 724.5 c 128,-1,2
 466 834 466 834 492 943.5 c 128,-1,3
 518 1053 518 1053 547.5 1160 c 128,-1,4
 577 1267 577 1267 606 1365 c 128,-1,5
 635 1463 635 1463 661.5 1549 c 128,-1,6
 688 1635 688 1635 708 1704 c 0,7,8
 721 1752 721 1752 745.5 1781.5 c 128,-1,9
 770 1811 770 1811 800 1827.5 c 128,-1,10
 830 1844 830 1844 863.5 1850 c 128,-1,11
 897 1856 897 1856 928 1856 c 0,12,13
 944 1856 944 1856 958 1852 c 128,-1,14
 972 1848 972 1848 982 1837.5 c 128,-1,15
 992 1827 992 1827 997.5 1808.5 c 128,-1,16
 1003 1790 1003 1790 1003 1761 c 0,17,18
 1003 1741 1003 1741 1000.5 1717.5 c 128,-1,19
 998 1694 998 1694 992 1664 c 0,20,21
 967 1547 967 1547 927 1429.5 c 128,-1,22
 887 1312 887 1312 831 1177 c 128,-1,23
 775 1042 775 1042 703.5 880.5 c 128,-1,24
 632 719 632 719 544 512 c 1,25,26
 542 501 542 501 533.5 491.5 c 128,-1,27
 525 482 525 482 513 475.5 c 128,-1,28
 501 469 501 469 487 465.5 c 128,-1,29
 473 462 473 462 460 462 c 0,30,31
 441 462 441 462 427.5 470 c 128,-1,32
 414 478 414 478 414 497 c 0,33,34
 414 502 414 502 416 512 c 1,0,1
590 185 m 0,35,36
 588 181 588 181 586.5 166 c 128,-1,37
 585 151 585 151 579.5 130 c 128,-1,38
 574 109 574 109 564 86 c 128,-1,39
 554 63 554 63 534.5 43.5 c 128,-1,40
 515 24 515 24 485 11 c 128,-1,41
 455 -2 455 -2 410 -2 c 0,42,43
 373 -2 373 -2 343 7.5 c 128,-1,44
 313 17 313 17 291.5 37 c 128,-1,45
 270 57 270 57 258 88 c 128,-1,46
 246 119 246 119 246 162 c 0,47,48
 246 198 246 198 256.5 232.5 c 128,-1,49
 267 267 267 267 289 294 c 128,-1,50
 311 321 311 321 346 337 c 128,-1,51
 381 353 381 353 429 353 c 0,52,53
 507 353 507 353 549 311 c 128,-1,54
 591 269 591 269 591 191 c 0,55,56
 591 187 591 187 590 185 c 0,35,36
EndSplineSet
EndChar

StartChar: dollar
Encoding: 36 36 66
Width: 1735
Flags: W
LayerCount: 2
Fore
SplineSet
1106 1872 m 2,0,1
 1109 1891 1109 1891 1119 1911 c 128,-1,2
 1129 1931 1129 1931 1147 1947 c 128,-1,3
 1165 1963 1165 1963 1191 1973.5 c 128,-1,4
 1217 1984 1217 1984 1250 1984 c 0,5,6
 1268 1984 1268 1984 1280.5 1975.5 c 128,-1,7
 1293 1967 1293 1967 1301 1955 c 128,-1,8
 1309 1943 1309 1943 1313 1929.5 c 128,-1,9
 1317 1916 1317 1916 1317 1906 c 0,10,11
 1317 1898 1317 1898 1316 1887 c 128,-1,12
 1315 1876 1315 1876 1313.5 1864 c 128,-1,13
 1312 1852 1312 1852 1310.5 1840.5 c 128,-1,14
 1309 1829 1309 1829 1308 1820 c 2,15,-1
 1293 1728 l 1,16,17
 1374 1712 1374 1712 1447 1681 c 128,-1,18
 1520 1650 1520 1650 1575.5 1605 c 128,-1,19
 1631 1560 1631 1560 1664 1502 c 128,-1,20
 1697 1444 1697 1444 1697 1374 c 0,21,22
 1697 1336 1697 1336 1687.5 1308.5 c 128,-1,23
 1678 1281 1678 1281 1662 1263 c 128,-1,24
 1646 1245 1646 1245 1625.5 1236 c 128,-1,25
 1605 1227 1605 1227 1584 1227 c 0,26,27
 1561 1227 1561 1227 1538 1236.5 c 128,-1,28
 1515 1246 1515 1246 1497 1265 c 128,-1,29
 1479 1284 1479 1284 1468 1311.5 c 128,-1,30
 1457 1339 1457 1339 1457 1374 c 0,31,32
 1457 1424 1457 1424 1405 1464.5 c 128,-1,33
 1353 1505 1353 1505 1259 1523 c 1,34,-1
 1163 966 l 1,35,36
 1234 925 1234 925 1301 879 c 128,-1,37
 1368 833 1368 833 1420.5 778 c 128,-1,38
 1473 723 1473 723 1505 656 c 128,-1,39
 1537 589 1537 589 1537 507 c 0,40,41
 1537 396 1537 396 1497.5 307.5 c 128,-1,42
 1458 219 1458 219 1386.5 155.5 c 128,-1,43
 1315 92 1315 92 1214.5 53.5 c 128,-1,44
 1114 15 1114 15 992 4 c 1,45,-1
 962 -158 l 1,46,47
 955 -181 955 -181 944 -194 c 128,-1,48
 933 -207 933 -207 919.5 -214 c 128,-1,49
 906 -221 906 -221 891 -223 c 128,-1,50
 876 -225 876 -225 862 -225 c 0,51,52
 852 -225 852 -225 843.5 -224.5 c 128,-1,53
 835 -224 835 -224 827 -224 c 0,54,55
 811 -224 811 -224 797.5 -215.5 c 128,-1,56
 784 -207 784 -207 774.5 -192 c 128,-1,57
 765 -177 765 -177 759.5 -157 c 128,-1,58
 754 -137 754 -137 754 -114 c 0,59,60
 754 -103 754 -103 755 -91 c 128,-1,61
 756 -79 756 -79 758 -65 c 0,62,63
 759 -57 759 -57 762 -39 c 128,-1,64
 765 -21 765 -21 770 4 c 1,65,66
 663 13 663 13 569.5 42 c 128,-1,67
 476 71 476 71 406.5 121 c 128,-1,68
 337 171 337 171 297 244.5 c 128,-1,69
 257 318 257 318 257 417 c 0,70,71
 257 453 257 453 264.5 493.5 c 128,-1,72
 272 534 272 534 288.5 574 c 128,-1,73
 305 614 305 614 332.5 651 c 128,-1,74
 360 688 360 688 400 716 c 128,-1,75
 440 744 440 744 493.5 761 c 128,-1,76
 547 778 547 778 617 778 c 0,77,78
 647 778 647 778 668.5 769.5 c 128,-1,79
 690 761 690 761 704.5 747 c 128,-1,80
 719 733 719 733 726 715.5 c 128,-1,81
 733 698 733 698 733 680 c 0,82,83
 733 648 733 648 711.5 623 c 128,-1,84
 690 598 690 598 647 598 c 0,85,86
 624 598 624 598 597.5 591.5 c 128,-1,87
 571 585 571 585 548.5 565.5 c 128,-1,88
 526 546 526 546 511 511.5 c 128,-1,89
 496 477 496 477 496 420 c 0,90,91
 496 325 496 325 579 273 c 128,-1,92
 662 221 662 221 807 210 c 1,93,-1
 923 853 l 1,94,95
 845 894 845 894 768.5 938 c 128,-1,96
 692 982 692 982 631.5 1034.5 c 128,-1,97
 571 1087 571 1087 533.5 1150.5 c 128,-1,98
 496 1214 496 1214 496 1294 c 0,99,100
 496 1371 496 1371 533.5 1448.5 c 128,-1,101
 571 1526 571 1526 645 1589.5 c 128,-1,102
 719 1653 719 1653 829 1695 c 128,-1,103
 939 1737 939 1737 1084 1743 c 1,104,-1
 1106 1872 l 2,0,1
1297 507 m 0,105,106
 1297 543 1297 543 1284 575 c 128,-1,107
 1271 607 1271 607 1248 635.5 c 128,-1,108
 1225 664 1225 664 1193.5 690 c 128,-1,109
 1162 716 1162 716 1124 741 c 1,110,-1
 1033 224 l 1,111,112
 1093 239 1093 239 1141.5 265 c 128,-1,113
 1190 291 1190 291 1224.5 327 c 128,-1,114
 1259 363 1259 363 1278 408.5 c 128,-1,115
 1297 454 1297 454 1297 507 c 0,105,106
767 1324 m 0,116,117
 767 1287 767 1287 782 1254.5 c 128,-1,118
 797 1222 797 1222 823.5 1192 c 128,-1,119
 850 1162 850 1162 886 1135 c 128,-1,120
 922 1108 922 1108 965 1081 c 1,121,122
 987 1203 987 1203 1008 1317 c 128,-1,123
 1029 1431 1029 1431 1046 1531 c 1,124,125
 971 1523 971 1523 918.5 1503 c 128,-1,126
 866 1483 866 1483 832 1454.5 c 128,-1,127
 798 1426 798 1426 782.5 1392 c 128,-1,128
 767 1358 767 1358 767 1324 c 0,116,117
EndSplineSet
EndChar

StartChar: slash
Encoding: 47 47 67
Width: 1248
Flags: W
LayerCount: 2
Fore
SplineSet
928 1696 m 0,0,1
 941 1724 941 1724 964.5 1752.5 c 128,-1,2
 988 1781 988 1781 1021 1804 c 128,-1,3
 1054 1827 1054 1827 1095 1841.5 c 128,-1,4
 1136 1856 1136 1856 1184 1856 c 0,5,6
 1208 1856 1208 1856 1221 1846.5 c 128,-1,7
 1234 1837 1234 1837 1240 1822.5 c 128,-1,8
 1246 1808 1246 1808 1247 1791.5 c 128,-1,9
 1248 1775 1248 1775 1248 1760 c 0,10,11
 1248 1752 1248 1752 1242.5 1734.5 c 128,-1,12
 1237 1717 1237 1717 1228.5 1697 c 128,-1,13
 1220 1677 1220 1677 1211 1656.5 c 128,-1,14
 1202 1636 1202 1636 1196 1622 c 0,15,16
 1143 1506 1143 1506 1076 1341.5 c 128,-1,17
 1009 1177 1009 1177 925 976 c 128,-1,18
 841 775 841 775 739 544 c 128,-1,19
 637 313 637 313 514 64 c 1,20,21
 494 31 494 31 472.5 12 c 128,-1,22
 451 -7 451 -7 428.5 -17 c 128,-1,23
 406 -27 406 -27 384 -30 c 128,-1,24
 362 -33 362 -33 341 -33 c 256,25,26
 320 -33 320 -33 299 -31 c 128,-1,27
 278 -29 278 -29 261 -20.5 c 128,-1,28
 244 -12 244 -12 233 5.5 c 128,-1,29
 222 23 222 23 222 55 c 0,30,31
 222 81 222 81 231.5 116 c 128,-1,32
 241 151 241 151 261 197 c 0,33,34
 275 228 275 228 304.5 295 c 128,-1,35
 334 362 334 362 374.5 452.5 c 128,-1,36
 415 543 415 543 463 652 c 128,-1,37
 511 761 511 761 562.5 877 c 128,-1,38
 614 993 614 993 666.5 1111 c 128,-1,39
 719 1229 719 1229 767 1337 c 128,-1,40
 815 1445 815 1445 856.5 1537.5 c 128,-1,41
 898 1630 898 1630 928 1696 c 0,0,1
EndSplineSet
EndChar

StartChar: bracketleft
Encoding: 91 91 68
Width: 927
Flags: W
LayerCount: 2
Fore
SplineSet
392 1415 m 1,0,1
 398 1438 398 1438 405.5 1465.5 c 128,-1,2
 413 1493 413 1493 425.5 1521 c 128,-1,3
 438 1549 438 1549 457 1575.5 c 128,-1,4
 476 1602 476 1602 505 1622 c 128,-1,5
 534 1642 534 1642 575 1654.5 c 128,-1,6
 616 1667 616 1667 672 1667 c 2,7,-1
 990 1667 l 2,8,9
 1015 1667 1015 1667 1033.5 1656.5 c 128,-1,10
 1052 1646 1052 1646 1064 1630 c 128,-1,11
 1076 1614 1076 1614 1082 1595.5 c 128,-1,12
 1088 1577 1088 1577 1088 1561 c 0,13,14
 1088 1539 1088 1539 1075.5 1517.5 c 128,-1,15
 1063 1496 1063 1496 1043.5 1479.5 c 128,-1,16
 1024 1463 1024 1463 1001.5 1453 c 128,-1,17
 979 1443 979 1443 958 1443 c 2,18,-1
 672 1443 l 1,19,20
 672 1441 672 1441 666 1400 c 128,-1,21
 660 1359 660 1359 650 1290.5 c 128,-1,22
 640 1222 640 1222 626.5 1131 c 128,-1,23
 613 1040 613 1040 597.5 938.5 c 128,-1,24
 582 837 582 837 566 730 c 128,-1,25
 550 623 550 623 534.5 522 c 128,-1,26
 519 421 519 421 505.5 331.5 c 128,-1,27
 492 242 492 242 481.5 175 c 128,-1,28
 471 108 471 108 465 69.5 c 128,-1,29
 459 31 459 31 459 32 c 1,30,-1
 745 32 l 2,31,32
 761 32 761 32 776.5 25.5 c 128,-1,33
 792 19 792 19 803 7.5 c 128,-1,34
 814 -4 814 -4 821 -19 c 128,-1,35
 828 -34 828 -34 828 -51 c 0,36,37
 828 -66 828 -66 816.5 -90 c 128,-1,38
 805 -114 805 -114 784 -136.5 c 128,-1,39
 763 -159 763 -159 734 -175.5 c 128,-1,40
 705 -192 705 -192 671 -192 c 2,41,-1
 353 -192 l 2,42,43
 299 -192 299 -192 264.5 -180.5 c 128,-1,44
 230 -169 230 -169 210.5 -149.5 c 128,-1,45
 191 -130 191 -130 183.5 -105 c 128,-1,46
 176 -80 176 -80 176 -53 c 0,47,48
 176 -24 176 -24 181.5 5.5 c 128,-1,49
 187 35 187 35 192 60 c 0,50,51
 210 151 210 151 228 257.5 c 128,-1,52
 246 364 246 364 263.5 476 c 128,-1,53
 281 588 281 588 297.5 701.5 c 128,-1,54
 314 815 314 815 328 919 c 0,55,56
 361 1164 361 1164 392 1415 c 1,0,1
EndSplineSet
EndChar

StartChar: zero
Encoding: 48 48 69
Width: 863
Flags: W
LayerCount: 2
Fore
SplineSet
345 0 m 0,0,1
 268 0 268 0 210.5 33.5 c 128,-1,2
 153 67 153 67 115 123.5 c 128,-1,3
 77 180 77 180 58 254.5 c 128,-1,4
 39 329 39 329 39 412 c 0,5,6
 39 485 39 485 52.5 561.5 c 128,-1,7
 66 638 66 638 92 709.5 c 128,-1,8
 118 781 118 781 156.5 844.5 c 128,-1,9
 195 908 195 908 245 955.5 c 128,-1,10
 295 1003 295 1003 356.5 1030.5 c 128,-1,11
 418 1058 418 1058 490 1058 c 0,12,13
 573 1058 573 1058 633.5 1026.5 c 128,-1,14
 694 995 694 995 733 941 c 128,-1,15
 772 887 772 887 790.5 815.5 c 128,-1,16
 809 744 809 744 809 664 c 0,17,18
 809 590 809 590 794.5 512 c 128,-1,19
 780 434 780 434 752 360 c 128,-1,20
 724 286 724 286 683.5 220.5 c 128,-1,21
 643 155 643 155 591.5 106 c 128,-1,22
 540 57 540 57 478 28.5 c 128,-1,23
 416 0 416 0 345 0 c 0,0,1
361 182 m 0,24,25
 388 182 388 182 414 206.5 c 128,-1,26
 440 231 440 231 463 272 c 128,-1,27
 486 313 486 313 505.5 366 c 128,-1,28
 525 419 525 419 539 475.5 c 128,-1,29
 553 532 553 532 561 588 c 128,-1,30
 569 644 569 644 569 691 c 0,31,32
 569 730 569 730 564 764 c 128,-1,33
 559 798 559 798 549 823 c 128,-1,34
 539 848 539 848 523.5 862.5 c 128,-1,35
 508 877 508 877 486 877 c 0,36,37
 456 877 456 877 429.5 852.5 c 128,-1,38
 403 828 403 828 380.5 788 c 128,-1,39
 358 748 358 748 340.5 696 c 128,-1,40
 323 644 323 644 310.5 588.5 c 128,-1,41
 298 533 298 533 291.5 478.5 c 128,-1,42
 285 424 285 424 285 378 c 0,43,44
 285 336 285 336 289.5 300.5 c 128,-1,45
 294 265 294 265 303.5 238.5 c 128,-1,46
 313 212 313 212 327.5 197 c 128,-1,47
 342 182 342 182 361 182 c 0,24,25
EndSplineSet
EndChar

StartChar: OE
Encoding: 338 338 70
Width: 2306
Flags: W
LayerCount: 2
Fore
SplineSet
2590 250 m 1,0,1
 2509 164 2509 164 2407.5 99.5 c 128,-1,2
 2306 35 2306 35 2195.5 -8.5 c 128,-1,3
 2085 -52 2085 -52 1971 -74 c 128,-1,4
 1857 -96 1857 -96 1750 -96 c 0,5,6
 1677 -96 1677 -96 1608 -84 c 128,-1,7
 1539 -72 1539 -72 1478 -48 c 128,-1,8
 1417 -24 1417 -24 1366.5 12 c 128,-1,9
 1316 48 1316 48 1280 96 c 1,10,11
 1244 36 1244 36 1186 -16.5 c 128,-1,12
 1128 -69 1128 -69 1056.5 -108 c 128,-1,13
 985 -147 985 -147 904.5 -169.5 c 128,-1,14
 824 -192 824 -192 742 -192 c 0,15,16
 593 -192 593 -192 473.5 -131 c 128,-1,17
 354 -70 354 -70 270 39.5 c 128,-1,18
 186 149 186 149 141 300.5 c 128,-1,19
 96 452 96 452 96 633 c 0,20,21
 96 766 96 766 121.5 908 c 128,-1,22
 147 1050 147 1050 197 1186 c 128,-1,23
 247 1322 247 1322 322.5 1443.5 c 128,-1,24
 398 1565 398 1565 497.5 1656.5 c 128,-1,25
 597 1748 597 1748 721.5 1802 c 128,-1,26
 846 1856 846 1856 995 1856 c 0,27,28
 1079 1856 1079 1856 1161 1833 c 128,-1,29
 1243 1810 1243 1810 1314 1768 c 128,-1,30
 1385 1726 1385 1726 1442.5 1667 c 128,-1,31
 1500 1608 1500 1608 1536 1536 c 1,32,33
 1624 1658 1624 1658 1739 1714 c 128,-1,34
 1854 1770 1854 1770 1985 1770 c 0,35,36
 2118 1770 2118 1770 2256 1717.5 c 128,-1,37
 2394 1665 2394 1665 2528 1568 c 1,38,-1
 2432 1376 l 1,39,40
 2388 1420 2388 1420 2336 1454 c 128,-1,41
 2284 1488 2284 1488 2227.5 1511 c 128,-1,42
 2171 1534 2171 1534 2113 1545.5 c 128,-1,43
 2055 1557 2055 1557 1998 1557 c 0,44,45
 1932 1557 1932 1557 1871.5 1540.5 c 128,-1,46
 1811 1524 1811 1524 1762 1490 c 128,-1,47
 1713 1456 1713 1456 1679 1403.5 c 128,-1,48
 1645 1351 1645 1351 1632 1280 c 2,49,-1
 1568 928 l 1,50,-1
 2080 928 l 2,51,52
 2098 928 2098 928 2112 920 c 128,-1,53
 2126 912 2126 912 2136.5 899 c 128,-1,54
 2147 886 2147 886 2152.5 869.5 c 128,-1,55
 2158 853 2158 853 2158 836 c 0,56,57
 2158 817 2158 817 2151 799 c 128,-1,58
 2144 781 2144 781 2129 767 c 128,-1,59
 2114 753 2114 753 2090.5 744.5 c 128,-1,60
 2067 736 2067 736 2034 736 c 2,61,-1
 1536 736 l 1,62,63
 1516 655 1516 655 1500 585 c 0,64,65
 1493 555 1493 555 1487 525 c 128,-1,66
 1481 495 1481 495 1476 468.5 c 128,-1,67
 1471 442 1471 442 1468 421.5 c 128,-1,68
 1465 401 1465 401 1465 390 c 0,69,70
 1465 315 1465 315 1486.5 265 c 128,-1,71
 1508 215 1508 215 1545.5 184.5 c 128,-1,72
 1583 154 1583 154 1634 141 c 128,-1,73
 1685 128 1685 128 1744 128 c 0,74,75
 1815 128 1815 128 1893 142 c 128,-1,76
 1971 156 1971 156 2048.5 180.5 c 128,-1,77
 2126 205 2126 205 2199.5 238.5 c 128,-1,78
 2273 272 2273 272 2336 310.5 c 128,-1,79
 2399 349 2399 349 2447 391.5 c 128,-1,80
 2495 434 2495 434 2521 477 c 1,81,-1
 2590 250 l 1,0,1
766 32 m 0,82,83
 833 32 833 32 893 56.5 c 128,-1,84
 953 81 953 81 1005.5 123.5 c 128,-1,85
 1058 166 1058 166 1102.5 224.5 c 128,-1,86
 1147 283 1147 283 1184 352 c 1,87,-1
 1376 1280 l 1,88,89
 1366 1367 1366 1367 1339.5 1438 c 128,-1,90
 1313 1509 1313 1509 1270 1559 c 128,-1,91
 1227 1609 1227 1609 1168 1636.5 c 128,-1,92
 1109 1664 1109 1664 1034 1664 c 0,93,94
 942 1664 942 1664 856 1615.5 c 128,-1,95
 770 1567 770 1567 694 1484.5 c 128,-1,96
 618 1402 618 1402 555 1293 c 128,-1,97
 492 1184 492 1184 447 1064 c 128,-1,98
 402 944 402 944 377 820 c 128,-1,99
 352 696 352 696 352 583 c 0,100,101
 352 465 352 465 380.5 364.5 c 128,-1,102
 409 264 409 264 462.5 190 c 128,-1,103
 516 116 516 116 592.5 74 c 128,-1,104
 669 32 669 32 766 32 c 0,82,83
EndSplineSet
EndChar

StartChar: oe
Encoding: 339 339 71
Width: 1301
Flags: W
LayerCount: 2
Fore
SplineSet
980 0 m 0,0,1
 928 0 928 0 883 17 c 128,-1,2
 838 34 838 34 802 64 c 128,-1,3
 766 94 766 94 741 135 c 128,-1,4
 716 176 716 176 704 224 c 1,5,6
 680 176 680 176 645 135 c 128,-1,7
 610 94 610 94 569 64 c 128,-1,8
 528 34 528 34 483 17 c 128,-1,9
 438 0 438 0 394 0 c 0,10,11
 306 0 306 0 243.5 38.5 c 128,-1,12
 181 77 181 77 141 139 c 128,-1,13
 101 201 101 201 82.5 279 c 128,-1,14
 64 357 64 357 64 437 c 0,15,16
 64 500 64 500 80.5 563 c 128,-1,17
 97 626 97 626 126.5 684 c 128,-1,18
 156 742 156 742 195.5 792 c 128,-1,19
 235 842 235 842 281.5 879 c 128,-1,20
 328 916 328 916 379 937 c 128,-1,21
 430 958 430 958 481 958 c 0,22,23
 551 958 551 958 617 914 c 128,-1,24
 683 870 683 870 736 768 c 1,25,26
 831 959 831 959 1012 959 c 0,27,28
 1068 959 1068 959 1116 941 c 128,-1,29
 1164 923 1164 923 1199.5 890.5 c 128,-1,30
 1235 858 1235 858 1255 812 c 128,-1,31
 1275 766 1275 766 1275 709 c 0,32,33
 1275 647 1275 647 1244.5 585 c 128,-1,34
 1214 523 1214 523 1160 468 c 128,-1,35
 1106 413 1106 413 1031.5 370 c 128,-1,36
 957 327 957 327 870 303 c 1,37,38
 885 276 885 276 899.5 258 c 128,-1,39
 914 240 914 240 929 230 c 128,-1,40
 944 220 944 220 960.5 216 c 128,-1,41
 977 212 977 212 996 212 c 0,42,43
 1056 212 1056 212 1122.5 236 c 128,-1,44
 1189 260 1189 260 1252 296 c 128,-1,45
 1315 332 1315 332 1371 374.5 c 128,-1,46
 1427 417 1427 417 1466 455 c 1,47,-1
 1595 321 l 1,48,49
 1507 230 1507 230 1408 160 c 0,50,51
 1365 130 1365 130 1315.5 101 c 128,-1,52
 1266 72 1266 72 1211.5 49.5 c 128,-1,53
 1157 27 1157 27 1098.5 13.5 c 128,-1,54
 1040 0 1040 0 980 0 c 0,0,1
433 192 m 0,55,56
 467 192 467 192 499 226.5 c 128,-1,57
 531 261 531 261 555 313.5 c 128,-1,58
 579 366 579 366 593.5 429.5 c 128,-1,59
 608 493 608 493 608 551 c 0,60,61
 608 597 608 597 601 636.5 c 128,-1,62
 594 676 594 676 580 705 c 128,-1,63
 566 734 566 734 544 751 c 128,-1,64
 522 768 522 768 491 768 c 0,65,66
 450 768 450 768 413 733 c 128,-1,67
 376 698 376 698 348 643.5 c 128,-1,68
 320 589 320 589 304 523 c 128,-1,69
 288 457 288 457 288 396 c 0,70,71
 288 354 288 354 296 317 c 128,-1,72
 304 280 304 280 321 252.5 c 128,-1,73
 338 225 338 225 366 208.5 c 128,-1,74
 394 192 394 192 433 192 c 0,55,56
847 470 m 1,75,76
 883 470 883 470 925.5 488.5 c 128,-1,77
 968 507 968 507 1004.5 536 c 128,-1,78
 1041 565 1041 565 1066 599 c 128,-1,79
 1091 633 1091 633 1091 665 c 0,80,81
 1091 710 1091 710 1074.5 739 c 128,-1,82
 1058 768 1058 768 1034 768 c 0,83,84
 991 768 991 768 960.5 752 c 128,-1,85
 930 736 930 736 909.5 710.5 c 128,-1,86
 889 685 889 685 876.5 652.5 c 128,-1,87
 864 620 864 620 857.5 587 c 128,-1,88
 851 554 851 554 849 523 c 128,-1,89
 847 492 847 492 847 470 c 1,75,76
EndSplineSet
EndChar

StartChar: fraction
Encoding: 8260 8260 72
Width: 1248
Flags: W
LayerCount: 2
Fore
SplineSet
928 1696 m 0,0,1
 941 1724 941 1724 964.5 1752.5 c 128,-1,2
 988 1781 988 1781 1021 1804 c 128,-1,3
 1054 1827 1054 1827 1095 1841.5 c 128,-1,4
 1136 1856 1136 1856 1184 1856 c 0,5,6
 1208 1856 1208 1856 1221 1846.5 c 128,-1,7
 1234 1837 1234 1837 1240 1822.5 c 128,-1,8
 1246 1808 1246 1808 1247 1791.5 c 128,-1,9
 1248 1775 1248 1775 1248 1760 c 0,10,11
 1248 1752 1248 1752 1242.5 1734.5 c 128,-1,12
 1237 1717 1237 1717 1228.5 1697 c 128,-1,13
 1220 1677 1220 1677 1211 1656.5 c 128,-1,14
 1202 1636 1202 1636 1196 1622 c 0,15,16
 1143 1506 1143 1506 1076 1341.5 c 128,-1,17
 1009 1177 1009 1177 925 976 c 128,-1,18
 841 775 841 775 739 544 c 128,-1,19
 637 313 637 313 514 64 c 1,20,21
 494 31 494 31 472.5 12 c 128,-1,22
 451 -7 451 -7 428.5 -17 c 128,-1,23
 406 -27 406 -27 384 -30 c 128,-1,24
 362 -33 362 -33 341 -33 c 256,25,26
 320 -33 320 -33 299 -31 c 128,-1,27
 278 -29 278 -29 261 -20.5 c 128,-1,28
 244 -12 244 -12 233 5.5 c 128,-1,29
 222 23 222 23 222 55 c 0,30,31
 222 81 222 81 231.5 116 c 128,-1,32
 241 151 241 151 261 197 c 0,33,34
 275 228 275 228 304.5 295 c 128,-1,35
 334 362 334 362 374.5 452.5 c 128,-1,36
 415 543 415 543 463 652 c 128,-1,37
 511 761 511 761 562.5 877 c 128,-1,38
 614 993 614 993 666.5 1111 c 128,-1,39
 719 1229 719 1229 767 1337 c 128,-1,40
 815 1445 815 1445 856.5 1537.5 c 128,-1,41
 898 1630 898 1630 928 1696 c 0,0,1
EndSplineSet
EndChar

StartChar: numbersign
Encoding: 35 35 73
Width: 1248
Flags: W
LayerCount: 2
Fore
SplineSet
483 960 m 2,0,1
 459 960 459 960 435 966 c 128,-1,2
 411 972 411 972 392 985 c 128,-1,3
 373 998 373 998 361 1018.5 c 128,-1,4
 349 1039 349 1039 349 1068 c 0,5,6
 349 1106 349 1106 368.5 1129 c 128,-1,7
 388 1152 388 1152 421.5 1164 c 128,-1,8
 455 1176 455 1176 499 1180 c 128,-1,9
 543 1184 543 1184 591 1184 c 2,10,-1
 644 1184 l 1,11,-1
 782 1490 l 2,12,13
 792 1514 792 1514 811 1539.5 c 128,-1,14
 830 1565 830 1565 856.5 1585 c 128,-1,15
 883 1605 883 1605 916 1618 c 128,-1,16
 949 1631 949 1631 987 1631 c 0,17,18
 1008 1631 1008 1631 1020 1622.5 c 128,-1,19
 1032 1614 1032 1614 1037 1601.5 c 128,-1,20
 1042 1589 1042 1589 1043 1574 c 128,-1,21
 1044 1559 1044 1559 1044 1546 c 0,22,23
 1044 1539 1044 1539 1039 1524 c 128,-1,24
 1034 1509 1034 1509 1026.5 1491 c 128,-1,25
 1019 1473 1019 1473 1011.5 1455 c 128,-1,26
 1004 1437 1004 1437 998 1425 c 0,27,28
 975 1374 975 1374 949 1314 c 128,-1,29
 923 1254 923 1254 894 1184 c 1,30,31
 958 1184 958 1184 1026 1184.5 c 128,-1,32
 1094 1185 1094 1185 1163 1185 c 1,33,34
 1196 1278 1196 1278 1225 1357.5 c 128,-1,35
 1254 1437 1254 1437 1275 1494 c 0,36,37
 1284 1518 1284 1518 1300.5 1543.5 c 128,-1,38
 1317 1569 1317 1569 1341.5 1589 c 128,-1,39
 1366 1609 1366 1609 1398 1622 c 128,-1,40
 1430 1635 1430 1635 1468 1635 c 0,41,42
 1489 1635 1489 1635 1501.5 1626.5 c 128,-1,43
 1514 1618 1514 1618 1520.5 1605.5 c 128,-1,44
 1527 1593 1527 1593 1529 1578 c 128,-1,45
 1531 1563 1531 1563 1533 1550 c 1,46,47
 1533 1542 1533 1542 1529 1527 c 128,-1,48
 1525 1512 1525 1512 1519.5 1494.5 c 128,-1,49
 1514 1477 1514 1477 1508 1459.5 c 128,-1,50
 1502 1442 1502 1442 1497 1429 c 0,51,52
 1478 1378 1478 1378 1457 1317 c 128,-1,53
 1436 1256 1436 1256 1413 1185 c 1,54,-1
 1539 1185 l 2,55,56
 1564 1185 1564 1185 1580 1180 c 128,-1,57
 1596 1175 1596 1175 1605 1166 c 128,-1,58
 1614 1157 1614 1157 1617.5 1146 c 128,-1,59
 1621 1135 1621 1135 1621 1123 c 0,60,61
 1621 1088 1621 1088 1609.5 1058.5 c 128,-1,62
 1598 1029 1598 1029 1569.5 1007 c 128,-1,63
 1541 985 1541 985 1493.5 972.5 c 128,-1,64
 1446 960 1446 960 1375 960 c 2,65,-1
 1339 960 l 1,66,67
 1317 892 1317 892 1292.5 820.5 c 128,-1,68
 1268 749 1268 749 1241 673 c 1,69,-1
 1328 673 l 1,70,71
 1353 671 1353 671 1369 665 c 128,-1,72
 1385 659 1385 659 1394 650.5 c 128,-1,73
 1403 642 1403 642 1406.5 631 c 128,-1,74
 1410 620 1410 620 1410 609 c 0,75,76
 1410 575 1410 575 1398 545.5 c 128,-1,77
 1386 516 1386 516 1357.5 494.5 c 128,-1,78
 1329 473 1329 473 1281.5 460.5 c 128,-1,79
 1234 448 1234 448 1164 448 c 2,80,-1
 1161 448 l 1,81,82
 1126 353 1126 353 1087.5 255 c 128,-1,83
 1049 157 1049 157 1007 55 c 0,84,85
 995 26 995 26 980 9 c 128,-1,86
 965 -8 965 -8 949 -17 c 128,-1,87
 933 -26 933 -26 916.5 -28.5 c 128,-1,88
 900 -31 900 -31 885 -31 c 0,89,90
 865 -31 865 -31 846 -27.5 c 128,-1,91
 827 -24 827 -24 812 -14.5 c 128,-1,92
 797 -5 797 -5 788 13 c 128,-1,93
 779 31 779 31 779 60 c 0,94,95
 779 103 779 103 803 172 c 2,96,-1
 900 447 l 1,97,98
 826 446 826 446 744.5 445.5 c 128,-1,99
 663 445 663 445 576 445 c 1,100,101
 532 350 532 350 485 251.5 c 128,-1,102
 438 153 438 153 387 51 c 0,103,104
 372 22 372 22 355.5 5 c 128,-1,105
 339 -12 339 -12 322 -21 c 128,-1,106
 305 -30 305 -30 288.5 -32.5 c 128,-1,107
 272 -35 272 -35 257 -35 c 0,108,109
 240 -35 240 -35 222.5 -32.5 c 128,-1,110
 205 -30 205 -30 191 -22 c 128,-1,111
 177 -14 177 -14 168 1.5 c 128,-1,112
 159 17 159 17 159 43 c 0,113,114
 159 65 159 65 167 96.5 c 128,-1,115
 175 128 175 128 193 168 c 2,116,-1
 317 447 l 1,117,118
 312 447 312 447 308 447.5 c 128,-1,119
 304 448 304 448 300 448 c 0,120,121
 276 448 276 448 252 454 c 128,-1,122
 228 460 228 460 209 473 c 128,-1,123
 190 486 190 486 178 506.5 c 128,-1,124
 166 527 166 527 166 556 c 0,125,126
 166 583 166 583 176 601 c 128,-1,127
 186 619 186 619 201.5 631.5 c 128,-1,128
 217 644 217 644 236 652 c 128,-1,129
 255 660 255 660 274 666 c 0,130,131
 287 671 287 671 318 671.5 c 128,-1,132
 349 672 349 672 378 672 c 2,133,-1
 416 672 l 1,134,-1
 545 960 l 1,135,-1
 483 960 l 2,0,1
800 960 m 1,136,137
 771 891 771 891 740.5 819 c 128,-1,138
 710 747 710 747 676 669 c 1,139,-1
 677 669 l 2,140,141
 752 669 752 669 827.5 669 c 128,-1,142
 903 669 903 669 980 670 c 1,143,144
 1005 741 1005 741 1031 814 c 128,-1,145
 1057 887 1057 887 1083 960 c 1,146,-1
 800 960 l 1,136,137
EndSplineSet
EndChar

